/* XPM */
static char *ground_resized1674289447[] = {
/* columns rows colors chars-per-pixel */
"64 64 147 2 ",
"   c #1B0706",
".  c #160C04",
"X  c #1C0C04",
"o  c #170908",
"O  c #1B0E0B",
"+  c #151106",
"@  c #1C1106",
"#  c #171008",
"$  c #1C120B",
"%  c #1F1909",
"&  c #230D04",
"*  c #290D02",
"=  c #220F09",
"-  c #251305",
";  c #2B1305",
":  c #251807",
">  c #2E1B07",
",  c #24140B",
"<  c #2B160C",
"1  c #26190A",
"2  c #2C1A0C",
"3  c #341905",
"4  c #3C1B05",
"5  c #33160A",
"6  c #331B0D",
"7  c #3B1C0C",
"8  c #241513",
"9  c #2A1613",
"0  c #261A12",
"q  c #2C1B12",
"w  c #2E1C1C",
"e  c #301710",
"r  c #331D13",
"t  c #3B1D11",
"y  c #331E19",
"u  c #3D1E19",
"i  c #36210E",
"p  c #3C220D",
"a  c #3D280D",
"s  c #342114",
"d  c #3B2314",
"f  c #3F2A13",
"g  c #34231A",
"h  c #3B2418",
"j  c #3C291A",
"k  c #362221",
"l  c #3E2C20",
"z  c #451707",
"x  c #421E0B",
"c  c #49190B",
"v  c #411B12",
"b  c #4B1F12",
"n  c #401F1A",
"m  c #422307",
"M  c #44230E",
"N  c #49240E",
"B  c #47280B",
"V  c #4A2A0C",
"C  c #51270F",
"Z  c #512A0F",
"A  c #442514",
"S  c #4B2613",
"D  c #442A14",
"F  c #4C2B15",
"G  c #43251A",
"H  c #4A261B",
"J  c #442A1B",
"K  c #4C2C1B",
"L  c #532614",
"P  c #532C15",
"I  c #5A2E15",
"U  c #522619",
"Y  c #5B271A",
"T  c #532D1B",
"R  c #5A2E1B",
"E  c #4E3115",
"W  c #45301B",
"Q  c #4D321C",
"!  c #543215",
"~  c #5A3216",
"^  c #55321C",
"/  c #5B341C",
"(  c #56391B",
")  c #5C391D",
"_  c #652F13",
"`  c #623316",
"'  c #683615",
"]  c #603A16",
"[  c #62351C",
"{  c #6A361C",
"}  c #64391D",
"|  c #6A3B1D",
" . c #713E1F",
".. c #442D21",
"X. c #4B2E21",
"o. c #542E21",
"O. c #5B2F21",
"+. c #4D3221",
"@. c #483628",
"#. c #553322",
"$. c #5B3522",
"%. c #563825",
"&. c #5D3924",
"*. c #543529",
"=. c #5D362A",
"-. c #563A2A",
";. c #5D3C2A",
":. c #5F3F30",
">. c #623623",
",. c #6A3623",
"<. c #643B23",
"1. c #6A3D24",
"2. c #653728",
"3. c #6A3428",
"4. c #643C2A",
"5. c #6A3D2A",
"6. c #713E24",
"7. c #783F24",
"8. c #733D2C",
"9. c #603F30",
"0. c #683E30",
"q. c #63431D",
"w. c #5C4224",
"e. c #5D402C",
"r. c #5F4332",
"t. c #654126",
"y. c #6B4225",
"u. c #65412B",
"i. c #6C422B",
"p. c #734224",
"a. c #794426",
"s. c #72442B",
"d. c #7E452C",
"f. c #74492D",
"g. c #794A2C",
"h. c #634531",
"j. c #6C4431",
"k. c #6D4932",
"l. c #724432",
"z. c #734A33",
"x. c #7B4A34",
"c. c #7E4639",
"v. c #734C3A",
"b. c #7A4B39",
"n. c #7C523B",
"m. c #805135",
"M. c #805340",
/* pixels */
"j J p ^ &.K f > T M o.o J 8./ T / a 4.D i 4.2 9 I [ ^ &.7 K G J F f 0 = A ^ M J T D T S P I #.G $ u / Q +.U =.d I u.^ 4 T T J r ",
"s Q D F &.K j 2 &.D #.X l p.) $.} D >.Q x u.1 9 / $.#.u.d D G Q E d < = A ^ B J ) F +.F T I ) G $ h / F Q T =.p ~ 4.T M ^ T J q ",
"i %.T ! ^ Q j > u.E / X J p.] >.1.! / ) N l.: , / / $.u.M D J K ) J 1 - D ! A G ) K ^ ^ / / $.J $ J $.D Q T $.A [ &.K H ) K H q ",
"p -.P T ^ K D s u.F >.= J a.} >.s.^ >.) ! l.; < <./ $.e.A K K K w.G , , D / F G &.F #.&./ [ &.d . H $.S K T $.D <.^ D ^ ^ T J r ",
"m &.F / / F A +.<.V $.- J a.| $.x.! } / 1.8.< < ,.&.&.&.M D #.^ 1.D < 1 K ~ T H } P ^ &./ [ #.A $ X.#.M W T $.H <.T F #.T T K 9 ",
"D ;.S <.<.P D e.>.N >., j d.y./ f.F ,./ f.,.2 = / <.$.^ x N ^ 4.,.G , q D / $.K y.P ^ t./ } #.d @ o./ M Q T $.P ,.^ S T P #.K q ",
"d ;.M 1.y.~ F k.#.V 2., 7 m.p.P j.Q [ <.f.>.: 9 <./ H U ^ F P &.<.D 2 s K I >.#.y.P ^ u.I [ #.d , o./ D +.T >.) ) &.A F S %.+.9 ",
"6 %.N <.y./ P k.^ B >.X t m.y.F 5.Q ` y.i.>.X 9 f.I x / v.;.P / [ K q g F P >.#.p.P ^ i.P <.$.t , ^ o.D +.T O.&./ <.A N S &.+.2 ",
"s X.C y.<.<.P i.^ L %., H a.p.G <.^ ) <.<.) ; , i.~ N j./ T $.P <.S e 2 >.[ E $.u.P ) t.I >.%.> : ;.W S / #.Y ;.( 3.H f M 4.#.2 ",
"y Q V p.1.1.P i.! Z %., G p.6.D } ^ ) <.1.^ - q 5.! P e.K F $.I t.S , : $.,.! 5.<.L ) y./ $.;.i : 4.J S $.#./ %.! 1.U f D >.T 2 ",
"t Q C f.<.y.P s.) P %., G  .1.A ) ^ ^ <.1.#.& y i.L &.#.D H ^ ^ i.R q 1 #.8.! 5.) P ) <./ ) #.2 > 4.J P >.Q >.^ E <.T f F <.H 2 ",
"t +.P g.<.<.F i.&.P ^ = A  .y.t ! / P } p.&.* y i.F &.Q Q &.#.^ / T , 1 O.s.! i.&.) t.y.,.>.#.6 2 ;.D T <.K 5.K ! ,./ f Q 5.D 6 ",
"t ^ T x.[ <.F >.<.R D = J  .6.6 ) $.L <.p.5.* y i.F &.D Q %.^ ^ } $.q q $.p.F s.S F P I / >.K > 6 >.D R <.^ 5.D ) <.>.D ( 2.H s ",
"r Q ] s./ / P ) 1.R F = K 1.1.< ) ) F 1.5.s.; y i.P &.H A K U <.} T - @ T ` M <.T / &.[ 5.k.%.d 6 #.J >./ ( 5.S u.>.2.F ! 5.H 2 ",
"6 T 1.y.~ ^ ^ P <./ H = H  .8.< &.&.T 1.,.z.3 e 1.~ &.^ K ^ T <.t.T 1 , l.b.&.M.T 4.<.) 5.u.o.2 t $.D i.P w.<.F &.U <.K ! 3.T , ",
"5 P y.} ~ ^ $.F } [ H < ..| 5.< ) >./ 5.` k.5 9 1./ ^ u.&.<.P $.t.S < - v.8.E i.P 4.t./ 5.2.G ; A >.W i.L u.>.F %.z $.F ! 5.#., ",
": #.$.,.~ ) &.H / | ) - e <.<.5 t.} P s.} i.5 9 <.) I j.l./ ~ &.,.F , q &.1.] <.C t.) <.y.<.S < j $.I <.^ 4.<.F W 3 Q ! [ i.G < ",
"1 +.) ,.I &.&.S / y.$.= t <.>.t y.) ! y.` >.; 9 <./ / 5.u.T / $.y.K $ , %.1.[ t.L t.&.<.| ,.G < j $.R <.F 4.>.^ ^ 4 #.F <.<.H ; ",
"> +./ [ ~ <.#.S / p./ = h 1.>.G f.<./ <.[ ! ; q t.I / 4.5.L &./ 1.K - , O.,.` <.! t.) ,.} <.D 5 j >.` <.^ >.>.( ^ K &.P y.} Q , ",
"2 X.T ,.~ t.^ M } s.&.& G i.[ ^ f.~ >.,.[ ^ - q 1.I <.&.#.L <.) 1.D X , #.1.[ <.~ t./ } } <.K 6 s $.} &.^ >.>.( ^ #.^ ) i./ G 1 ",
"2 X.T ,.~ i.^ G <.s.&.= X.s.` -.1.I <.,.} ^ - 0 ,./ <.>.^ F 2.[ } G @ - #.1.[ ) ~ <.) <.' <.K < r $.,.) ( 4.>.&.P &.F t.y./ D 9 ",
"2 K ~ 5./ k.^ F <.p.$.* X.p._ =.<.P $.<.,.u.- 0 } ,.) &.T / <./ | K , , #.1.[ } } <.&.<.} <.K < 2 ^ 3.^ &.4./ &.~ ) P y.<.) K q ",
"> J / 5.~ k.T K i.1.$.& H 8._ 2.<.^ &.<.[ v.; 8 R 1./ &.P &.<./ 1.Q , , T ,.~ <.<.t.<.i.} t.#.< 2 R 5.) &.5./ &.) ^ &.) ,./ %.e ",
"> J / p.P k.P ^ i.,./ = H p._ $.) F ^ >.~ v.* , I i./ &.F 4./ / y.#.9 , T [ [ ) <.t.<.i.,.1.%.2 s / p.) w.5.R #.&.! k.L ] / h.e ",
"1 K ~ <.R j.T ~ q.,.%.@ G ,./ 1.$.W >.) / 5.1 = T ) ^ $.^ i.L $.) T 2 : H s.^ } p.` y.f.1.} e.> 2 &.y.} <.) 4.P ) u.S &.y.! r., ",
"1 K / ,.[ u.P / ) ,.D + G 3.} P / D $.>.<.5.-   T / $.&.T u.P ) / o.2 : U i.( ,.y.[ t.f.1.| u.2 6 &.y.| <.&.&.! ) t.^ &.i.F ;.2 ",
"2 #./ } <.u.P <.( 8.H : #.2.t.<.%.J R $.&.5.9 9 T ^ $.&.P t.P / ^ O.2 > T y.( | q.| y.y.6.1.4.2 6 %.i.} <.^ &.^ ) ( ^ <.1.I %.2 ",
"q &./ } i.u.P 1.w.3.t + G c M L S 7 S D P I . O ^ ^ &./ P i./ / ^ #.2 , R ,.) 1.y.t.t.t.6.,.u.i < #.y.} / ) &.$.Q F u.<.} / ^ > ",
"s -.[ } i.<.^ y.( Y t + -.l./ i.#.+.4.h.i.2.+ 9 ) ^ <.&.P i.} / ~ $.2 - 3.3.) y.| t.t.) p.1.t.i < K <.1.[ &.) <.D D j.,.[ ,.Q : ",
"i &./ | s.<./ 1.( 3.#.+ *.l.! / #.+.>.u.t.>.X w &.! >.) P i.3.R / >.2 : 2.,.) p.} i.t.~ p.p.&.s ; D <.} / <.~ <.F Q i.} | 1.J - ",
"s ^ / 1.i./ / 1.B 8.*.X o.s.<.t.U W T ~ $.Y X k <.P &.^ P p.i.` ! >.2 : 5.| ) p.[ u.&.~ a.p.&.p , A } } / <.P <.R / <.} p.<.d , ",
"t Q / p.i.I >.} ( m.H . T 3.} } U D R / <.R X r w.P ) ! I s.i.[ / 4.2 ; l.{ ) y.~ k.<.I a.p.&.p < A ) y.[ t.P <.<.>.,.} g./ s q ",
"r Q / 1.i.>./ <.| 1.S , ..1.{ $.^ s ` T / I X h <.) T F / s.f.~ ^ <.9 9 1.| <.6.Q 1.i.^ k.p.~ s , t K T #.K J K / ;.T <.f.$.J q ",
"r ^ [ y.y./ / 1.1.p.S , j y.{ &.#.s ` T $.P   h <.) F K $.1.<./ ^ <.9 q 1.1.$.6.J y.y.T i.p./ 2 t ^ <.I I F H N N T M L ~ P d   ",
"2 #.} | i./ $.<.} a.F , j <.| >.^ d { ) %./ o s ,.) P ^ &.T F &.T <.< q ,.| &.1.A i.1.K k.6./ 9 A k.m.a.f.s.n.i.3.z.$.i.f.z.;.r ",
"e Q } [ i.>.>.<.q.f.T $ r ,.1.$.^ j { $.$./ O t ,.T D #.;.S 7 &.P ) , 0 } | &.| M f.} T l.p.} r ; &.y.{ [ ! s.P ] 1.P p.1.l.%.* ",
"2 o./ ` i.<.<.~ 1.f.^ , 6 ,.| ^ ^ j | ) $./ o r <.P D $.4.A z $.U ) , 8 [ } 4.} A f.} ^ i.p.<.w 1 #.t.1./ F u.P } [ P s.| i.^ ; ",
"2 K / I z.4.5.I p.a.T , q [ | ^ ^ f ,./ $./ o < >.T D ^ =.T A #.T ^ , 8 ~ | 4.} ^ s.1.^ t.} / q , G <.y./ F u.$.3./ P p.[ ,.=.2 ",
"< K } I f.t.1.P y.p.K , 2 [ | T / J p./ %./ o < >.^ T ^ ;.>.[ ~ K ^ , 8 P } 4.,.&.| 1.^ &.[ ) q q G t.<.~ P <.! <.[ ) i.I <.r.< ",
"; Q | I f.5.i.P p.1.F , 6 [  .T ) K p./ #.R o 9 <.#.K ^ 2.s.5./ U ! = 8 P } u.,.;.' 1.^ ) { $.g < 7 i.} I / y.} / ) <.1.I / ;.= ",
"$ ^ | ~ s.p.i.s 1.y.F , r ` ) $.W p.t.^ } A o r <.&.P P i.1.5.T Q K = @ H 5.) ,.y.Z z.^ R ,.&.7 0 i ) 1.| <.<.~ $.) [ ,.! &.;.< ",
"$ ^ | I s.p.u.q y.t.U $ q [ ) =.W p.4.^ { S o r <./ T T i.| 1.P ( T & $ A 5.! ,.} / k./ ~ ,.#.6 , 6 ^ 1.} <.<./ $.^ [ } ~ &.-.> ",
", $.} T s.p.y.2 1.y.R $ r { ) / D q.<.^ | H O e 1.) T ^ 1.1.<.F ^ $.X , 7 2.! ,./ <.u./ _ <.$.6 $ 6 / } } <.<.} #./ / } ~ $.%.; ",
"0 #.[ U k.1.<.1 1.y.>.@ s ,.) ^ G | <.) | U 8 9 3./ T ^ <.t.) D Q %., @ 7 &.F ,.~ t.>./ R } #.7 , 6 ) } / <./ } T / <.[ / %.#.5 ",
"9 &.[ P v.1.} 6 y.t.i.$ s 6.( =.G ] &.^ q.^ 8 9 <.~ ^ ) <.t.! K F #.q # A T E / [ t.&.R R } ^ d $ 6 &.[ [ <.) y.F $.[ [ / $.%.6 ",
"s / R P v.| } J i.} i.X s 6.~ $.G ` / ^ | / 9 < ,.! #.$./ <.~ ^ F O.s . H ^ ^ R y.<.&.I / ,.#.t , i <.] [ 1.T y.F / ) [ / / #.7 ",
"s / ~ ! n.{ } -.s.) l.. g 1.! >...[ $.T [ ^ 0 < / ! ^ &./ } P &.S =.r . G =.Q R y.C ) P ` ,.%.t , 6 4.} } <.P i.S &.} [ / $.+.e ",
"d / ` ^ n.' | r.s.~ j.X g 6.Z 4.+.[ ) ^ ' ^ 8 ; ) Q #.&.~ | ! >.V %.q # v -.Q I t.4 ~ L [ 3.&.f @ s t./ } 1.Z y.D [ } [ ~ #.K 6 ",
"i >.I ^ b.>.Q x.2.) 8., q 3.E y.P &.^ / / P ; , H ^ ^ &.T 4.&.$.G 2.d # G ` / T &.P ) S <.$.$.A - s ;.P [ <.~ <.N &.<./ ~ #.K < ",
"6 / ^ ! b.$.F g.&.) i., g 2.! t.P <.~ / [ T < 8 T T H ^ S #.T U D >.t . u / ) T <.$.$.F &.R #.S - s u.^ [ <.I <.S &.,./ / #.X.< ",
"j $.P V i.T Q x.P V ,.= q ,.! <.! <.I / ,.^ < $ #.^ F T S ^ T U +.5.t . u I ( K ) >.4.P &.^ / T - d ;.$.[ } ~ ) S <.<./ / ^ K 2 ",
"1 #.^ Q l.G p P A N / $ s ,.( 1.^ <.^ / 1.) 6 , j.u.$.&.&.h.5.>.4.8.A O n ~ ! G ^ >.>.P ;.T ^ $.- s -.^ <.[ / ) F <.} ~ I #.H 1 ",
"1 U M 3 #.7 W ,.$.^ 2., g ,.~ <.~ <.^ ~ 5.#.6 $ $.T D ^ H &.T T -.5.7 O ..Y F J ^ &./ P &.^ T $., 2 +.T / [ ) / Q <.,./ / #.K < ",
"< O.^ F l.F w.3.#.( 2., g ,.) y./ $.~ P p.) e $ &.^ T $.^ $./ T Q ,.7 . G ~ E H ! / ^ U ^ ^ T #., > J T $.<.<./ P >.<.~ T #.X.< ",
"@.v.5.Q 8.A ;.,.H E O., s [ ] 1.^ / / P 5./ r $ #.T H ^ F T T U Q ,.3 $ h Y F H ^ ~ ) T ^ T U / 0 2 G ^ / / <.^ ^ &.<.I T $.K 2 ",
"- o./ F l.v -.I K ! >., g | } 1.P ) ~ P 5.^ 6 $ / T T ^ S T P T W / 3 . G Y P o.P T / $.F U ^ $., 2 W $.<.~ 4.^ ^ <.>.~ ~ #.X.6 ",
"6 K T F z.x #.J D &.^ 1 6 <.a.>.F / >.F &.T 5 $ ^ $.S #.K A ^ T ^ =.1 X v T J L P ~ #.$.S R T #.1 > F ) P &.) P J ) { ) T [ T 9 ",
"6 Q ^ P j.M #.H J ) T < e 1.g.4.! R R F ) $.< $ ^ / G T T M T P H -., @ v T K L T T / #.S #.T ^ 0 < Q / T &./ P J } [ ) ^ [ T 9 ",
"3 #.^ ^ $.N #.H A ) K = r 1.p.<.! $.$.B ^ &.5 + #.T D H #.7 #.H F =., X t T D Y ^ P T ^ U / T T 0 6 ^ &.P $.) P j } } $.T ~ T 9 ",
"d #.T T P A #.K G P F = 2 y.| &.! $.$.M F 5.t . #.K F A #.A $.T S #., X v o.D I ^ P ^ T S T U T , 6 ^ &.^ ^ ) P j } } ^ #.~ T q ",
"J #.K ^ T ^ %.S G P F X q 5.| / ! / %.A A 0.t + R U Q A #.A =.T D T 1 O v T D T ^ P ) U D P U T 1 6 #.$.P #.#.P d <.} ^ o.I H q ",
"D +.T &.4.4.o.G ..P F = r u.[ ^ Q T $.A M 0.6 $ T K ^ S T F ^ ^ D H < - v o.p ^ ^ F ^ F F H ^ ^ , 6 #.[ U #.#.P A } [ H X.I D r ",
"A Q F ^ k.;.K v +.F K , r k.' T E F &.D 4 j.e $ T K ^ K K D T ^ f H 2 O v #.p ^ ^ F ! S P H ^ T , 6 $./ F #.^ S D t./ G X.R F e ",
"A K F F t.T 7 A J F H , y i.` T D F $.J 7 5.6 $ T ^ #.H S H D T f G < = v T i ^ ^ S ^ S T ^ ^ U 1 7 #.$.D #.#.M A t./ G +.T F r "
};
