/* XPM */
static char *_b4b5b7af89d425afa19dafdfe819cc1zN26fIqUdXKtZDFV[] = {
/* columns rows colors chars-per-pixel */
"64 64 115 2 ",
"   c None",
".  c #0A0502",
"X  c #170C04",
"o  c #1B0D05",
"O  c #140E0B",
"+  c #1A0F08",
"@  c #1C1007",
"#  c #17100B",
"$  c #1B110B",
"%  c #210F04",
"&  c #241206",
"*  c #2C1506",
"=  c #25150A",
"-  c #2B1609",
";  c #26180F",
":  c #2C190C",
">  c #311706",
",  c #341907",
"<  c #3B1C07",
"1  c #341B0A",
"2  c #3B1D09",
"3  c #251A13",
"4  c #2D1D12",
"5  c #341F11",
"6  c #3D210D",
"7  c #2E221A",
"8  c #352216",
"9  c #3C2212",
"0  c #352419",
"q  c #3B2719",
"w  c #3D2F25",
"e  c #401F09",
"r  c #44220B",
"t  c #4B250C",
"y  c #4F280E",
"u  c #51270C",
"i  c #54290D",
"p  c #5B2D0D",
"a  c #442511",
"s  c #4A2711",
"d  c #462916",
"f  c #4C2A12",
"g  c #542C12",
"h  c #5A2E11",
"j  c #533216",
"k  c #5C3115",
"l  c #593816",
"z  c #5E3418",
"x  c #5D3A1B",
"c  c #612F0E",
"v  c #65310E",
"b  c #6A330F",
"n  c #633313",
"m  c #6D3511",
"M  c #633916",
"N  c #6D3815",
"B  c #633619",
"V  c #66391A",
"C  c #6B3A1A",
"Z  c #713711",
"A  c #743913",
"S  c #7A3D15",
"D  c #733E1B",
"F  c #7B3F18",
"G  c #6E411C",
"H  c #7E4117",
"J  c #75411D",
"K  c #7C421C",
"L  c #76481E",
"P  c #7B4A1F",
"I  c #754520",
"U  c #7D4520",
"Y  c #7F4C21",
"T  c #804117",
"R  c #84451B",
"E  c #89471C",
"W  c #85491C",
"Q  c #8B4A1E",
"!  c #904D1E",
"~  c #91511F",
"^  c #814721",
"/  c #854A21",
"(  c #8D4C22",
")  c #924E22",
"_  c #865123",
"`  c #8D5324",
"'  c #8E5824",
"]  c #955224",
"[  c #9A5426",
"{  c #945926",
"}  c #9C5A26",
"|  c #975528",
" . c #9D5628",
".. c #975A28",
"X. c #9E5A28",
"o. c #A15D27",
"O. c #A05729",
"+. c #A35B2A",
"@. c #A95E2B",
"#. c #9E6129",
"$. c #A16127",
"%. c #A6622B",
"&. c #AA642C",
"*. c #A6682B",
"=. c #AD6A2D",
"-. c #B2662E",
";. c #B26D2E",
":. c #B4712F",
">. c #B8722F",
",. c #B56E30",
"<. c #B96E30",
"1. c #B67130",
"2. c #BA7331",
"3. c #C17732",
"4. c #C07933",
/* pixels */
"      @ _ .._ ` ' ' P j   l ....[ ` ] U     l #.*.*.*.$.{ P 6 3 $ X a L K i 1 % h B     ;     f P { #.....' f : Y  .J 6 9 :     ",
"J ] 9 1 +.+.W H W ] @.C l *.o. . .| ] | ^   L ;.*.Q  .+. . .^ 4 d / %.;.*.A v c / +.5 O q j { =.=.=.*.$.$.%.$.I j i k L #.#.G = ",
"J 2.*.a F 1.E c R  ./ J &.O. . .O.) m [ J f %.;.Q v A R ]  .@.g g @.=.:.;.) S ( ) V a x ' %. .S Q  .] E S A S @.=.J k W E W ! 6 ",
"j W A t J -.*.$.=.+.C #.O.W R ] E Z b F k  .+.~ m m m b H =.@.[ k m [ ;.%.[ @.J 2 h | -.+.R c Z [ [ [ @.%.] Z b W T K t v Z t X ",
"r v t f  .O.%.%. .O.L R H b b m Z Z Z g ( [ A b m m m S  .1.=.@.K r T  . .[ ( i v ) +.[ [ [ F W  . . .%.1.1.%.W Z A  ./ r p u g ",
"= 1 * m A Q [  .[ W S r b Z Z m c n c 2 +.K A W H A m A *.1.;.%./ r A S W R y p S ) ]  . .O. . . . .Q W  .&.%. . .+.[ A 6 r b b ",
"f | r v Z m S W A m A r u m i i g s g s V [ ] O. .[ ] ] *.1.,.+. .g r c i r * v A R E ( R )  .] Q A m b A ] | | ] Q Z r @ r k 6 ",
"U <.^ r m m m b m m A p * h I | &.+.| +.k ^ O.[ [  . . . .[ ( ] O.D X t k g 1 Z Z W [ ) / A S Z m A ( R m m H S Z m t k W #.:.y ",
"U ;.~ V t A m Z m m S p 6 [ O.@.:.=.[ +.U h ] [  .] ( T S m Z S E e f @.:.%.i e r m H R  .A m Z (  . .H b b m A m 6 i S E [ >.` ",
"J ;.H Q B i A Z Z Z i $ J +.] %.:.;. . .` i m T F Z b b Z m u i r + e ] >. .b c i , > i S A m m ] X.H b A A v i 6 = i Z b b ~ ..",
"g +.( ] @.h u n p t g r D +.[ %.;.;.O. .O.n < p m A S Z e < n e = 5 t S ;.%.R R E R i u t c A m ] Q m Z v r z Y $.*.g n Z m Z A ",
"1 / O.+.2.+.V 5 ; ` S m J O.|  . .] ) ) ( S b > , t e & r ] 2.k V V R Z [ &. . .O.[ T S < e i p m n c t X x 2.~ $.2.' < m Z A 6 ",
", m (  .&.%.@.C f ;.W ] B [  . .R m m Z m i , n ] _ W ` =.;.] s ( h | ) ]  .[ [ Q S h r D ] L p 1 V W ( f _ O.m ( +.E 1 = c i & ",
"r Z m S ) ) ( ) k +.1.&.h n ) W m b m Z y r H >.;.%.%.%. .+.V J %.a R O. . .[ S b r r / ;.>.3. .V Q ] @.C F O.O.[ T m t j k 1   ",
"t A m b m Z m Q C U %.O.A 1 c Z Z A Z m 1 b R ]  . . .[ [ C z ,.2.s i R [  .R Z < r Z Q +.o.] Z V  .| O.C e R Q A m i C @.@.] a ",
"& i m m m m m A y h R S Z e % e i c n c X p Z m H Q T S i g %.2.,.^ t Z A S m 1 2 V n m A Z c e t S A A A i < Z A n y A S E ( V ",
"- V g Z m Z m A * i Z Z S e r p t < 6 e > 1 c m Z m Z i < A O.=.%.O.j p b n 1 V @.2.Q r p h k U s v m m m y = 2 i 1 b Z S W H N ",
"s ! r p A Z Z t & < b b i r E E T R E [ c = k y c Z p > Z m H [ ) Q F p t u t k f Y W , C ..:.2. .i Z v i J ] D V B y p Q O.[ p ",
"i S e * p u r e Z r * r i Q ;.;.=.=.;.&.k m &.{ k h r r g m Z Z Z m b b r Z A m v i r W :.>.1.=.&.J < k ] ;.,.,.;.-.] j y A c 1 ",
", < e i i p Z E ] t t A o.>.%.O.} o.) g v ~ 2.-.O.|  .@.D 1 v A Z Z A m , > c m b v b ] &.X.R S Z n k  .] (  .&.;.1.2.;.L y &   ",
"  < R [  .} [ O.( g m ) ;.%. .[  .J r u u C _ M V J k i g e 2 p p i u g V / g t t k i S ) F m m m v n H b Z A S R ] o.+.@./ &   ",
"  n ~ =.-. .]  .( g m S ( ( E Z r e m S v 6 # > u i i J Z Z v u i k g [ 2.,.W N ] I a ( S m Z m Z b u A m p p c v v Z S R S u   ",
"f ` >.:.;.R b S  .h p Z Z b r e i Q  .{ R f d t [ ;.;.1.] A R Q ) +.k U %.O.) [ +.( 2 / [ A m m Z v r t r h D r , r , r r t B   ",
"[ ;.:.1.o.b Z b ( / * t t 3 : W &.>.=.@.n V  .i ] 1.:.:.+. .@.%.+.@.I 2 R R  .| ) N a X.&.( F Z Z p < k W  .-.U i b n p i ] [   ",
"C %.,.,.( m m m A  .f r i h r ] ;.=.@.K r T ] i T @.=.:.%.=.:.:.2.;.X.a n Z R S c * J ,.;.@. .] ] V F O.&.=.;.| g W m H %.;.&.g ",
"@ A [ [ A m m m m [ S i S S u f -.&.( r b A  .k p ) +.%.+.,.,.:.1.=.+.g t S b u k s E ,.;.+. .[ Q t ( ,.:.1.,.C D &.+.%.2.;.] 9 ",
"  u A Z m m m m S O.( s S ] E r g V 6 1 m m [ U r A ( ) Q E Q {  . . .a = i r D ] c A ) ) ( Q S < 2 ) %.*.@.R k O.%.=.,.%.] f   ",
"a o n Z m Z m m T [ D e H %.@.R , % E g v m ) @.g p Z m m b b m Z A ( f O V %.;.[ n b b m Z p , ; r T ) S A 2 i T ]  .] R A r   ",
"( V 2 m m m m Z Z c , i Q >.&.[ u / 3.P t A R ( H , v Z m m m Z m b Z n 6 @.:.%.[ h p A Z r + 5 U i Z m i h a r m A S A m m r   ",
"( @.( t c A Z Z y < n ] ;.:.&.C Y 2.>. .* p Z m m c < b A m Z m Z m Z p ^ +.O. .E u r b e k d C  .h p i D ` +.K t A Z m p g V 2 ",
"V [ ) ) e i p < t S [ %.;.&.C V ;.;.&. .9 1 c Z Z n & # u m m b m m Z p D ) W R A c r 1 s +.V [ +.f k | =.;.,. .5 2 i t C ] @.U ",
"a J b S g . 1 b A Z S T [ R C @.=.*.( ( 9 : - r t i J d # > t t r e 2 o p m m m b A p g  .&.k T E f ] &.:.;.=.] 5 f C | ,.O.O.V ",
"  i S p e i p i v Z b b A t R O.[ F m A e c m h N ) +.O.k z S c v v b r r b Z m A i a @.;.,.B b v n O. .+.O.+.C U 2.2.2.=.@.U   ",
"  o r r n A b h i p b Z A r n R S Z m e n Z A ) O.=.&.%.` k ) W T S S ( J g v Z p * U 2.:.%.V i i n Q W T T m k &.,.;.%.Q N t 1 ",
"  1 c A ! ) H A b p t i c > r b p u 2 N R b A [ &.,.,.=.O.C / ,.&. .|  .+.| 6 r D U t [ &.;. .a 2 m m m b Z t / %.&. .A r t W W ",
"r Z Q %.;.&. .] W H Z u k L p t g $ e ) ) b A ) =.1.1.&.O.^ ] ,.1.&.( A ( +.g / ,.K u T +.:.:.( 2 p Z m A n r E ) ( m r n ] 1.%.",
"S  .=.:.1.&. . . .O./ C %.>.%.[ @.f g [ ) m m )  .+.=.%.O.U F [ %.O.A m m S C  .[ B b ( +.=.:.>. .k h n c < u Z m p e b [ O.;. .",
"u R :.;.,.&.( ( O.] h ( :.:.O.] O.D u [ ( m m E +.[ X. .O.D y S ( S m m A p D F m i m A Q ] @.%.=.@.( s V K C y 1 : c S ) ]  .[ ",
"  * ( %.+.] m A T r i A ] ] S A  .] g t A Z m m R ) R ( @.D o p A Z Z Z t r W m A 2 p Z m m A T Q [ ^ V ;.,.O.) D 5 t A Z A R ` ",
"  , u Q ) A A v 2 + y A b b b S  . .O.h e m m A Z A Z m D g p < y c p 5 O u S Z i = < Z Z m b b m Z i ` [ R ( ) R y 1 p i p A n ",
"> m g p b p u g = i t i A Z A A T S A h = e e t t u t r u v Z m u i * 3 V t t r 1 f N 2 p Z Z Z m c u W A b v u g J { ..] D i r ",
", S ( C k V { ;.k p W k r c v p g < < e c m ( k * p c b Z m m m Z A < C @.H n A Q C [ m r t i u r < < c c h k U =.2.2.;. . .k   ",
"  c S O.%.:.>.>.` p A  .( k g r t e A Z A ] <.g v S b m Z Z A W Z m t ( O.&.%.o.+.z ( ] A v n m m Z y y n S ) [ ] ] Q H A S m   ",
"  2 Z S %.;.;.:...h H ;.>.@. .] m g Z A ) &.2.V r A T ]  .O.*.,.( A h A } ;.=.[  .z %.&.) E ] +.O./ i c n A Z Z Z Z Z b b t 1   ",
"3 3 p Z S [ | Q g i [ ;.,.+.)  .^ t A [ %. .,.+.s v ) ;.;.1.,.,.%.] n b A Q ) [ ( I 2.&.| O.&.:.&./ a V r y p i h i t y g C C   ",
"w 8 , Z m A S r % A S ] ( R A S / t S [ =.+.| O.^ r ) @.&.;.%.+.O.| h b m m Z Z g *.>.%. .+.;.;.@.D t O.] F n n , r h m R Q ( a ",
"3 8 u r m Z p u k p b b m m b c 2 e W  .+.+.] A ] U C V g h ^ ) [ m * m A A b r V ;.=. .Q ] @.*.+.V p A ( O.@.( j N k i t u 6 $ ",
"o p Q ] n p g *.<.n c S m p i t = t W  .] S S m Z [ s t m n r e r 1 5 1 2 2 r e A ]  .S b (  .] A 5 r b m W | k / ;.=.&.( f 0 0 ",
"< v Q 2. .f C 2.2. .6 < g L Q Q N 2 m S T m m m b T g J @.) m s ^ X.+.F p n S g v S S b m S T i o 4 1 2 u i 2 s [ @.2.,.+.( q 4 ",
"  v m W ,.+.B _ =.@.a 9 ] O.O.O.+.L y b m m m Z m i k *.%. .h e ] =.X. . . .O.U t Z b b Z n r h ^  . .R m m n t W ]  . .] [ k   ",
"  < b m R O.( D ( b k  . . .;.;.+.O.^ h A Z A v i D ;.:.+.U B n t N )  . . .*.O.n p A A c h ( @.2.>.>.=.| [ +.k p A A T A i 2   ",
"f ..i v D X./ D ] A n ]  .%.:.:.:.&.O.k r p 2 = p ] o.@.K B ( A A f v Q [ O.1.=.@.f r t $ n [  .*.=.=.&. . .O.) t c m p t i i   ",
"k Q n p R O.h S +.+.^ n ) ] @.;.,.+. .g e s 9 + m m A S i J T m m R g v Q O.,.1.&.V 3 : u e Z T )  . . . . .[ +.C e t y v R /   ",
"t Z y v E ( r S T Q J = t A H Q ) [ H f T E +.V i Z m Z m F H m m Z J i Z ( %.&. .g 9 N Q i t A m A Q ) T A ) [ h g A R W @.]   ",
"* v * p c r 1 h c m t D B i Z Z m S u N O.[ O.-.z r b Z p D ) m m m ( k c S E A p 2 ( @.,.( e y A b m b m m Z m < F  . .+.=.] 6 ",
"  > t n F _ ] ( R s f Q Q 6 < v A m < R [ ) O.+.z C n k s i ] ] R S R i < t e < e p S ` *.O.K & i Z A Z m Z m 1 h | %.=.,.=.( * ",
", n S O.,.%.A m [ U g A m I U f i 1 : | W m O./ D ,.O.[ ` i A R H A p i v i p m ( k v H  .O.U B V t y p Z m r n [ &.1.1.=.@.V t ",
"v Z H +.O.) W H ( O.h c n =.2.O.J d : ) E Z O.D U ,.[ W O.n i Z m m i ( A m R &. .i b H Q T y ( &.#.J r 1 * V O.O.=.1.,.%.B r Z ",
"v m A ] | O.;.1.=.@.J e k +.&.%.O.@.C D [ A  .V D ( m m F ( t h p 2 N @.( T *.>.( t Z b m i 2 A H ( [ [ J 8 r H ]  .+.-.[ r b p ",
"t Z m m S ] %.;.;.&.J e A R |  .[ ) W B ) m R g h Z m m m S D < 6 , S ( ]  .;.2.J u A Z m < v Z m m m S Q C 1 b A S H W R t i 1 ",
"  i Z m m m A ] ] F 1 t p m S W F A r < T Z Z < < Z Z m m Z t p A e v m m A R R C u Z A r r S m m m Z m b E k b m m b b Z v *   ",
"    1 b Z m Z S y < n Z i e m m m c     p A b &   1 m Z Z p n ] T y c Z Z b m b Z i i n & > i Z Z Z Z Z Z p 1 i A Z Z m b A e   ",
"      r Z m Z u   g F H h   < m m >     * 2 1       > m p 1 i R A , p m i m m Z m <   <       2 r i i t 2 %   X t v m m m Z i   ",
"                                                                                                                                "
};
