/* XPM */
static char *player_removebg_preview1673709342[] = {
/* columns rows colors chars-per-pixel */
"64 64 207 2 ",
"   c None",
".  c #271D14",
"X  c #281E15",
"o  c #2B2017",
"O  c #2E2319",
"+  c #32261C",
"@  c #35281D",
"#  c #372B21",
"$  c #3A2D22",
"%  c #3E3127",
"&  c #4F3117",
"*  c #46382E",
"=  c #45372B",
"-  c #4D3E32",
";  c #463A30",
":  c #543822",
">  c #5C422B",
",  c #4F4338",
"<  c #57483C",
"1  c #6F4C2E",
"2  c #7E5027",
"3  c #6D533D",
"4  c #7D5632",
"5  c #4D4D4D",
"6  c #594B40",
"7  c #545453",
"8  c #5E5853",
"9  c #5D5C5C",
"0  c #585755",
"q  c #645347",
"w  c #67594C",
"e  c #6F5F53",
"r  c #6D635B",
"t  c #66625F",
"y  c #716255",
"u  c #73665C",
"i  c #7C6B5C",
"p  c #796453",
"a  c #656464",
"s  c #6B6B6B",
"d  c #696663",
"f  c #756B64",
"g  c #7C6E61",
"h  c #736E6A",
"j  c #7A7169",
"k  c #6F6F70",
"l  c #747373",
"z  c #7F7771",
"x  c #7B7B7B",
"c  c #7E7873",
"v  c #925E2E",
"b  c #895B31",
"n  c #865426",
"m  c #9A622E",
"M  c #976537",
"N  c #9D6530",
"B  c #97683C",
"V  c #AA6C32",
"C  c #A36832",
"Z  c #AF7135",
"A  c #B67638",
"S  c #B6763A",
"D  c #9E7249",
"F  c #97704D",
"G  c #806955",
"H  c #AC7948",
"J  c #B67D47",
"K  c #A17A57",
"L  c #817266",
"P  c #83766A",
"I  c #85796D",
"U  c #8B7B6C",
"Y  c #8B7767",
"T  c #9C7F64",
"R  c #867B71",
"E  c #8A7D72",
"W  c #817F7E",
"Q  c #927F70",
"!  c #BB8857",
"~  c #8D8176",
"^  c #8D847A",
"/  c #948375",
"(  c #998676",
")  c #92867A",
"_  c #94897F",
"`  c #9B8B7D",
"'  c #998778",
"]  c #A68567",
"[  c #BE8E60",
"{  c #A18D7D",
"}  c #B5997F",
"|  c #838383",
" . c #8C8C8C",
".. c #898788",
"X. c #958B82",
"o. c #9B8E83",
"O. c #9D9186",
"+. c #94918E",
"@. c #9C938A",
"#. c #949494",
"$. c #9C9B9B",
"%. c #989798",
"&. c #A39284",
"*. c #A99584",
"=. c #A3968C",
"-. c #A5998E",
";. c #AC9A8B",
":. c #AE9887",
">. c #B29D8D",
",. c #B89E87",
"<. c #A59B93",
"1. c #AA9E94",
"2. c #A09791",
"3. c #BBA28C",
"4. c #AEA196",
"5. c #ADA39A",
"6. c #A4A09D",
"7. c #B5A292",
"8. c #BAA595",
"9. c #B2A59B",
"0. c #BDA999",
"q. c #B9A89A",
"w. c #9FA0A0",
"e. c #A4A3A4",
"r. c #AEA9A4",
"t. c #ABABAB",
"y. c #A7A8A8",
"u. c #B4ABA3",
"i. c #BCAEA4",
"p. c #B6AFAA",
"a. c #B0A7A1",
"s. c #BCB0A7",
"d. c #BBB2AC",
"f. c #B7B1AB",
"g. c #B4B4B4",
"h. c #BBB6B1",
"j. c #BFB9B4",
"k. c #BCBBBC",
"l. c #C2AD9C",
"z. c #C4B09F",
"x. c #CFA984",
"c. c #C0AFA2",
"v. c #C4B1A3",
"b. c #CBB5A3",
"n. c #CFB8A7",
"m. c #C3B6AB",
"M. c #CDBAAB",
"N. c #C4B8AF",
"B. c #D3BDAB",
"V. c #D7BCA8",
"C. c #C3BAB3",
"Z. c #C9BDB3",
"A. c #C2BDB9",
"S. c #D2BFB1",
"D. c #DFC3AF",
"F. c #C6C1BD",
"G. c #CCC2BB",
"H. c #CFC0B4",
"J. c #DCC4B2",
"K. c #D1C5BC",
"L. c #D5C8BE",
"P. c #DDCABC",
"I. c #D6C4B7",
"U. c #E0C7B4",
"Y. c #E1C9B7",
"T. c #E3CBB9",
"R. c #C4C4C4",
"E. c #CAC6C3",
"W. c #CCCCCC",
"Q. c #CDC8C3",
"!. c #D3CAC3",
"~. c #DACDC4",
"^. c #D1CDCA",
"/. c #D9CFC8",
"(. c #DDD0C7",
"). c #D3D0CE",
"_. c #DCD3CC",
"`. c #D5D4D4",
"'. c #DBD6D2",
"]. c #DBDBDB",
"[. c #DEDAD6",
"{. c #E1CEC0",
"}. c #E5D2C3",
"|. c #E9D4C5",
" X c #E4D5CB",
".X c #E9D7C9",
"XX c #EAD9CD",
"oX c #E6D8CD",
"OX c #E4DAD4",
"+X c #ECDDD2",
"@X c #E6DFD9",
"#X c #EEE0D6",
"$X c #EDE2DA",
"%X c #E1E0DF",
"&X c #F1E5DC",
"*X c #E3E2E2",
"=X c #EEE7E2",
"-X c #EFE9E5",
";X c #F1E7E0",
":X c #F4EAE4",
">X c #F8EEE7",
",X c #F5EEE9",
"<X c #F8EFE9",
"1X c #F7F1ED",
"2X c #F8F1ED",
"3X c #FAF5F1",
"4X c #F9F6F4",
/* pixels */
"                                                                                                                                ",
"                                                                                                                                ",
"                                                                                                                                ",
"                                              =.~ U R / ) ) ) R R ~ <.                                                          ",
"                                          P U >.Z./.OX$X&X;X=X$XOXF.4.E E                                                       ",
"                                        ( v.J.#X&X&X;X;X;X:X:X>X,X1X1X=XA.~ ^                                                   ",
"                                      l.T.T.T.+X&X&X&X&X;X:X:X:X:X:X<X2X4X-X5.P                                                 ",
"                                    B.T.Y.T.T.+X&X&X&X&X;X;X;X>X>X@X@X2X1X2X4XC.P                                               ",
"                                  n.T.T.Y.T.T.XX#X&X&X&X&X:X;X:X:X=XG.$X2X2X3X4Xd.I                                             ",
"                                l.T.Y.T.T.Y.T.|.#X#X&X&X&X;X;X:X:X,X@XG.,X1X1X3X4XX.                                            ",
"                              / U.T.U.T.Y.Y.T.T.#X#X&X&X&X;X;X:X:X:X:X$X:X,X2X4X4XG.P                                           ",
"                            P l.T.T.T.T.T.T.Y.T.|.#X&X&X&X&X;X:X-X:X:X,X,X<X2X2X4XA.~                                           ",
"                            U J.U.T.T.T.T.V.T.T.T.|.&X&X&X&X:X&X:X:X:X,X1X,X2X2X:Xd.p.X.                        #.9 5 5         ",
"                          @.*.T.T.T.T.U.b.{ *.:.:.{ ' &.m.OX;X:X;X:X:X:X:X1X2X'.a.5.^.E                     | 0 5 l #.5 x       ",
"                          E l.T.T.Y.T.Y.V.J.n.>.q # + + * e 7.OX:X:X:X,X1X(.X.6 $ * a.E                   %.7 l y.].W.s 7       ",
"                          I B.T.Y.T.T.T.T.T.T.&.$ . X X X X % y 4. X:X:X$Xu o . X . P )                   s %.`.%X*Xk. .5  .    ",
"                        E.U P.T.T.T.T.Y.T.Y.J.i + . X X X X . X $ y _.>X(.; . X . . f X.h.                a W.].%X`.g.t.9 9     ",
"                        A.E }.T.T.T.Y.T.T.T.n.< X X X X X X X . X $ 9.<XF.$ . X X . f O.p.              ..s R.].*Xk.g.g.l s     ",
"                        j.~ .X}.T.P.T.Y.T.T.>.= . X X X X X X X X + &.:XC.# . X X . d O.p.              s e.].*X].g.g.t.a y.    ",
"                        C./ oX.X}.T.T.T.T.U./ + . X X X X X X X X @ 1.>XC.$ . X . . u o.f.              s W.].*XR.g.g...s       ",
"                        F.E XXXX}.T.T.T.T.T.Y + . . X X X X X X X = m.>XG.% . . . . f _ j.            | #.].].].g.g.t.a         ",
"                        ).I  X#X.X|.T.T.U.T.{ - + X . X X X X X X q  X:X X, . . X + _ ) E.            a g.].*XW.g.g.#.a         ",
"                          U K.#X+X.X}.T.T.T.T.8.u * + o X . X . # ` &X$Xs.R - - q X._.E ).          e.l R.].%Xk.g.t.s $.        ",
"                          @.9.&X#XXX|.Y.U.T.T.XX}.i.Q q - $ + # e ~.:XZ.< 9.!.L.OX2X[.R ].          x w.].%X`.g.g.%.a           ",
"                          A.E OX$X+XXXT.D.T.T.}.XX+X+X~.m.1.&.:.L.&X;XR X e =X,X>X2XF._             a R.].*Xk.g.g.s %.          ",
"                            _ 4.&X+X+X.XT.T.T.J.|.XXXX+X+X&X#X#X&X&XS.* . # d.,X:X4X5.<.          %.| `.].].g.g.%.a             ",
"                            ^.I Z.!.#X.XT.}.T.Y.T.|.XX+X+X+X+X#X#X&Xo.X X X ) :X:X4XX.d.          l t.].*XR.g.g.l #.            ",
"                              a.L G.&X.XY.|.T.U.Y.T.T..X+X+X+X#X#X&Xq.$ X = i.>X:X,X^ ^.          k W.].].k.g.$.a               ",
"                                E N.:X#X+X.X}.V.J.Y.T.T..XoXZ.XX+X#X+XX.y 1.&X;XOX_.~ `.         .+.].].W.g.g.x  .              ",
"                                d.o.=X$X#X+X.X}.T.T.Y.D.T.T.:.J.}.+X#X&X+X;X;X,X@.P )           l g.`.%Xk.g.e.a                 ",
"                                  X.G.>X&X#X+X}.Y.T.T.Y.T.B.U n.T.|.#X#X&X&X+X-X<.E.            x W.].`.g.g.x ..                ",
"                                  j.z 6.u.G.(.T.U.T.T.n.>.o./ ` U.}.+X~.&X&X!.@X<.].          ..$.`.%XR.g.y.a                   ",
"                                    l l  .x h $.H.q.&.O.~ $X).i l.T.}.m.&X;XZ.N.~             l F.].`.g.g.| |                   ",
"                                    k.l j.g...0 ^ A.`.).O.#XG._ -.>.l.o.9.-.I g _     Z.    e.| `.].W.g.y.a                     ",
"                                | %.$.l x y.$.k | %X%XF.` T.7.@.).E e g X.%.u.E.    } v K 3.R y.].].g.g...|                     ",
"                                  | t.k. .w.$. .0 _ @.) ` v./ ) @.P P o.u.-X        D Z V m b T d.W.g.t.s                       ",
"                                  l ..%.%.#.#.l a '.-X$Xq.=.'.=X=X[.9.[.p.<.      Q v V A J [ H M F { ^ ^                       ",
"                                |  .| | #...^ 7 -.}.}.}.M.;.|.}.}.|.v.'.1Xi.o.    c G 4 v V ! x.x.H m b T                       ",
"                              l | g.g.| a s 8 8 / ( / ( I L / / ( ( Y H.+XXX1.o.  s W I Y 4 n m J J A Z N M ]                   ",
"                                 .0 d x  .9 0 j 5.5.6.9.@.~ 9.4.1.a.) U n.T.b.y d l j     y 3 1 2 v C Z S V D                   ",
"                                C.1.u.u 9 7 +.-.&X:X:X>XL.9.>X;X:X>XC.=.O.n.*.f | y.=.  9.    d.U :.] B m m 3.                  ",
"                                <.i.H.~ h |   X.7.D.J.n.' P z.J.J.v.'     o.h x W R n.n._ v.    H.s.    ,.K                     ",
"                                @._.,Xp.      ) f i i i g g i i i g ^       e.l s u >.&.C.C.9.&.`                               ",
"                                =.$X1Xp.      o.'.4.X.G.^.j.Q._ <.'.j.        %.9 t w R G.+X#XM.-.                              ",
"                                @.P.XX8.      X.OX&X$X&Xm.1.&X$X&X$Xp.          s l R F.u.o.*.>.5.                              ",
"                                =.B.T.7.u.    <.;.T.T.J.Y L B.T.T.8.u.          %.h @.$X&X!.~ 4.                                ",
"                                <.0.Y.7.u E     _ *.7.' y _ o.>.:.'               ..r p >.I.0.                                  ",
"                              u.X./ 8.E a.@.) u.h.E i.Q.I =.!.O.I               ..x r & 1 p _                                   ",
"                              )   a.  o.    ;.l.) 4.:X X) <.    u.                    > :                                       ",
"                              O.  i.  O.~.}./ o.^ 0.}.l.@.C.v.|.l.                                                              ",
"                              / B.;.T.:.7.T.&.p.~ { b.` p.  ^ 1.=.+.                                                            ",
"                              o.8.*.b.8.I 3./ ) I 9.G.I     s x | x                                                             ",
"                                <.=.4.a.  d.h.O.!.m.;.<.    s l ..W                                                             ",
"                                              -.-X-X<.        C.!.                                                              ",
"                                              -.|.}._       <.B.}.7.                                                            ",
"                                            @.l.T.l.^       @.0.J.&.                                                            ",
"                                            I 8.b.U         X.u.m.-.                                                            ",
"                                          1.'.!.u.^         s.+XZ.Z.  9.o.                                                      ",
"                                          -.P.i.G.!.7.        :.                                                                ",
"                                            @.X.<.4.9.                                                                          ",
"                                                                                                                                ",
"                                                                                                                                ",
"                                                                                                                                ",
"                                                                                                                                "
};
