/* XPM */
static char *door_resized_64x641674290426[] = {
/* columns rows colors chars-per-pixel */
"64 64 228 2 ",
"   c None",
".  c #16161E",
"X  c #3F1B0B",
"o  c #1A1B24",
"O  c #1E1E29",
"+  c #171922",
"@  c #1F2028",
"#  c #22232C",
"$  c #212027",
"%  c #2A2B35",
"&  c #2D2D39",
"*  c #272932",
"=  c #32333D",
"-  c #34383E",
";  c #392E32",
":  c #201F2A",
">  c #441E0E",
",  c #4C2413",
"<  c #532614",
"1  c #5B2C19",
"2  c #582A18",
"3  c #572D18",
"4  c #652E1B",
"5  c #6A2E1A",
"6  c #692E15",
"7  c #63311A",
"8  c #6B331C",
"9  c #69351B",
"0  c #72341A",
"q  c #4A3739",
"w  c #543B3B",
"e  c #573B39",
"r  c #51332B",
"t  c #633222",
"y  c #6B3B22",
"u  c #6A3826",
"i  c #743C24",
"p  c #673F31",
"a  c #5A403E",
"s  c #7B462A",
"d  c #784428",
"f  c #6B4538",
"g  c #764937",
"h  c #7E523D",
"j  c #363642",
"k  c #3A3B44",
"l  c #3D3D4B",
"z  c #373943",
"x  c #443C44",
"c  c #4C3E44",
"v  c #443E49",
"b  c #503E43",
"n  c #3E424B",
"m  c #43424D",
"M  c #4B4349",
"N  c #534245",
"B  c #534349",
"V  c #5C494B",
"C  c #5B4647",
"Z  c #444453",
"A  c #4A4653",
"S  c #4B4955",
"D  c #4C4B5B",
"F  c #474757",
"G  c #524D5D",
"H  c #574A54",
"J  c #4D5258",
"K  c #52535D",
"L  c #59555C",
"P  c #634A4D",
"I  c #654946",
"U  c #6B514A",
"Y  c #7C5345",
"T  c #79564A",
"R  c #654E53",
"E  c #695659",
"W  c #725B5D",
"Q  c #765A54",
"!  c #714D46",
"~  c #7C625B",
"^  c #4C4D61",
"/  c #514F61",
"(  c #545364",
")  c #5B5564",
"_  c #55556A",
"`  c #59576A",
"'  c #5B5A6C",
"]  c #575968",
"[  c #5D5D72",
"{  c #595A73",
"}  c #4F5063",
"|  c #645A64",
" . c #6B5B62",
".. c #655A67",
"X. c #725D62",
"o. c #615F74",
"O. c #5C646A",
"+. c #5B6467",
"@. c #5D6073",
"#. c #6C626C",
"$. c #64656D",
"%. c #766467",
"&. c #626174",
"*. c #6A6374",
"=. c #646C72",
"-. c #63647A",
";. c #6A6A7A",
":. c #736974",
">. c #6A7579",
",. c #75777D",
"<. c #844C2D",
"1. c #864A2A",
"2. c #8C512E",
"3. c #94522D",
"4. c #874E31",
"5. c #8C5333",
"6. c #89543A",
"7. c #935534",
"8. c #9C5632",
"9. c #9C5A36",
"0. c #945A3C",
"q. c #9C5D3A",
"w. c #935737",
"e. c #904E2D",
"r. c #A15A37",
"t. c #A35D39",
"y. c #9D603D",
"u. c #A4633C",
"i. c #AB663D",
"p. c #AA663A",
"a. c #B46B3D",
"s. c #B56B3D",
"d. c #B9703F",
"f. c #835543",
"g. c #8C5B44",
"h. c #865B48",
"j. c #945E44",
"k. c #835E54",
"l. c #8E614C",
"z. c #996347",
"x. c #886457",
"c. c #976A54",
"v. c #9C725D",
"b. c #A46542",
"n. c #AA6641",
"m. c #AC6942",
"M. c #A76A49",
"N. c #B46D43",
"B. c #B96F43",
"V. c #B16F4B",
"C. c #B67044",
"Z. c #BB7145",
"A. c #B4724B",
"S. c #BC744A",
"D. c #BD784C",
"F. c #B47654",
"G. c #A87154",
"H. c #856B6A",
"J. c #907873",
"K. c #A57763",
"L. c #C1764B",
"P. c #C3794E",
"I. c #C07447",
"U. c #C57B51",
"Y. c #C87C50",
"T. c #BD825B",
"R. c #9C847A",
"E. c #B1866F",
"W. c #C7906E",
"Q. c #C88056",
"!. c #6A6C81",
"~. c #727C81",
"^. c #787688",
"/. c #74758E",
"(. c #887882",
"). c #748184",
"_. c #798386",
"`. c #7D898C",
"'. c #79868B",
"]. c #7C8C91",
"[. c #7F9296",
"{. c #828A8D",
"}. c #838E92",
"|. c #888694",
" X c #849195",
".X c #85959A",
"XX c #8B959A",
"oX c #8B9A9E",
"OX c #889599",
"+X c #929C9E",
"@X c #998889",
"#X c #8D9DA2",
"$X c #8F94A0",
"%X c #929EA2",
"&X c #9290A0",
"*X c #8486A5",
"=X c #8FA0A3",
"-X c #93A1A5",
";X c #95A5AA",
":X c #9AA6AB",
">X c #9CAAAD",
",X c #98A5A8",
"<X c #9DACB2",
"1X c #9FB0B4",
"2X c #A1ABAE",
"3X c #A0A7AD",
"4X c #A2AEB3",
"5X c #A3B1B5",
"6X c #A5B4B9",
"7X c #A9B6BB",
"8X c #A6B8BC",
"9X c #ABBABE",
"0X c #AAB3B6",
"qX c #B1B9BD",
"wX c #AEBCC1",
"eX c #B1BEC3",
"rX c #B3C1C5",
"tX c #B6C4C9",
"yX c #BBC6CB",
"uX c #BCC9CD",
"iX c #BAC3C6",
"pX c #BAC8CD",
"aX c #C2CBCE",
"sX c #C3CED4",
"dX c #C5D1D6",
"fX c #C9D6DB",
"gX c #D1DCDE",
"hX c #D0DEE1",
/* pixels */
"                                                      _.}.5X7X4X<X7X0X3X3X                                                      ",
"                                                3X2X4X>X*X>XdXsXyXsXdXsXeX%X_.%X                                                ",
"                                               X5X>X:X-XwX:XwXeXeXdXfXfX4X%X7XeX,X                                              ",
"                                        7XiX,X X4X>X=XoXwXeX4X:X%X4X6XwXwXeXwXiX+XOX8X5X>X                                      ",
"                                  OX X4XdXfXyX_.>X6X<X;X5XrXeX4X:X5X5X0XwX7XeXaX`.1XwX9X8X5X>X                                  ",
"                                5X8X:X#X;X>X,X~.#XwX6X6X6X6X%X>.=. X2X9XeXyXdX7X X9X8X8X6X8X6X>X                                ",
"                            2X+. X=X-X1X<X1X6X>X|.8X1XOX=.n # o o @ k =.XX9XeX&X,X9X1X;X-X:X2XOXK +X                            ",
"                        2X0X9X+XK =X#X.XoX;X8X6X( J k @ + @ * j = & # . O j K G 2X8X;XoX[.=X>X+.}.uXaX0X                        ",
"                      3XeXeX9XqX}.`.:X.X#X<X-XO.+ . : & l D K ( L K D v & : + + G %X6X;X#X1X X_.aXgXgX2X2X                      ",
"                    :X7X9X4X<X7X4X].;X>X-X>.= o # k ( ..C S F ^ / S F H q S l % + % =.:X6X>X).>XiXaXdXqXiXaX                    ",
"                  >X9X4X5X=X#X;X<X:X}._.n o * n ) | c.6.t Z D ) ( D F w < g E / Z % O z ).{. X>X2X=X0XdXrXrX                    ",
"                  4X4X:X1X1X#X X#X;XO.o # l ) %.l.4.N.7.t v ^ ) / ^ F C , 1.1.f.~ K n * . J 6XdXpX X4XyXaXrXrX                  ",
"                {. XXX;X<XwXwX<XXXO.* = S ' Q m.0.I z.3.t / -.( G ' _ b < 1.4.4.u.Y W F = @ K :X].=X#X;XeXiXiX+X                ",
"                =._.:XwXwX6XwX>XO.# j ' %.f.3.s.Q /.c.3.u / _ ( / ` } f < 1.T *.h.2.m.~ K z $ n ).>X=X=X4X>X>.J                 ",
"              qX4X_.O.#X1XwX;X] @ k L E V.u.i.C.l.H.z.q.t ^ _ ` / { _ C < i k.|.h.3.d.C.l.H n @ S =X>X1X-XO.).0XiX              ",
"            qXrXeX9X#X=. X%XJ O k +.Q y p.C.S.S.N.4.S.q.t / _ { / [ _ I 2 <.V.M.u.w.C.C.u.f J l @ n oX X=.>.oX1X1X X            ",
"          4XrX8XwXwXwX<X>.= o j ) x.y.9 a.Z.D.P.N.w.U.9.t S _ _ / { } I 2 1.S.P.m.q.S.S.t.d l.L n . % +.;X<XoX).].1X4X          ",
"          5X8X4XwXwXwXwX_.+ & K Q a.y.9 i.S.D.Q.F.w.S.8.t G !.' / o.[ I 1 1.S.P.m.y.S.S.m.d a.j.S = . >.1X>X1X6X1XwX6X          ",
"        >X8X8X8X1X6X8X6XD # F H b.d.u.d m.D.D.U.A.w.P.q.5 / o.{ G o.` P 1 <.L.P.m.y.S.U.N.d N.i.T m * n :X;X.XoX;X1XwX;X        ",
"        <X5X6X5X;XoX;X X% k L g i.C.u.9 N.D.D.U.V.0.U.r.t / o.o.D o.[ P 1 5.L.P.n.u.S.U.b.d S.N.u.N n # '.<X#X#X#X<X<X<X        ",
"        :X5X1X$X].].=X+.* S Q 4.p.d.y.9 A.U.S.U.V.5.Y.t.5 G { ' D o.` P 2 5.U.P.b.b.Q.D.t.s S.S.p.f S * J >X;X;X#X:X5X:X        ",
"        >X7X1X[.].oXoX- z J z.2.0.f.f t S.U.L.U.m.5.U.n.u S -.' S o.' P 2 5.U.U.m.m.A.P.t.t q.n.p.y U - % oX4X;X;X7X9X2X        ",
"        #X1X%X$X#X;X,.* F V u.6.| ) ) R V.P.P.Y.b.6.U.t.u ) @.{ S o.{ P 2 7.U.U.V.m.V.D.0.b H E l.s 0.S * =.5X>X<X<X8X5X        ",
"        =X1X;X=X:X>XA & J g 0..._ U #.' M.P.P.Y.b.5.U.t.5 / [ ' A o.' P 2 w.U.Q.b.m.b.D.Q ' ..) L f m.V % n ,X5X<X1X8X6X        ",
"        #XoX=X-X,X_.; n L 5.x.) Y M.x.L V.P.U.Y.q.5.P.t.5 / { { A o.{ P < q.U.U.n.n.b.S.Q ..j.T L E i.T z : >.,X;X-X%X,X        ",
"        oX.X{.=.~.m @ n T z...C t.A.c.f S.P.P.Y.w.5.Y.r.5 A { ` v o._ V 2 j.U.U.i.i.u.L.z.U V.N.Y *.z.z.M o = ~.`.{.}.XX        ",
"        rXuXuX=X:X=.. n E Q ' E x.l.j.I x.l.l.c.Q g.L.r.4 H -.' A o.-.V 2 q.U.F.j.j.j.V.j.g V.n.z.) H.f.v : ] 9XeXeX9X0X        ",
"        rXfXhXpX5X=.o n [ ] !.!.;.-.-.-.-.[ { { &.:.c.r.5 J [ ' c o.{ P , w.c.:...........o.#.:.:.&.' ( Z o ' eXyXrX7X5X        ",
"        6XyXuXpX1X>.+ n -...-.| W X.W E E X.W E ..Q V.r.4 H { ' x o.!.b < w.H.o.` ' ' [ o.&.&.*.-.-.` [ D o O.5XtXyX5X5X        ",
"        =X>XtX1X1X~.o l x.G.$.C q.N.b.d N.S.S.S.z.s L.r.4 H { ' v !.{ P 2 j.S.c.f.j.j.M.6.g M.z.j.` %.x.F @ =.wXrX6X>X4X        ",
"        %X].1XwX6X>.@ Z l.a.%.K 6.N.Q U S.S.P.S.m.s P.r.4 v { [ c o._ b 4 8.U.U.u.n.S.L.0.f A.N.f.o.c.b.B @ @.wX#X>X#X4X        ",
"        ;X].$X<X1X).@ n j.s.l...R T W | M.P.S.n.V.s S.r.4 b !.o.v o.!.b 4 8.U.U.u.i.L.D.k.| j.6.R  .m.m.M + =.8X'.>X-X0X        ",
"        :X.X X:XrX).@ z l.d.a.Q ) ) o. .V.P.N.j.A.d S.t.5 H @.' v o._ P t 7.Y.P.t.n.P.L.Q o.R / ..f.B.m.M . =.1X>.=X-X6X        ",
"        4X#X#X<XrX).+ z 6.C.C.4.T E P g Z.L.n.q.A.d A.r.9 H { [ v o._ P 5 7.Y.L.b.b.P.U.g.H ) | k.j.C.i.a o =.=X=.=X-X6X        ",
"        %X;X>X4X6X,.+ z l.d.C.2.n.m.8.4.U.L.N.8.m.y S.t.y b _ [ c o._ P 4 e.P.I.t.t.P.P.t.u j.M.A.u.N.i.c + =.'.O.-X;X-X        ",
"        ~.O.>._.).- . n 6.a.C.2.i.S.i.4.L.L.t.! J.W F.t.5 c [ [ F o.{ b 1 4.N.j.H.H.F.L.b.4.L.S.N.p.N.u.c o * +.O.~.>.>.        ",
"        uX%X X7X1X+.. k f.C.C.7.i.B.p.2.I.Z.j.*.!.^.F.t.6 b { [ A o.{ V 1 <.t. .!./.v.I.n.4.L.S.N.N.a.i.x o J <X6X0X8X8X4X      ",
"      6XsXwX;XuXrX].o j f.C.d.5.m.S.u.5.I.S.q.X.!.;.G.t.5 B _ [ / o._ H < 4.t.E !.!.G.I.V.6.S.Z.B.N.i.u.x o ~.rXtXyX9X8X5X      ",
"      5XuX<XwXuXyX}.@ j f.C.C.5.m.B.i.5.I.B.8.! ^.P M.r.5 b ( [ / o._ b < 4.i.g ;.X.b.N.S.0.N.Z.Z.B.p.i.x o ~.wXyXuXtX9X>X      ",
"      2X;X#X;X;X6X XO j Y d.C.s m.N.i.5.B.t.Q E  .b E w.5 c ^ o._ o.^ b < 1.Y R  .P R G.N.5.S.S.S.B.p.i.c O ~.<X8XwX8X8X2X      ",
"      oXOX;X[.oX-X`.@ = Y d.i.d N.C.y.7.a.f. .b.m.t C ! 6 b -.{ ` ` o.b , u  .M.b.1.! X.m.e.Z.S.Z.B.a.b.v O ^.wXwX7X:X<X>X      ",
"      ).:X#X=X<X6XOX@ = f.a.a.s m.Z.7.5.i.Y W B.S.u e P 6 b ( [ o.o._ b < p ..S.V.w.p E n.4.N.S.S.B.p.y.x @ '.iXrX;X;X4X5X      ",
"      ,X1X<X>X1X8XXX$ = T a.a.2.m.Z.2.5.N.0. .g.i.u N Y 6 b ( o.o.o.} v < <.W k.n.g P k.n.4.B.B.S.Z.a.y.x # `.wX7X4X4X9XqX      ",
"        6X8X1X8X8XXX$ = T Z.Z.8.m.Z.9.<.B.n.h.R P B Q 9.6 b D [ o.o.^ x 2 8.g.W P b k.S.n.4.B.B.Z.S.a.z.x # {.8X9X7X7XeX0X      ",
"        ).).~.).{.+.$ J @XW.W.E.F.B.p.<.Z.B.N.i.M.4.u.r.6 b ` ' o.{ ` k 4 t.A.m.j.g.B.L.n.4.B.B.a.C.a.z.x @ J `.`.{. X{.        ",
"        -X#X=.+X0XXXL ,.J.T.Q.T.E.K.4.d N.S.Z.S.S.9.y.r.6 q ' ' o.o.{ v 1 t.L.I.B.8.B.I.n.s r.B.a.S.a.y.x # ~.<X5X2X:X+X        ",
"      2X1X1X`.qXfXrX$.A Q W.W.c.,.|.*.V n.S.S.B.S.q.u.r.0 w D [ [ o.D c 2 9.S.S.V.7.V.I.j.b P Q y.Z.d.0.k # }.qXrXuXeX6X5X      ",
"      >X=X>XoX2XdXiXS n R.W.E.@X!.H.(.` b.S.B.S.S.b.i.r.6 w D ' o.' D b 2 w.S.S.B.8.I.V.T { ) _ W b.s.j.q *  XrXeX5X0X8X5X      ",
"      >X.X=X<XoXuXiX- ] J.p.x.>.R.G.@X) z.Z.B.B.S.u.i.8.6 w D ` o.{ ^ c 2 3.S.Z.C.7.B.C.E ..f.R ] k.i.0.n m oX-X X>X8X9X5X      ",
"      >X.X.X<X-X:XqXk K J.C.@X#.E.T.E.Y 9.Z.S.S.S.p.m.8.6 w [ o.o.{ [ B 2 2.Z.S.C.7.N.Z.z.W b.p.U $.b.0.S A O.>.>XtX8X9X5X      ",
"      4X#X.X;X:X5X0XL v H.R.^.%.R.K.E.h 6.z.z.z.c.j.a.8.5 e F ' ' o.D B 4 2.B.N.V.5.a.N.u.s b.i.g.' x.v.J l +.:X9X8X2X<X4X      ",
"      >X1X1X5X6X6X:X:.+.-.o.^.XX|.(.!.=.&.' ' ' &.#.z.8.8 w D ' o.' D N t 5.c.%. .E  . .X. .W %.%.@.*.;.] & '.8X8X9X7X4X:X      ",
"         X X X`.}.=.n :.&X|.|.,.#.#. ...|  . .| ..E z.8.0 e D ' ' ' F N i <.%.-.` { { @.-.;.-.;.;.^.!.-._ @ +.}.`.}.`.].XX      ",
"        0X0X5X,XrX,X* = %.v.$.U 4.b.b.5.<.n.u.i.M.g i.8.0 a ] ' ' ' { N i 2.b.x.h.! g.g.l.f T l.x.>.J.H.n & OX8X=X,X>. X        ",
"      5XaXdXdXfXhXeXk & C n.%.H s m.l.! 2.N.B.Z.N.<.i.9.i e D ] ' ' } B i 2.C.d.a.2.a.a.C.h c.D.v.-.c.h.l z <XpXrXwX`.>XqX      ",
"        uXdXfXfXpX0Xk * C a.j.` B g Q G 6.B.N.C.a.s u.9.0 e S ( { ' F N i 1.i.u.a.5.N.a.T E Y l.%.#.u.6.z z <XtXwX5X X4XqX      ",
"        pXfXfXpX>X5Xn % C i.i.~ ) L o./ 7.B.C.C.N.g W g 0 e Z ( ' ` Z N i d | %.p.2.a.d.E O.E *.=.f p.f.j z <XrXtXwX=X1X        ",
"        uXeXwX>X1X8Xn % N y.p.5.C L V e 1.p.i.a.q.U *XQ 6 r D ` ( ) } M 9 u ^.(.7.s y.i.Y ] ) | Q d 8.g j l ;X8XwXwX>X-X        ",
"        #X*X<X[.;X8Xn % a <.1.9 3 d i 9 9 1.1.5.5.t I y < r ^ ` K ( { M 2 1 d g s 7 1.4.4.f r f s 7 d p z v ;X1X=X1X1X-X        ",
"        >.1X-X'.=X8Xn % - 3 7 , > 1 7 , , 4 7 9 t , , < X ; Z ( S ( Z x > > 4 4 3 > 7 9 7 9 , < 7 > 1 r j n <X1X=X>X8X8X        ",
"        XXwX%X'.#X6XA j x q q q q q q q q b b w q q c q ; q D ) K ` / S q q w w q q C a e b N w w q q c m S <X5X;X;X9X8X        ",
"        7XeX5X;X<X6XD & n F Z A F F A D G / G / ( } ( ) ( ( K ( ` ' ` ( ) ' ' ] ` &.o.' o.' ) ' $.) / D Z D 4X6X5X0XwX8X        ",
"        4X9XwX8X8X5XK & F _ v Z Z ` ^ S D ) ( D ^ S [ ` ' ( ` { ( ) ( o.` ' ' ` ;.` ' { ' ) -.` ' ' ^ [ Z K 2X8X8X8X8X0X        ",
"        :X2X2X4X5X,XA = l l l l l       Z     Z Z Z       S F F F F F F F S S D D D D D S S     S           %X2X2X>X1X>X        "
};
