/* XPM */
static char *__PhotoRoom_png_PhotoRoom1674145470[] = {
/* columns rows colors chars-per-pixel */
"64 64 207 2 ",
"   c None",
".  c #3F372F",
"X  c #5B3402",
"o  c #5E2D1B",
"O  c #663B01",
"+  c #6D361A",
"@  c #7E3913",
"#  c #452A26",
"$  c #583727",
"%  c #4A3F31",
"&  c #473C30",
"*  c #784901",
"=  c #5B432C",
"-  c #56462F",
";  c #4B4534",
":  c #5C5735",
">  c #644D2E",
",  c #6D4D2F",
"<  c #7B4822",
"1  c #6D522E",
"2  c #71542E",
"3  c #645C34",
"4  c #705D36",
"5  c #7C632D",
"6  c #72622B",
"7  c #676238",
"8  c #7E6E36",
"9  c #8C3D09",
"0  c #923100",
"q  c #9C3500",
"w  c #973900",
"e  c #9C3B00",
"r  c #A43C00",
"t  c #A83E00",
"y  c #A03700",
"u  c #9E4200",
"i  c #994A0B",
"p  c #895401",
"a  c #99551C",
"s  c #A54100",
"d  c #A94200",
"f  c #A54900",
"g  c #AC4B00",
"h  c #B34600",
"j  c #B24B00",
"k  c #BD4C00",
"l  c #AF5100",
"z  c #B55300",
"x  c #BA5200",
"c  c #B45D03",
"v  c #BC5B00",
"b  c #B25F0F",
"n  c #AF5E12",
"m  c #BB640A",
"M  c #B66104",
"N  c #A87A16",
"B  c #815D2C",
"V  c #8B6A2A",
"C  c #9A6E29",
"Z  c #987521",
"A  c #8D7D37",
"S  c #A97629",
"D  c #A47529",
"F  c #B47D25",
"G  c #C04F00",
"H  c #C35400",
"J  c #C85700",
"K  c #C35E00",
"L  c #CA5E00",
"P  c #C66200",
"I  c #CB6500",
"U  c #CD6A00",
"Y  c #C26807",
"T  c #D36E00",
"R  c #CE7301",
"E  c #CE780B",
"W  c #D57300",
"Q  c #D97500",
"!  c #D57B02",
"~  c #DD7B00",
"^  c #D37E0C",
"/  c #C57414",
"(  c #C77A14",
")  c #E17D00",
"_  c #9E8328",
"`  c #A18227",
"'  c #A48629",
"]  c #BB8023",
"[  c #B79426",
"{  c #A58835",
"}  c #B28F39",
"|  c #AB9635",
" . c #AE9F34",
".. c #B39F39",
"X. c #DD8200",
"o. c #D98805",
"O. c #CA881E",
"+. c #D2851C",
"@. c #D88915",
"#. c #CA9F1A",
"$. c #C29B1E",
"%. c #D6921B",
"&. c #E28300",
"*. c #E98600",
"=. c #E28A01",
"-. c #EB8B00",
";. c #F38E00",
":. c #E49000",
">. c #ED9200",
",. c #EB9B00",
"<. c #E79B02",
"1. c #F39300",
"2. c #F59D04",
"3. c #FD9E03",
"4. c #FC9B07",
"5. c #E39314",
"6. c #EA9D14",
"7. c #E79B1C",
"8. c #E69A1C",
"9. c #DFAF0F",
"0. c #CCA119",
"q. c #DAAB11",
"w. c #ECA50D",
"e. c #E9A108",
"r. c #F3A300",
"t. c #FFA301",
"y. c #F3AA00",
"u. c #FFAB01",
"i. c #FCA40C",
"p. c #FFAE0D",
"a. c #EDBA00",
"s. c #F5B100",
"d. c #FFB201",
"f. c #FFBC00",
"g. c #FFB50C",
"h. c #FFB90C",
"j. c #F5B807",
"k. c #EFA710",
"l. c #F2A415",
"z. c #FDA411",
"x. c #FDAA14",
"c. c #F3A418",
"v. c #FFAB19",
"b. c #F5A81E",
"n. c #EEB113",
"m. c #FFB514",
"M. c #F4BD16",
"N. c #FFBB14",
"B. c #FFBD1C",
"V. c #FFB51C",
"C. c #CC8B20",
"Z. c #D58B21",
"A. c #CE9127",
"S. c #CC952B",
"D. c #CC9A2E",
"F. c #D59B29",
"G. c #DD9825",
"H. c #CC9B30",
"J. c #C09434",
"K. c #E29C22",
"L. c #C7A526",
"P. c #D8A729",
"I. c #D5B22A",
"U. c #DEAD33",
"Y. c #E9A522",
"T. c #EAA827",
"R. c #EFAE2A",
"E. c #E3A727",
"W. c #F2AA21",
"Q. c #F3B025",
"!. c #FFB522",
"~. c #FFBD24",
"^. c #F6B42A",
"/. c #FEBD2A",
"(. c #F7B828",
"). c #EFBB33",
"_. c #F8BC32",
"`. c #FFC400",
"'. c #FFCC00",
"]. c #FFCB0B",
"[. c #FFD101",
"{. c #FFD40C",
"}. c #FFCD14",
"|. c #FEC21D",
" X c #FFCB1C",
".X c #F7C315",
"XX c #FFD515",
"oX c #FFD81C",
"OX c #EDC72B",
"+X c #FFC224",
"@X c #FECB24",
"#X c #FFC42A",
"$X c #FFCA2C",
"%X c #FFD323",
"&X c #FFDB21",
"*X c #FFD42B",
"=X c #FFDC2C",
"-X c #F6D32F",
";X c #E6C733",
":X c #FEC532",
">X c #FFCE33",
",X c #FFD234",
"<X c #FFDD31",
"1X c #FFD139",
"2X c #FFE22C",
"3X c #FFE025",
"4X c #FFE135",
/* pixels */
"                                                                                                                                ",
"                                                                                                                                ",
"                                                                                                                                ",
"                                                                                                                                ",
"                                                                                                                                ",
"                                                                                                                                ",
"                                                                                                                                ",
"                                                                                                                                ",
"                                                                                                                                ",
"                                  B F +.( M i 9 9 + o #                                                                         ",
"                            > O.p.u.-.P f e e e w w e d j l b a B $ #                                                           ",
"                          F d.h.2.K d d d d d s r r e s f c I T T W R Y n a < $                                                 ",
"                      { T.+X$X8.z d d s d d d d s d g j z P T U L P P U T T T v z f i @ + - &                                   ",
"                    8 ).,X,X7.u w e r s d d d d d d g x x T T T T T T T U P g f g g z X.x.#X#X).P.[ A 3                         ",
"                    U.1X,X^.z s s e e w w w e s s s h x v T T T T T W T T K j z g c c.>X>X*X].'.'.&X2X[.`.#.6                   ",
"                  { ,X>X#XR d d d d d d s r e w w w s g z T T W T T T T U v x j P ^.-X:X+X'.'.'.oX<X'.`.'.'.'.[                 ",
"                ; (.|.h.>.g d d d d d d d d d d s s g g g P P I U U T T K x j v c.|.N.f.'.'.`.y.<.o.&.&.=.<.f.[.#.              ",
"                S d.d.u.v w r s s s d s d s d d d d j x v W T T U U P v g g j &.d.d.d.'.'.f.=.W T I P P v P R r.[.|             ",
"                k.g.|.x.g r w w w w e s s d d d s d j x v U W W W W T v g f v u.d.d.`.'.y.R P P P P U U T T T U n.=X7           ",
"              4 $X>X,X@.d d d d d t e e w w w e r t g x k I T T T T U x x j ,.B.#X`.'.f.P P U T W T T W T T T T T |.I.          ",
"              } ,X$X#XP d d d d d d d d d s t e e w e f g v T T T T K z j R :X,X$X'.`.~ J W W T T W W T T T U U P R `.5         ",
"              E.h.d.t.g s d d d d d d d d d d d d d g j g l P P U v z j j 7.$X#X}.'.r.v L W T T T U U P P P P I U U y.[         ",
"            . u.d.d.>.e w w e e r s d d d d d d d d d j x x P T P j f u l m.d.d.`.'.~ k P U P P P P P U U T T T T T X.OX        ",
"            2 u.d.d.~ d s t r e w w w w r s s d d d d j z z x v v x j g W d.d.d.'.M.v d z P U T T T W T W T W T T T W M.        ",
"          - l.d.d.d.W t t s d d d d t e e w w w e s s d x x j z k z z g 1.d.d.f.&Xw.j k H W T T T W T T T W W U I P v ,.`       ",
"          1 u.d.u.d.3.X.U v g d d s d d d d d s e e w w u g j z j z j v t.d.u. X=X~ k k H T W W T T U U P P M P U U T =.0.      ",
"          , t.t.u.u.d.B.#X/.Q.5.E v j d s s d d d d d s s g f s s f s U d.d.d.%X].I k k x I U P P P P I U T W T T T Q =.a.      ",
"          , u.u.t.3.i.v.!.#X#X#XB.u.3.&.T v j d d s d d d j v x z z s X.d.d.d.[.y.k h g g k P U U T T T T W Q &.,.y.f.`.[.`     ",
"            u.d.u.m./.v.t.4.i.t.t.u.u.d.d.u.z.5.^ K j d s d j x z x j 1.d.d.d.'.<.j h k k G I T T W Q &.,.n.@X'.'.`.`.f.d.D     ",
"            +.u.u.B./.d.d.d.p.V.v.z.t.t.p./.+X+XN.u.3.-.W K j z x j z t.d.u.f.'.:.k k k k H P o.w.s.f.'.{.=X}.f.d.u.u.u.d.D     ",
"            S.h.u.3.z v Q 1.!.>X>X#Xu.v.v.4.i.t.t.u.d.d.d.u.3.-.~ I U u.d.d.f.'.X.k K W =.n.@X<XoX'.`.f.m.g.u.u.d.|. X'.[.M.    ",
"            H.$XN.3.s q e v Y ! 5.w.m.#XN.u.u.t.i.z.3.i.t.u.d.d.d.u.u.u.d.u.f.'.r.r.f.`.&X<X%X+Xd.u.t.p.m.f.`.'.&X=X'.`.f.      ",
"            D.$X+Xt.g y s v v z z v Q.|.2.y.d.d.#X:X~.t.t.3.3.t.t.u.d.d.d.d.f.'.'.'.`.h.V.g.u.u.d.f.@X=XXX'.f.j.w.r.d.d.m.      ",
"            D.@X+X1.s t d H P P K P p.2.* p u.+XW.W.p.d.u.d.u.t.t.i.4.t.t.t.d.f.d.u.t.g.d.f.`.'.'.&X*XM.r.=.~ W T -.d.h.#X      ",
"            H.$XN.~ q t t v P P P U t.,.O * /.#X! v K U &.1.t.d.d.:X~.t.t.3.t.u.d.f. X&X[.'.f.s.r.:.~ W W Q Q Q T X.d.#X:X      ",
"            H.+Xt.z q y t k P P P P t.r.O N ,X/.W v c z z v v T =.W.p.u.d.u.f.'.'.[.@Xs.,.=.~ W W Q Q Q Q W W W W W u.$X:X      ",
"            H.h.*.q e y w d v K P K 1.o.X N *Xl.U P P P K K v z z z v *.u.u.f.`.f.f.~ W W Q Q ~ Q ! W W W Q ~ ~ ~ Q r.#X:X      ",
"            S.t.v y t t r t v v v v U w.P.E.V.~ I P P P P K P K P v K 3.t.u.d.d.d.d.-.T Q Q W W W Q ~ ~ ~ ~ ) ~ ~ Q -.B.:X      ",
"            C.;.y r t t t t v P P M v U 5.5.W P K P P P P P P P P v &.t.u.d.+X#Xd.d.1.I W W ~ ~ ~ ~ ) ~ &.~ X.~ Q W W u.#X      ",
"            A.W q r t r r t h P P P P P K P v v v v v K P P P P K v ;.u.d.g.+X$XN.d.1.T ~ ~ ~ ~ ~ ~ ~ ~ Q Q W W W Q W 3./.      ",
"            D.&.0 q e r t t t H P P P P I K P P K K K v v v v P K H 1.u.d.h.+X>X+Xd.*.I ~ ~ ~ X.~ ~ W W W W ~ ~ ~ ) W ;.B.      ",
"            H.g.j q y y e w e d K L P P L P P P P P P P P v H v v g *.d.d.h.+X>X+Xd.Q L ~ Q Q W W W Q ~ ~ ~ ~ ~ ~ ~ W 2.!.      ",
"            H.+X&.q r t t r r y g v v M K K P L P P P P P P P P P z Q u.g.d.+X>X+Xt.H k T W Q Q ~ ~ ~ ) ) ~ ) ~ ~ W ~ u./.      ",
"            H.@Xp.h q t r t t t g H v v v v v K K P P P P K P P P H I t.d.d./.>XB.*.k H T &.~ ) ~ ~ ~ ~ ~ ~ W W T W t.N.#X      ",
"            H.$Xg.I q t t t t t t j K P P K K v v v v v K P P P P P v ;.u.d.+X>Xg.T G J L ) ) ~ ~ ~ ! W W W ! ~ W 1.d.#X:X      ",
"            D.+Xu.W 0 e y y t t t t h K P P P P P K K v v v v v K P v Q u.d.+X$Xt.J H J J T Q W W W ! Q ~ ~ ~ ~ ~ t.h.$X:X      ",
"            F.d.u.Q q r e e e y y t t h P P P P P P P P P P K v v c z v t.d./.#Xt.H k H G H T Q ~ ~ ~ ~ ~ ) ~ ~ ) u.h.$X:X      ",
"          V /.#X+X@.d r r r t y y e e e g H P P L P P P K P P P P P v z 3.d.+X$Xu.U h x H J L Q ) ~ ~ ) ~ ) ~ W ~ d.d.#X:X      ",
"          1 f.d.V.+X_.E.( z t y y r r r y t j v v K P P P P P L P P v T t.d.+X>XN.3.K G J J J L Q ) ) Q Q W W T W u.d.d.m.      ",
"          & %.u.d.|.,X,X+X/.R.Z.m g r y r r r j v v c v K K P P P H v 1.u.d.+X>X+Xu.*.G J J J J K I T W Q Q ~ Q Q r.g.B.#X      ",
"              . 4 H.).V.d.N.>X#X+X(.G./ z r q r d k H P v v v c v x ) t.u.d./.,X+Xd.t.L G G k x x H J L P I U W 5./.1X%X[.      ",
"                      > S U.B.d.d.d.N.|./.T.+.m s e r j v K K P z v 3.u.d.h.+X,X#Xd.d.Q h H H G G k k H U 5.Q.@X*X<XXX[.[.      ",
"                            ; V O.i.d.d.d.h.B.+X(.G./ g r s j x x Q t.u.u.d.+X,X+Xd.d.*.k k k G L W 7.(.@X}.'.{.2XXXa.$.        ",
"                                  V 2 ] 6.u.d.d.#X1X1X:XE.+.M s e ) u.t.u.d.+X:Xg.d.d.*.H P o.Y.:X<X=X'.'.'.].;X|               ",
"                                          - C F.:X1X,XB.g.B.+X^.G.c.d.u.t.u.g.d.d.d.N.b.R.>X<XXX=X&X[.'.q._                     ",
"                                                ; V [ c.u.d.h.$X1X#X#X#X~.g.d.B.#X$X%X,X4X2X[.=X-XL._                           ",
"                                                        > S U.:X#Xd.d.d.+X#X$X@X].'.XX4X2X.XL.                                  ",
"                                                              : V O.i.d.d.d.`.'.[.{.;X.. .                                      ",
"                                                                    Z 2 F 6.s.n.' :                                             ",
"                                                                                                                                ",
"                                                                                                                                ",
"                                                                                                                                ",
"                                                                                                                                ",
"                                                                                                                                "
};
