/* XPM */
static char *result[] = {
/* columns rows colors chars-per-pixel */
"64 64 3 1 ",
"  c #85C21B",
". c #ACC765",
"X c #7AB612",
/* pixels */
"                                                                ",
"                                                                ",
"                                                                ",
"                                                                ",
"             .               X               .               X  ",
"        .    .          X    X          .    .          X    X  ",
"       ..              XX              ..              XX       ",
"   ..  .           XX  X           ..  .           XX  X        ",
"    ..              XX              ..              XX          ",
"     .               X               .               X          ",
"                                                                ",
"   ..   ..         XX   XX         ..   ..         XX   XX      ",
"  ..     ..       XX     XX       ..     ..       XX     XX     ",
"                                                                ",
"                                                                ",
"                                                                ",
"                                                                ",
"                                                                ",
"                                                                ",
"  ..   ..   .     XX   XX   X     ..   ..   .     XX   XX   X   ",
"  ... ..    ..    XXX XX    XX    ... ..    ..    XXX XX    XX  ",
"   .. .      .     XX X      X     .. .      .     XX X      X  ",
"    .               X               .               X           ",
"                                                                ",
"                                                                ",
"      ..   .          XX   X          ..   .          XX   X    ",
"       .. ..           XX XX           .. ..           XX XX    ",
"        . .             X X             . .             X X     ",
"                                                                ",
"                                                                ",
"                                                                ",
"                                                                ",
"                                                                ",
"  .               X               .               X             ",
" . .             X X             . .             X X            ",
" . .      . ..   X X      X XX   . .      . ..   X X      X XX  ",
"         . .  .          X X  X          . .  .          X X  X ",
"    . ..            X XX            . ..            X XX        ",
"   . .  .          X X  X          . .  .          X X  X       ",
" .               X               .               X              ",
". .             X X             . .             X X             ",
"                                                                ",
"     .        .      X        X      .        .      X        X ",
"    . . .    . .    X X X    X X    . . .    . .    X X X    X X",
"       . .             X X             . .             X X      ",
"                                                                ",
"                                                                ",
"                                                                ",
"                                                                ",
"                                                                ",
"                                                                ",
"                                                                ",
"             .               X               .               X  ",
"        .    .          X    X          .    .          X    X  ",
"       ..              XX              ..              XX       ",
"   ..  .           XX  X           ..  .           XX  X        ",
"    ..              XX              ..              XX          ",
"     .               X               .               X          ",
"                                                                ",
"   ..   ..         XX   XX         ..   ..         XX   XX      ",
"  ..     ..       XX     XX       ..     ..       XX     XX     ",
"                                                                ",
"                                                                ",
"                                                                "
};
