/* XPM */
static char *result[] = {
/* columns rows colors chars-per-pixel */
"64 64 66 1 ",
"  c #311512",
". c #4D2712",
"X c #4E2812",
"o c #522B14",
"O c #532F18",
"+ c #5A3117",
"@ c #56321A",
"# c #5A351D",
"$ c #5E391E",
"% c #603A1F",
"& c #5B3720",
"* c #5E3A21",
"= c #623D23",
"- c #644126",
"; c #664529",
": c #69462A",
"> c #67482B",
", c #6A4A2D",
"< c #6C4E31",
"1 c #644F3C",
"2 c #704E31",
"3 c #6E5234",
"4 c #66523F",
"5 c #6C563E",
"6 c #715537",
"7 c #765837",
"8 c #735738",
"9 c #755A3A",
"0 c #795E3E",
"q c #7A603F",
"w c #675240",
"e c #695642",
"r c #6C5A46",
"t c #6D5C48",
"y c #715C45",
"u c #7A5F40",
"i c #715E48",
"p c #7D6241",
"a c #74624C",
"s c #756551",
"d c #786751",
"f c #7B6A55",
"g c #7E6E5A",
"h c #7F705B",
"j c #7F7262",
"k c #806545",
"l c #836947",
"z c #856B4B",
"x c #886E4E",
"c c #8A714F",
"v c #876E50",
"b c #886F51",
"n c #8C7455",
"m c #81715C",
"M c #907756",
"N c #907857",
"B c #947C5D",
"V c #847562",
"C c #867966",
"Z c #897B67",
"A c #8C7F6C",
"S c #977F61",
"D c #8E806C",
"F c #9A8365",
"G c #938574",
"H c None",
/* pixels */
"HHHHHHHHHHHHHHHHHHHHHHHHHHHHHHHHHHHHHHHHHHHHHHHHHHHHHHHHHHHHHHHH",
"HHHHHHHHHHHHHHHHHHHHHHHHHHHHHHHHHHHHHHHHHHHHHHHHHHHHHHHHHHHHHHHH",
"HHHHHHHHHHHHHHHHHHHHHHHHHHHHHHHHHHHHHHHHHHHHHHHHHHHHHHHHHHHHHHHH",
"HHHHHHHHHHHHHHHHHHHHHHHHHHHHHHHHHHHHHHHHHHHHHHHHHHHHHHHHHHHHHHHH",
"HHHHHHHHHHHHHHHHHHHHHHHHHHHHHHHHHHHHHHHHHHHHHHHHHHHHHHHHHHHHHHHH",
"HHHHHHHHHHHHHHHHHHHHHHHHHHHHHHHHHHHHHHHHHHHHHHHHHHHHHHHHHHHHHHHH",
"HHHHHHHHHHHHHHHHHHHHHHHHHHHHHHHHHHHHHHHHHHHHHHHHHHHHHHHHHHHHHHHH",
"HHHHHHHHHHHHHHHHHHHHHHHHHHHHHHHHHHHHHHHHHHHHHHHHHHHHHHHHHHHHHHHH",
"HHHHHHHHHHHHHHHHHHHHHHHHHHH:2:22=22222HHHHHHHHHHHHHHHHHHHHHHHHHH",
"HHHHHHHHHHHHHHHHHHHHHHH:22=ccczz%zzzzz%-:=HHHHHHHHHHHHHHHHHHHHHH",
"HHHHHHHHHHHHHHHHHHHHH2:MMM%cccxz%xzzlz%qu9=-HHHHHHHHHHHHHHHHHHHH",
"HHHHHHHHHHHHHHHHHHH=%MMcMM%FFBBN%BBBBM+7uu99#*HHHHHHHHHHHHHHHHHH",
"HHHHHHHHHHHHHHHHHH:z%xFFFF%7907k%7q7qq%MMbn9=2=HHHHHHHHHHHHHHHHH",
"HHHHHHHHHHHHHHHHH:xx%S9xkk%ku70k%7qppp=::kun=62&HHHHHHHHHHHHHHHH",
"HHHHHHHHHHHHHHHH:lxB=77xkp%k0k9u:00ppp::zuup-b66#HHHHHHHHHHHHHHH",
"HHHHHHHHHHHHHHHH:zB0=7xkkk:pkukk-0pppq:luuuu-pv6$HHHHHHHHHHHHHHH",
"HHHHHHHHHHHHHHH-un90=7xkkk=uukuk:qqqpq,qppup>qqz3&HHHHHHHHHHHHHH",
"HHHHHHHHHHHHHHH:n990-lkkkk,kk0uk:ppkpp,ku0p0,qqqz#HHHHHHHHHHHHHH",
"HHHHHHHHHHHHHH-un990:ukkkk,u0k0k:pkppp,qupqp3qq0v<#HHHHHHHHHHHHH",
"HHHHHHHHHHHHHH-b9999:kkkkk,u0u0k:ppppp,qupq03qqq0n@HHHHHHHHHHHHH",
"HHHHHHHHHHHHHH-v9799,kkkkp,uuupk:lpppp2qqppy3qqq0n@HHHHHHHHHHHHH",
"HHHHHHHHHHHHHH&99997,kpp:p<uuuuk:lkppp,q=pqq2qqq00oHHHHHHHHHHHHH",
"HHHHHHHHHHHHHH##&%======G-<uuuup:lpppp,=G==*%$$###oHHHHHHHHHHHHH",
"HHHHHHHHHHHHHH+ffmmnVVVVvA=uuupk:lpppp-GdVVhggggffXHHHHHHHHHHHHH",
"HHHHHHHHHHHHHH+yyaaafffvggZ:uy9p:lppp:FpfddaaaayryoHHHHHHHHHHHHH",
"HHHHHHHHHHHHHH+yyiaadfdfffO0uu0p:lppkq+fdddaataa8roHHHHHHHHHHHHH",
"HHHHHHHHHHHHHH+Oo++o+oOOfO20uuup:lppqq,+fOoXoooooooHHHHHHHHHHHHH",
"HHHHHHHHHHHHHHO--=::#,,>O220uuup:cpplq,>o,,>::,>>>oHHHHHHHHHHHHH",
"HHHHHHHHHHHHHHO67998*uuu,23000up>zppql,q>pup388888oHHHHHHHHHHHHH",
"HHHHHHHHHHHHHHO78788-uuuq2,0uuup>xlpqq,q0qu0388888oHHHHHHHHHHHHH",
"HHHHHHHHHHHHHHO68877<uuuq>20900p;zqpqq,qq0q0388888o   HHHHHHHHHH",
"HHHHHHHHHHHHHHO68888>p9u0>309u9p>zpqpq2p0q00388838o     HHHHHHHH",
"HHHHHHHHHHHHHHo88888>p0000<0p90p;zqqqq2pq9q9358388X       HHHHHH",
"HHHHHHHHHHHHHHo88878>p8089<9999q;zqqqq<p099p<38883o        HHHHH",
"HHHHHHHHHHHHHHo88888>p9808<899#$%$$qqq3q9q90<83338X         HHHH",
"HHHHHHHHHHHHHHo88888>p0888399&DDDDD$qq3p09q0<36668o         HHHH",
"HHHHHHHHHHHHHHo88888<p8888399&daaaa$qq<q0999>33333X          HHH",
"HHHHHHHHHHHHHHX83838,u8888,99$aaoaa$7q3q8099;33333X          HHH",
"HHHHHHHHHHHHHHX68388,p8888<99Xptoyto99<q9999;3<333X          HHH",
"HHHHHHHHHHHHHHo68838>08888<89X45555X88,q0999;33333X         HHHH",
"HHHHHHHHHHHHHHX63888>p33*6,88>XXXoX>98<q*q99;33333X         HHHH",
"HHHHHHHHHHHHHHX#@###$***D*<888>>#>>788<*D*&$$###@#X        HHHHH",
"HHHHHHHHHHHHHHXddgffmVVVdD*8889q-09889*DahhfgfffddX        HHHHH",
"HHHHHHHHHHHHHHXrryyaasaddsZ*8885-8889*Dsdsatttty5eX       HHHHHH",
"HHHHHHHHHHHHHHX5rtttsaadddo88888-38888Xsaaatttyte5X       HHHHHH",
"HHHHHHHHHHHHHHXXoXoXooXodX-88888-88883-XtXXXXXXXXXX      HHHHHHH",
"HHHHHHHHHHHHHHX$%--;$>>,X;*83838-83333->X;;;-;--%-X      HHHHHHH",
"HHHHHHHHHHHHHHX32333#338>6-83888&88336-9,q99*3<,<<X     HHHHHHHH",
"HHHHHHHHHHHHHHX33<33*33388-35333&33333=99999*<<<<,.     HHHHHHHH",
"HHHHHHHHHHHHHH.33333*33533*85e38@33533*e9995*<,<<<.    HHHHHHHHH",
"HHHHHHHHHHHHHHXO@&***&&&&&@@OOO.XOO@&#&&&#&O&OOO...    HHHHHHHHH",
"HHHHHHHHHHHHHHXaassssssdfsffssjjXjjgfffsssssssasss.   HHHHHHHHHH",
"HHHHHHHHHHHHHHXVjZZjCCCCjDDADAGGXGGDAAACCCCCCCCCCC.   HHHHHHHHHH",
"HHHHHHHHHHHHHH.4444ewweettrrtttsXsttttttteeee11111.  HHHHHHHHHHH",
"HHHHHHHHHHHHHH.4w4wwwwerererettsXstttttttteee11111.  HHHHHHHHHHH",
"HHHHHHHHHHHHHHX111weeeeerrtrtttsXstttetteeeeeee111. HHHHHHHHHHHH",
"HHHHHHHHHHHHHHX111eeeeererrrtttsXsttttttreeeeeee11. HHHHHHHHHHHH",
"HHHHHHHHHHHHHH..XXXXXXXXXX.XXXXX..XXXXXX..X........HHHHHHHHHHHHH",
"HHHHHHHHHHHHHHHHHHHHHHHHHHHHHHHHHHHHHHHHHHHHHHHHHHHHHHHHHHHHHHHH",
"HHHHHHHHHHHHHHHHHHHHHHHHHHHHHHHHHHHHHHHHHHHHHHHHHHHHHHHHHHHHHHHH",
"HHHHHHHHHHHHHHHHHHHHHHHHHHHHHHHHHHHHHHHHHHHHHHHHHHHHHHHHHHHHHHHH",
"HHHHHHHHHHHHHHHHHHHHHHHHHHHHHHHHHHHHHHHHHHHHHHHHHHHHHHHHHHHHHHHH",
"HHHHHHHHHHHHHHHHHHHHHHHHHHHHHHHHHHHHHHHHHHHHHHHHHHHHHHHHHHHHHHHH",
"HHHHHHHHHHHHHHHHHHHHHHHHHHHHHHHHHHHHHHHHHHHHHHHHHHHHHHHHHHHHHHHH"
};
