/* XPM */
static char *result[] = {
/* columns rows colors chars-per-pixel */
"64 64 252 2 ",
"   c #311512",
".  c #53321D",
"X  c #573622",
"o  c #583521",
"O  c #593724",
"+  c #593A27",
"@  c #5A3A27",
"#  c #5A3B28",
"$  c #5B3C29",
"%  c #5C3D2A",
"&  c #5D3E2A",
"*  c #5E3F2A",
"=  c #5E3F2B",
"-  c #5F402C",
";  c #60402B",
":  c #60412C",
">  c #61412C",
",  c #60402D",
"<  c #60412D",
"1  c #61422D",
"2  c #61422E",
"3  c #62422E",
"4  c #62432E",
"5  c #6A4A35",
"6  c #684B36",
"7  c #6D4B34",
"8  c #6C4B35",
"9  c #6E4C35",
"0  c #6F4C36",
"q  c #6A4D39",
"w  c #6E523F",
"e  c #74513A",
"r  c #6F5341",
"t  c #705340",
"y  c #725543",
"u  c #745643",
"i  c #775A45",
"p  c #775946",
"a  c #775B47",
"s  c #785A48",
"d  c #785C4A",
"f  c #7A5C4A",
"g  c #795E4A",
"h  c #795E4B",
"j  c #7A5E4A",
"k  c #7A5F4A",
"l  c #7A5F4B",
"z  c #7C5F4B",
"x  c #795D4C",
"c  c #7B5E4D",
"v  c #7B624E",
"b  c #7C604C",
"n  c #7C604D",
"m  c #7C624E",
"M  c #7E6352",
"N  c #7E6450",
"B  c #846552",
"V  c #896F5C",
"C  c #8B7565",
"Z  c #8E7665",
"A  c #8C7E67",
"S  c #8C7E68",
"D  c #8C7F69",
"F  c #8D7F69",
"G  c #8D7F6A",
"H  c #8D806A",
"J  c #8D816A",
"K  c #8D806B",
"L  c #8D816B",
"P  c #8E806A",
"I  c #8E816A",
"U  c #8E806B",
"Y  c #8E816B",
"T  c #8E826B",
"R  c #8E816C",
"E  c #8F816C",
"W  c #8F816D",
"Q  c #8E826C",
"!  c #8F826C",
"~  c #8F826D",
"^  c #8F836E",
"/  c #90826E",
"(  c #90836E",
")  c #90836F",
"_  c #90846E",
"`  c #91846E",
"'  c #90846F",
"]  c #91846F",
"[  c #908470",
"{  c #918470",
"}  c #908471",
"|  c #918471",
" . c #918571",
".. c #928570",
"X. c #928671",
"o. c #918572",
"O. c #928572",
"+. c #928672",
"@. c #938772",
"#. c #928673",
"$. c #938673",
"%. c #938773",
"&. c #938774",
"*. c #948873",
"=. c #968872",
"-. c #968973",
";. c #978A73",
":. c #948874",
">. c #958974",
",. c #948875",
"<. c #958975",
"1. c #968975",
"2. c #978A74",
"3. c #968A75",
"4. c #978A75",
"5. c #958976",
"6. c #958977",
"7. c #958A76",
"8. c #958A77",
"9. c #978A76",
"0. c #968A77",
"q. c #978B77",
"w. c #998C77",
"e. c #968A78",
"r. c #968B78",
"t. c #978B78",
"y. c #968B79",
"u. c #978B79",
"i. c #978C79",
"p. c #978C7A",
"a. c #998C78",
"s. c #988D78",
"d. c #998D78",
"f. c #988C79",
"g. c #998D79",
"h. c #9A8E79",
"j. c #988C7A",
"k. c #988D7A",
"l. c #988D7B",
"z. c #998E7A",
"x. c #9A8E7A",
"c. c #9A8F7B",
"v. c #988D7C",
"b. c #998E7C",
"n. c #998E7D",
"m. c #998F7D",
"M. c #9A8F7C",
"N. c #9B8F7C",
"B. c #9A8F7D",
"V. c #9A8F7E",
"C. c #9A8F7F",
"Z. c #9A907E",
"A. c #9B917E",
"S. c #9A907F",
"D. c #9B907F",
"F. c #9C907D",
"G. c #9C917D",
"H. c #9C917E",
"J. c #9D927F",
"K. c #46809E",
"L. c #48819F",
"P. c #548BA8",
"I. c #70A1B4",
"U. c #9B9080",
"Y. c #9B9181",
"T. c #9C9180",
"R. c #9C9181",
"E. c #9D9380",
"W. c #9C9281",
"Q. c #9D9281",
"!. c #9D9381",
"~. c #9C9282",
"^. c #9D9282",
"/. c #9D9383",
"(. c #9E9382",
"). c #9E9383",
"_. c #9E9482",
"`. c #9E9483",
"'. c #9D9384",
"]. c #9E9384",
"[. c #9E9485",
"{. c #9E9585",
"}. c #9E9684",
"|. c #9E9685",
" X c #9F9685",
".X c #9F9686",
"XX c #9F9787",
"oX c #9F9688",
"OX c #9F9788",
"+X c #9F9689",
"@X c #A09686",
"#X c #A09689",
"$X c #A09889",
"%X c #A19989",
"&X c #A29989",
"*X c #A0988A",
"=X c #A1988A",
"-X c #A1998A",
";X c #A1988B",
":X c #A1998B",
">X c #A19A8A",
",X c #A39A8B",
"<X c #A1998C",
"1X c #A19A8C",
"2X c #A29A8D",
"3X c #A39B8D",
"4X c #A49C8D",
"5X c #A49C8E",
"6X c #A59D8F",
"7X c #A69E90",
"8X c #A79F91",
"9X c #A7A091",
"0X c #A8A090",
"qX c #A9A190",
"wX c #A8A091",
"eX c #A9A191",
"rX c #A9A192",
"tX c #A9A193",
"yX c #AAA193",
"uX c #AAA292",
"iX c #AAA293",
"pX c #AAA294",
"aX c #AAA295",
"sX c #ABA395",
"dX c #ABA396",
"fX c #ABA495",
"gX c #ACA495",
"hX c #ACA496",
"jX c #ACA497",
"kX c #ACA597",
"lX c #ADA597",
"zX c #ADA598",
"xX c #ADA698",
"cX c #ADA699",
"vX c #AEA699",
"bX c #AEA69A",
"nX c #AFA69A",
"mX c #AEA79A",
"MX c #AFA79A",
"NX c #AFA69B",
"BX c #AFA79B",
"VX c #AFA79C",
"CX c #B0A79B",
"ZX c #B0A89B",
"AX c #B0A89C",
"SX c #B0A99C",
"DX c #B1A99C",
"FX c #B1A99D",
"GX c #B1A99E",
"HX c #B2AA9E",
"JX c #B7B0A5",
"KX c None",
/* pixels */
"KXKXKXKXKXKXKXKXKXKXKXKXKXKXKXKXKXKXKXKXKXKXKXKXKXKXKXKXKXKXKXKXKXKXKXKXKXKXKXKXKXKXKXKXKXKXKXKXKXKXKXKXKXKXKXKXKXKXKXKXKXKXKXKX",
"KXKXKXKXKXKXKXKXKXKXKXKXKXKXKXKXKXKXKXKXKXKXKXKXKXKXKXKXKXKXKXKXKXKXKXKXKXKXKXKXKXKXKXKXKXKXKXKXKXKXKXKXKXKXKXKXKXKXKXKXKXKXKXKX",
"KXKXKXKXKXKXKXKXKXKXKXKXKXKXKXKXKXKXKXKXKXKXKXKXKXKXKXKXKXKXKXKXKXKXKXKXKXKXKXKXKXKXKXKXKXKXKXKXKXKXKXKXKXKXKXKXKXKXKXKXKXKXKXKX",
"KXKXKXKXKXKXKXKXKXKXKXKXKXKXKXKXKXKXKXKXKXKXKXKXKXKXKXKXKXKXKXKXKXKXKXKXKXKXKXKXKXKXKXKXKXKXKXKXKXKXKXKXKXKXKXKXKXKXKXKXKXKXKXKX",
"KXKXKXKXKXKXKXKXKXKXKXKXKXKXKXKXKXKXKXKXKXKXKXKXKXKXKXKXKXKXKXKXKXKXKXKXKXKXKXKXKXKXKXKXKXKXKXKXKXKXKXKXKXKXKXKXKXKXKXKXKXKXKXKX",
"KXKXKXKXKXKXKXKXKXKXKXKXKXKXKXKXKXKXKXKXKXKXKXKXKXKXKXKXKXKXKXKXKXKXKXKXKXKXKXKXKXKXKXKXKXKXKXKXKXKXKXKXKXKXKXKXKXKXKXKXKXKXKXKX",
"KXKXKXKXKXKXKXKXKXKXKXKXKXKXKXKXKXKXKXKXKXKXKXKXKXKXKXKXKXKXKXKXKXKXKXKXKXKXKXKXKXKXKXKXKXKXKXKXKXKXKXKXKXKXKXKXKXKXKXKXKXKXKXKX",
"KXKXKXKXKXKXKXKXKXKXKXKXKXKXKXKXKXKXKXKXKXKXKXKXKXKXKXKXKXKXKXKXKXKXKXKXKXKXKXKXKXKXKXKXKXKXKXKXKXKXKXKXKXKXKXKXKXKXKXKXKXKXKXKX",
"KXKXKXKXKXKXKXKXKXKXKXKXKXKXKXKXKXKXKXKXKXKXKXKXKXKXKXKXKXKXKXKXKXKXKXKXKXKXKXKXKXKXKXKXKXKXKXKXKXKXKXKXKXKXKXKXKXKXKXKXKXKXKXKX",
"KXKXKXKXKXKXKXKXKXKXKXKXKXKXKXKXKXKXKXKXKXKXKXKXKXKXKXKXKXKXKXKXKXKXKXKXKXKXKXKXKXKXKXKXKXKXKXKXKXKXKXKXKXKXKXKXKXKXKXKXKXKXKXKX",
"KXKXKXKXKXKXKXKXKXKXKXKXKXKXKXKXKXKXKXKXKXKXKXKXKXKXKXKXKXKXKXKXKXKXKXKXKXKXKXKXKXKXKXKXKXKXKXKXKXKXKXKXKXKXKXKXKXKXKXKXKXKXKXKX",
"KXKXKXKXKXKXKXKXKXKXKXKXKXKXKXKXKXKXKXKXKXKXKXq q q q q q q q q q q q q q q q q KXKXKXKXKXKXKXKXKXKXKXKXKXKXKXKXKXKXKXKXKXKXKXKX",
"KXKXKXKXKXKXKXKXKXKXKXKXKXKXKXKXKXKXKXKXKXKXq qXqXqXqXqXqXqXqXqXqXqXqXqXqXqXqXqXq KXKXKXKXKXKXKXKXKXKXKXKXKXKXKXKXKXKXKXKXKXKXKX",
"KXKXKXKXKXKXKXKXKXKXKXKXKXKXKXKXKXKXKXKXKXq bXeXqXeXqXeXeXqXqXqXqXqXqXwXwXwXwX0XMXq KXKXKXKXKXKXKXKXKXKXKXKXKXKXKXKXKXKXKXKXKXKX",
"KXKXKXKXKXKXKXKXKXKXKXKXKXKXKXKXKXKXKXKXKXq nXtXyXtXtXtXtXyXyXrXrXrXeXuXuXrXrXwXCXq KXKXKXKXKXKXKXKXKXKXKXKXKXKXKXKXKXKXKXKXKXKX",
"KXKXKXKXKXKXKXKXKXKXKXKXKXKXKXKXKXKXKXKXKXq NXpXiXpXaXaXaXaXaXpXpXpXpXpXpXpXiXiXZXq KXKXKXKXKXKXKXKXKXKXKXKXKXKXKXKXKXKXKXKXKXKX",
"KXKXKXKXKXKXKXKXKXKXKXKXKXKXKXKXKXKXKXKXKXq BXsXsXsXdXdXdXdXdXdXdXdXdXdXgXfXsXsXZXq KXKXKXKXKXKXKXKXKXKXKXKXKXKXKXKXKXKXKXKXKXKX",
"KXKXKXKXKXKXKXKXKXKXKXKXKXKXKXKXKXKXKXKXKXq BXsXdXdXjXjXjXjXjXjXjXjXdXhXhXhXhXhXAXq KXKXKXKXKXKXKXKXKXKXKXKXKXKXKXKXKXKXKXKXKXKX",
"KXKXKXKXKXKXKXKXKXKXKXKXKXKXKXKXKXKXKXKXKXq BXjXjXjXkXzXzXzXzXzXzXzXjXjXjXjXkXkXAXq KXKXKXKXKXKXKXKXKXKXKXKXKXKXKXKXKXKXKXKXKXKX",
"KXKXKXKXKXKXKXKXKXKXKXKXKXKXKXKXKXKXKXKXKXq BXjXkXjXkXzXzXzXzXzXzXzXzXzXjXjXkXkXSXq KXKXKXKXKXKXKXKXKXKXKXKXKXKXKXKXKXKXKXKXKXKX",
"KXKXKXKXKXKXKXKXKXKXKXKXKXKXKXKXKXKXKXKXKXq BXkXkXzXzXzXzXzXzXzXzXzXzXzXzXlXkXkXDXq KXKXKXKXKXKXKXKXKXKXKXKXKXKXKXKXKXKXKXKXKXKX",
"KXKXKXKXKXKXKXKXKXKXKXKXKXKXKXKXKXKXKXKXKXq VXzXzXzXV zXzXzXzXzXxXzXvXvXZ vXzXzXFXq KXKXKXKXKXKXKXKXKXKXKXKXKXKXKXKXKXKXKXKXKXKX",
"KXKXKXKXKXKXKXKXKXKXKXKXKXKXKXKXKXKXKXKXKXq AXzXzXB 2XM zXzXzXzXzXzXvXB :XM vXxXFXq KXKXKXKXKXKXKXKXKXKXKXKXKXKXKXKXKXKXKXKXKXKX",
"KXKXKXKXKXKXKXKXKXKXKXKXKXKXKXKXKXKXKXKXKXq AXcXf 1X1X1Xh zXzXzXzXvXf >X<X:Xx bXFXq KXKXKXKXKXKXKXKXKXKXKXKXKXKXKXKXKXKXKXKXKXKX",
"KXKXKXKXKXKXKXKXKXKXKXKXKXKXKXKXKXKXKXKXKXq GXMXz :XC :Xn zXzXzXmXmXc ;XC -Xd mXHXq KXKXKXKXKXKXKXKXKXKXKXKXKXKXKXKXKXKXKXKXKXKX",
"KXKXKXKXKXKXKXKXKXKXKXKXKXKXKXKXKXKXKXKXKX6 GXs :XC C C *Xu FXFXFXr =XC C C $Xt GXq KXKXKXKXKXKXKXKXKXKXKXKXKXKXKXKXKXKXKXKXKXKX",
"KXKXKXKXKXKXKXKXKXKXKXKXKXKXKXKXKXKXKXKXKX< 7Xp oXoX+XoXoXp ).].].y #XOXOXXXOXw 9X, KXKXKXKXKXKXKXKXKXKXKXKXKXKXKXKXKXKXKXKXKXKX",
"KXKXKXKXKXKXKXKXKXKXKXKXKXKXKXKXKXKXKXKXKX4 6XY.R.T.T.R.R.W.^.^.^.^.^.(.`.[.[.{.8X4             KXKXKXKXKXKXKXKXKXKXKXKXKXKXKXKX",
"KXKXKXKXKXKXKXKXKXKXKXKXKXKXKXKXKXKXKXKXKX4 5XU.U.D.D.D.U.U.U.U.U.U.T.R.R.Q./.'.6X4               KXKXKXKXKXKXKXKXKXKXKXKXKXKXKX",
"KXKXKXKXKXKXKXKXKXKXKXKXKXKXKXKXKXKXKXKXKX1 ,XC.C.V.V.V.Z.C.C.C.S.C.D.D.U.T.W.~.5X4               KXKXKXKXKXKXKXKXKXKXKXKXKXKXKX",
"KXKXKXKXKXKXKXKXKXKXKXKXKXKXKXKXKXKXKXKXKX1 &XV.v g a j l m n.n.B.v k i b b N S.5X4               KXKXKXKXKXKXKXKXKXKXKXKXKXKXKX",
"KXKXKXKXKXKXKXKXKXKXKXKXKXKXKXKXKXKXKXKXKX1 XXn.n.JXL.K.JXv.b.b.b.b.JXL.K.JXm.m.4X4               KXKXKXKXKXKXKXKXKXKXKXKXKXKXKX",
"KXKXKXKXKXKXKXKXKXKXKXKXKXKXKXKXKXKXKXKXKX3 |.v.v.JXI.P.JXl.l.l.l.l.JXI.P.JXb.n.3X3               KXKXKXKXKXKXKXKXKXKXKXKXKXKXKX",
"KXKXKXKXKXKXKXKXKXKXKXKXKXKXKXKXKXKXKXKXKX2  Xk.l.j.j.j.j.j.j.f.u.i.i.p.j.k.l.b.,X2               KXKXKXKXKXKXKXKXKXKXKXKXKXKXKX",
"KXKXKXKXKXKXKXKXKXKXKXKXKXKXKXKXKXKXKXKXKX1 }.p.i.u.t.t.t.t.t.0.0.t.t.t.u.u.f.j.%X1               KXKXKXKXKXKXKXKXKXKXKXKXKXKXKX",
"KXKXKXKXKXKXKXKXKXKXKXKXKXKXKXKXKXKXKXKXKX: !.t.t.t.t.t.r.r.0.e 0.0.0.0.r.y.u.u..X:               KXKXKXKXKXKXKXKXKXKXKXKXKXKXKX",
"KXKXKXKXKXKXKXKXKXKXKXKXKXKXKXKXKXKXKXKXKX: E.t.e.e.e.r.e.0.0.0 6.8.8.0.0.e.e.u.@X:               KXKXKXKXKXKXKXKXKXKXKXKXKXKXKX",
"KXKXKXKXKXKXKXKXKXKXKXKXKXKXKXKXKXKXKXKXKX; W.e.e.e.0.0.0.0.7 5.9 5.5.5.5.0.e.t. X:               KXKXKXKXKXKXKXKXKXKXKXKXKXKXKX",
"KXKXKXKXKXKXKXKXKXKXKXKXKXKXKXKXKXKXKXKXKX= A.0.0.0.0.5.5.5 5.5.5.8 5.5.5.5.0.r._.:               KXKXKXKXKXKXKXKXKXKXKXKXKXKXKX",
"KXKXKXKXKXKXKXKXKXKXKXKXKXKXKXKXKXKXKXKXKX* M.5.5.5.5.5.5.5.5.5.5.5.5.5.5.5.5.7.J.>               KXKXKXKXKXKXKXKXKXKXKXKXKXKXKX",
"KXKXKXKXKXKXKXKXKXKXKXKXKXKXKXKXKXKXKXKXKX= c.5.5.,.,.,.,.,.,.,.,.,.,.,.5.5.,.<.H.>               KXKXKXKXKXKXKXKXKXKXKXKXKXKXKX",
"KXKXKXKXKXKXKXKXKXKXKXKXKXKXKXKXKXKXKXKXKX* x.<.,.,.&.&.&.&.&.&.&.&.&.&.,.,.,.,.G.>               KXKXKXKXKXKXKXKXKXKXKXKXKXKXKX",
"KXKXKXKXKXKXKXKXKXKXKXKXKXKXKXKXKXKXKXKXKX= z.:.:.&.&.&.&.&.&.&.&.&.&.&.&.,.:.&.F.>               KXKXKXKXKXKXKXKXKXKXKXKXKXKXKX",
"KXKXKXKXKXKXKXKXKXKXKXKXKXKXKXKXKXKXKXKXKX= z.@.$.$.%.&.&.&.&.&.&.&.%.%.%.&.&.%.N.>             KXKXKXKXKXKXKXKXKXKXKXKXKXKXKXKX",
"KXKXKXKXKXKXKXKXKXKXKXKXKXKXKXKXKXKXKXKXKX& z.X.O.O.#.#.+.+.#.#.#.#.#.#.$.$.%.%.h.<             KXKXKXKXKXKXKXKXKXKXKXKXKXKXKXKX",
"KXKXKXKXKXKXKXKXKXKXKXKXKXKXKXKXKXKXKXKXKX& g...{ { |  . . .o.+.+.+.+.+.O.O.+.+.g.<           KXKXKXKXKXKXKXKXKXKXKXKXKXKXKXKXKX",
"KXKXKXKXKXKXKXKXKXKXKXKXKXKXKXKXKXKXKXKXKX% s.) ) [ [ [ [ [ } } } } } } } { { ..a.:           KXKXKXKXKXKXKXKXKXKXKXKXKXKXKXKXKX",
"KXKXKXKXKXKXKXKXKXKXKXKXKXKXKXKXKXKXKXKXKX$ q.^ ) ( _ _ _ ' ' ' ' ' [ [ [ ) ] ` w.:         KXKXKXKXKXKXKXKXKXKXKXKXKXKXKXKXKXKX",
"KXKXKXKXKXKXKXKXKXKXKXKXKXKXKXKXKXKXKXKXKX$ q.~ ~ ~ ~ ~ ~ ~ ~ ~ ~ ~ ~ ( ( ( ( / d.:         KXKXKXKXKXKXKXKXKXKXKXKXKXKXKXKXKXKX",
"KXKXKXKXKXKXKXKXKXKXKXKXKXKXKXKXKXKXKXKXKX+ 9.R T Q ~ W W W W W W W ~ ~ ~ ! Q ~ 4.-       KXKXKXKXKXKXKXKXKXKXKXKXKXKXKXKXKXKXKX",
"KXKXKXKXKXKXKXKXKXKXKXKXKXKXKXKXKXKXKXKXKX+ 3.K L Y Y E E E E E E E R E ! R R U 2.#       KXKXKXKXKXKXKXKXKXKXKXKXKXKXKXKXKXKXKX",
"KXKXKXKXKXKXKXKXKXKXKXKXKXKXKXKXKXKXKXKXKX+ 1.H K L Y Y Y Y Y Y Y Y R Y Y U U P -.#     KXKXKXKXKXKXKXKXKXKXKXKXKXKXKXKXKXKXKXKX",
"KXKXKXKXKXKXKXKXKXKXKXKXKXKXKXKXKXKXKXKXKX+ >.F F G H J J I I I I P P P H G F D =.#     KXKXKXKXKXKXKXKXKXKXKXKXKXKXKXKXKXKXKXKX",
"KXKXKXKXKXKXKXKXKXKXKXKXKXKXKXKXKXKXKXKXKX. *.F F F F F F F F G G G G F F F S A ;.X   KXKXKXKXKXKXKXKXKXKXKXKXKXKXKXKXKXKXKXKXKX",
"KXKXKXKXKXKXKXKXKXKXKXKXKXKXKXKXKXKXKXKXKXKXo @ @ @ @ @ @ @ @ @ @ @ @ @ @ @ @ @ O   KXKXKXKXKXKXKXKXKXKXKXKXKXKXKXKXKXKXKXKXKXKX",
"KXKXKXKXKXKXKXKXKXKXKXKXKXKXKXKXKXKXKXKXKXKXKXKXKXKXKXKXKXKXKXKXKXKXKXKXKXKXKXKXKXKXKXKXKXKXKXKXKXKXKXKXKXKXKXKXKXKXKXKXKXKXKXKX",
"KXKXKXKXKXKXKXKXKXKXKXKXKXKXKXKXKXKXKXKXKXKXKXKXKXKXKXKXKXKXKXKXKXKXKXKXKXKXKXKXKXKXKXKXKXKXKXKXKXKXKXKXKXKXKXKXKXKXKXKXKXKXKXKX",
"KXKXKXKXKXKXKXKXKXKXKXKXKXKXKXKXKXKXKXKXKXKXKXKXKXKXKXKXKXKXKXKXKXKXKXKXKXKXKXKXKXKXKXKXKXKXKXKXKXKXKXKXKXKXKXKXKXKXKXKXKXKXKXKX",
"KXKXKXKXKXKXKXKXKXKXKXKXKXKXKXKXKXKXKXKXKXKXKXKXKXKXKXKXKXKXKXKXKXKXKXKXKXKXKXKXKXKXKXKXKXKXKXKXKXKXKXKXKXKXKXKXKXKXKXKXKXKXKXKX",
"KXKXKXKXKXKXKXKXKXKXKXKXKXKXKXKXKXKXKXKXKXKXKXKXKXKXKXKXKXKXKXKXKXKXKXKXKXKXKXKXKXKXKXKXKXKXKXKXKXKXKXKXKXKXKXKXKXKXKXKXKXKXKXKX",
"KXKXKXKXKXKXKXKXKXKXKXKXKXKXKXKXKXKXKXKXKXKXKXKXKXKXKXKXKXKXKXKXKXKXKXKXKXKXKXKXKXKXKXKXKXKXKXKXKXKXKXKXKXKXKXKXKXKXKXKXKXKXKXKX",
"KXKXKXKXKXKXKXKXKXKXKXKXKXKXKXKXKXKXKXKXKXKXKXKXKXKXKXKXKXKXKXKXKXKXKXKXKXKXKXKXKXKXKXKXKXKXKXKXKXKXKXKXKXKXKXKXKXKXKXKXKXKXKXKX",
"KXKXKXKXKXKXKXKXKXKXKXKXKXKXKXKXKXKXKXKXKXKXKXKXKXKXKXKXKXKXKXKXKXKXKXKXKXKXKXKXKXKXKXKXKXKXKXKXKXKXKXKXKXKXKXKXKXKXKXKXKXKXKXKX",
"KXKXKXKXKXKXKXKXKXKXKXKXKXKXKXKXKXKXKXKXKXKXKXKXKXKXKXKXKXKXKXKXKXKXKXKXKXKXKXKXKXKXKXKXKXKXKXKXKXKXKXKXKXKXKXKXKXKXKXKXKXKXKXKX"
};
