/* XPM */
static char *result[] = {
/* columns rows colors chars-per-pixel */
"64 64 51 1 ",
"  c #4C2711",
". c #4E2812",
"X c #4F2D1A",
"o c #512C16",
"O c #512E1A",
"+ c #52311D",
"@ c #5A371E",
"# c #5B381F",
"$ c #533421",
"% c #593622",
"& c #5C3C26",
"* c #573E2E",
"= c #5D3E29",
"- c #5F402D",
"; c #61422E",
": c #614532",
"> c #634836",
", c #644B39",
"< c #5A4E42",
"1 c #5E5246",
"2 c #5F5449",
"3 c #62574C",
"4 c #645A4F",
"5 c #645C51",
"6 c #676056",
"7 c #696156",
"8 c #676158",
"9 c #6B655B",
"0 c #6E685E",
"q c #716256",
"w c #6F6A61",
"e c #726D63",
"r c #777066",
"t c #7A7267",
"y c #757269",
"u c #7A766B",
"i c #7E796E",
"p c #7E7A71",
"a c #80796F",
"s c #807D74",
"d c #848277",
"f c #868478",
"g c #89867A",
"h c #8A887A",
"j c #8D8B82",
"k c #918F86",
"l c #96938B",
"z c #9A968E",
"x c #9D9991",
"c c #A09C94",
"v c None",
/* pixels */
"vvvvvvvvvvvvvvvvvvvvvvvvvvvvvvvvvvvvvvvvvvvvvvvvvvvvvvvvvvvvvvvv",
"vvvvvvvvvvvvvvvvvvvvvvvvvvvvvvvvvvvvvvvvvvvvvvvvvvvvvvvvvvvvvvvv",
"vvvvvvvvvvvvvvvvvvvvvvvvvvvvvvvvvvvvvvvvvvvvvvvvvvvvvvvvvvvvvvvv",
"vvvvvvvvvvvvvvvvvvvvvvvvvvvvvvvvvvvvvvvvvvvvvvvvvvvvvvvvvvvvvvvv",
"vvvvvvvvvvvvvvvvvvvvvvvvvvvvvvvvvvvvvvvvvvvvvvvvvvvvvvvvvvvvvvvv",
"vvvvvvvvvvvvvvvvvvvvvvvvvvvvvvvvvvvvvvvvvvvvvvvvvvvvvvvvvvvvvvvv",
"vvvvvvvvvvvvvvvvvvv-::::::,>,,,,,,,>>::,:>:-:-vvvvvvvvvvvvvvvvvv",
"vvvvvvvvvvvvvvvvv=&jjjjjjdddddddddddddddddddjj&vvvvvvvvvvvvvvvvv",
"vvvvvvvvvvvvvvvv=jjjjjjjddddddddddddddsffffsddj=vvvvvvvvvvvvvvvv",
"vvvvvvvvvvvvvvv&jddddddfdddddddddddddjjjsfffddsj&vvvvvvvvvvvvvvv",
"vvvvvvvvvvvvvvv&jddsdddssdddsdddddddsjjjfffsdddj=vvvvvvvvvvvvvvv",
"vvvvvvvvvvvvvv:jdddddddddddddddddsjjjjjjfsffdddsj:vvvvvvvvvvvvvv",
"vvvvvvvvvvvvvv;jddddddd5555567999999995q5jsgddddj&vvvvvvvvvvvvvv",
"vvvvvvvvvvvvvv;jddsgsd3&&&-=----*=-&==&=*2ddsddgj&vvvvvvvvvvvvvv",
"vvvvvvvvvvvvvv;jddddg3%qqryrrrrrerrrr5qq5%4dggdsj&vvvvvvvvvvvvvv",
"vvvvvvvvvvvvvv;jgdddd%qqrrrrrrrrtrrrrrttqq%dgsddk=vvvvvvvvvvvvvv",
"vvvvvvvvvvvvvv;kfffff@qretrrrrrruietrrtttt@dddfdl=vvvvvvvvvvvvvv",
"vvvvvvvvvvvvvv;kfffff@7tterrtuuuuuutrttttt@gfffdl=vvvvvvvvvvvvvv",
"vvvvvvvvvvvvvv:kfffff@7tttrreuuuiuuerttttt#dfgddl=vvvvvvvvvvvvvv",
"vvvvvvvvvvvvvv;kfffff@uiuurrtuuiuiuuuttttt#ddgddl=vvvvvvvvvvvvvv",
"vvvvvvvvvvvvvv;kfffff@tiiuuuuuuuuuuuuttttr@fggdgl=vvvvvvvvvvvvvv",
"vvvvvvvvvvvvvv;lfffff@iiuupiiiaiiiiiiuuttt@fsggdl=vvvvvvvvvvvvvv",
"vvvvvvvvvvvvvv;lgffff@iiussupuaaaiiiitittt@ggdgsz=vvvvvvvvvvvvvv",
"vvvvvvvvvvvvvv;lgffgg@iisuaiasaaaaaiiiauuu@hggggx=vvvvvvvvvvvvvv",
"vvvvvvvvvvvvvv;zhggfg@iaia705ssaiasiapiitu%jdgggx=vvvvvvvvvvvvvv",
"vvvvvvvvvvvvvv=zhkjggg@ui707qqq9daiiappit@kkgghsx-vvvvvvvvvvvvvv",
"vvvvvvvvvvvvvv;xjkkgggg########@@@@####&@khkggggx&vvvvvvvvvvvvvv",
"vvvvvvvvvvvvvv=chkhgghgggggghghgggghhgggkkhhggggx;vvvvvvvvvvvvvv",
"vvvvvvvvvvvvvv=cjkkgggghhghghhhgggghhhhhhkhfggggx=vvvvvvvvvvvvvv",
"vvvvvvvvvvvvvv=pchhhgggghggghgghhhhhghhhhhhhgggz7+vvvvvvvvvvvvvv",
"vvvvvvvvvvvvvv&iicchgggggggghgghggghgghhhhhhffx77+vvvvvvvvvvvvvv",
"vvvvvvvvvvvvvv&uuadxcxxxxzxzlllllllzlzlzzlzxxxq5qOvvvvvvvvvvvvvv",
"vvvvvvvvvvvvvv%yylkwyyyye0w00ww00iiiii00www009s88ovvvvvvvvvvvvvv",
"vvvvvvvvvvvvvv%yj9w9yy9w00000000000000009w0000ws4Xvvvvvvvvvvvvvv",
"vvvvvvvvvvvvvv.d9w9w998ww00000000000000009090009sovvvvvvvvvvvvvv",
"vvvvvvvvvvvvvv.d99w98www0000000w0000000000ee9999sOvvvvvvvvvvvvvv",
"vvvvvvvvvvvvvvos99998ww$$+$+@oo+OOOO++OOXree9999sovvvvvvvvvvvvvv",
"vvvvvvvvvvvvvv.s9999w88$$++$@oo+O$O%+O+OXree0099povvvvvvvvvvvvvv",
"vvvvvvvvvvvvvv.s99998w-,,5554q55555555445$wr9999y.vvvvvvvvvvvvvv",
"vvvvvvvvvvvvvv.u88898X,,555554555555q55555$w9999y.vvvvvvvvvvvvvv",
"vvvvvvvvvvvvvv u98999X<54445554555554455q5%59999y.vvvvvvvvvvvvvv",
"vvvvvvvvvvvvvv u89899$<53545454qq554435555%w9099eXvvvvvvvvvvvvvv",
"vvvvvvvvvvvvvvoy89898$25555545544444344444$59590y vvvvvvvvvvvvvv",
"vvvvvvvvvvvvvvoy88888$22135544444333434344$q9955y.vvvvvvvvvvvvvv",
"vvvvvvvvvvvvvv.e86688+22155555554333333344$59599w.vvvvvvvvvvvvvv",
"vvvvvvvvvvvvvv.w66668X22115555253333433333+95958e.vvvvvvvvvvvvvv",
"vvvvvvvvvvvvvv e66666X22155551553333333333+59858e.vvvvvvvvvvvvvv",
"vvvvvvvvvvvvvv w65656+11111115524333333122+55988eXvvvvvvvvvvvvvv",
"vvvvvvvvvvvvvv.w86666+11112222552222222222$55858e.vvvvvvvvvvvvvv",
"vvvvvvvvvvvvvv.e85555w$111222222222222222-885558e.vvvvvvvvvvvvvv",
"vvvvvvvvvvvvvv.0855555y$XX+++X+++X+XXXXXX8588555w.vvvvvvvvvvvvvv",
"vvvvvvvvvvvvvv.0w885555eeeeeewweweeeeweee5555555wXvvvvvvvvvvvvvv",
"vvvvvvvvvvvvvv.009988555555556666999895555555555w.vvvvvvvvvvvvvv",
"vvvvvvvvvvvvvvv.8899855555255555559988555555555w.vvvvvvvvvvvvvvv",
"vvvvvvvvvvvvvvvv 899555255555555555555555555550.vvvvvvvvvvvvvvvv",
"vvvvvvvvvvvvvvvv 998555525555525555555555555559.vvvvvvvvvvvvvvvv",
"vvvvvvvvvvvvvvvvv..955455555555555555555555599.vvvvvvvvvvvvvvvvv",
"vvvvvvvvvvvvvvvvvvv.  ..   o   o  oO    .. .  vvvvvvvvvvvvvvvvvv",
"vvvvvvvvvvvvvvvvvvvvvvvvvvvvvvvvvvvvvvvvvvvvvvvvvvvvvvvvvvvvvvvv",
"vvvvvvvvvvvvvvvvvvvvvvvvvvvvvvvvvvvvvvvvvvvvvvvvvvvvvvvvvvvvvvvv",
"vvvvvvvvvvvvvvvvvvvvvvvvvvvvvvvvvvvvvvvvvvvvvvvvvvvvvvvvvvvvvvvv",
"vvvvvvvvvvvvvvvvvvvvvvvvvvvvvvvvvvvvvvvvvvvvvvvvvvvvvvvvvvvvvvvv",
"vvvvvvvvvvvvvvvvvvvvvvvvvvvvvvvvvvvvvvvvvvvvvvvvvvvvvvvvvvvvvvvv",
"vvvvvvvvvvvvvvvvvvvvvvvvvvvvvvvvvvvvvvvvvvvvvvvvvvvvvvvvvvvvvvvv"
};
