/* XPM */
static char *result[] = {
/* columns rows colors chars-per-pixel */
"64 64 73 1 ",
"  c #311512",
". c #4F2713",
"X c #4E2913",
"o c #532C14",
"O c #542E19",
"+ c #57321C",
"@ c #59341D",
"# c #5D381E",
"$ c #5B3721",
"% c #5E3B24",
"& c #613D25",
"* c #613E29",
"= c #624127",
"- c #64442C",
"; c #674B2F",
": c #694A2F",
"> c #674731",
", c #654A35",
"< c #6A4D31",
"1 c #634C38",
"2 c #6C4E39",
"3 c #6E5134",
"4 c #66513D",
"5 c #68523F",
"6 c #705335",
"7 c #735539",
"8 c #75593B",
"9 c #785A3E",
"0 c #675341",
"q c #695542",
"w c #6C5843",
"e c #6F5F4D",
"r c #7A5E43",
"t c #6F604E",
"y c #7D6144",
"u c #73624E",
"i c #7F6548",
"p c #746552",
"a c #796653",
"s c #7A6A56",
"d c #7C6D5C",
"f c #7E705E",
"g c #806649",
"h c #836A4D",
"j c #876E52",
"k c #886F52",
"l c #806F5E",
"z c #877053",
"x c #8A7256",
"c c #81715F",
"v c #8C765A",
"b c #8E795C",
"n c #907A5D",
"m c #827564",
"M c #857866",
"N c #867968",
"B c #897C6B",
"V c #947F63",
"C c #8E816F",
"Z c #968165",
"A c #988267",
"S c #9A8569",
"D c #8F8271",
"F c #928576",
"G c #948778",
"H c #968B7B",
"J c #988C7E",
"K c #998F81",
"L c #9C9283",
"P c #9F9588",
"I c #A0978A",
"U c #A2988C",
"Y c None",
/* pixels */
"YYYYYYYYYYYYYYYYYYYYYYYYYYYYYYYYYYYYYYYYYYYYYYYYYYYYYYYYYYYYYYYY",
"YYYYYYYYYYYYYYYYYYYYYYYYYYYYYYYYYYYYYYYYYYYYYYYYYYYYYYYYYYYYYYYY",
"YYYYYYYYYYYYYYYYYYYYYYYYYYYYYYYYYYYYYYYYYYYYYYYYYYYYYYYYYYYYYYYY",
"YYYYYYYYYYYYYYYYYYYYYYYYYYYYYYYYYYYYYYYYYYYYYYYYYYYYYYYYYYYYYYYY",
"YYYYYYYYYYYYYYYYYYYYYYYYYYYYYYYYYYYYYYYYYYYYYYYYYYYYYYYYYYYYYYYY",
"YYYYYYYYYYYYYYYYYYYYYYYYYYYYYYYYYYYYYYYYYYYYYYYYYYYYYYYYYYYYYYYY",
"YYYYYYYYYYYYYYYYYYYYYYYYYYYYYYYYYYYYYYYYYYYYYYYYYYYYYYYYYYYYYYYY",
"YYYYYYYYYYYYYYYYYYYYYYYYYYYYYYYYYYYYYYYYYYYYYYYYYYYYYYYYYYYYYYYY",
"YYYYYYYYYYYYYYYYYYYYYYYYYYYYYYYYYYYYYYYYYYYYYYYYYYYYYYYYYYYYYYYY",
"YYYYYYYYYYYYYYYYYYYYYYYYYYYYYYYYYYYYYYYYYYYYYYYYYYYYYYYYYYYYYYYY",
"YYYYYYYYYYYYYYYYYYYYYYYYYYYYYYYYYYYYYYYYYYYYYYYYYYYYYYYYYYYYYYYY",
"YYYYYYYYYYYYYYYYYYYYYYYYYYYYYYYYYYYYYYYYYYYYYYYYYYYYYYYYYYYYYYYY",
"YYYYYYYYYYYYYYYYYYYYYYYYYYYYYYYYYYYYYYYYYYYYYYYYYYYYYYYYYYYYYYYY",
"YYYYYYYYYYYYYYYYYYYYYYYYYYYYYYYYYYYYYYYYYYYYYYYYYYYYYYYYYYYYYYYY",
"YYYYYYYYYYYYYYYYYYYYYYYYYYYYYYYYYYYYYYYYYYYYYYYYYYYYYYYYYYYYYYYY",
"YYYYYYYYYYYYYYYYYYYYYYYYYYYYYYYYYYYYYYYYYYYYYYYYYYYYYYYYYYYYYYYY",
"YYYYYYYYYYYYYYYYY%$@@YYYYYYYYYYYYYYYYYYYYYY&$$%YYYYYYYYYYYYYYYYY",
"YYYYYYYYYYYYYYYY$laa@ooooo@YooooooooYoooooo&paf+YYYYYYYYYYYYYYYY",
"YYYYYYYYYYYYYYYY-Mll#66666h@j6366638%i33662*ddM%YYYYYYYYYYYYYYYY",
"YYYYYYYYYYYYYYYY2GBB&rhhhhk-vhhghhhx-jghhhh*BBG>YYYYYYYYYYYYYYYY",
"YYYYYYYYYYYYYYYY2JFF*gjhjhn:Vhhjhhhb-vhhhhh-FFK*YYYYYYYYYYYYYYYY",
"YYYYYYYYYYYYYYYY2IGG*gvnnnV9nvvnbbbn<vvbvvv>FFP>YYYYYYYYYYYYYYYY",
"YYYYYYYYYYYYYYYY2ILL&hbbnnV9VnnnvvbV<vbbbvv>JJU>YYYYYYYYYYYYYYYY",
"YYYYYYYYYYYYYYYY<UII-hZZVAS7AVVVZVVV<ZVVVVV>IIU>YYYYYYYYYYYYYYYY",
"YYYYYYYYYYYYYYYY2UII*hVAVAS9SVVVZZZZ,AVVVVV>IIU2YYYYYYYYYYYYYYYY",
"YYYYYYYYYYYYYYYY2UII*hnSVAA7SVVVVVVA<AVVVVV>PIU>YYYYYYYYYYYYYYYY",
"YYYYYYYYYYYYYYYY-IHJ#gnnnnA7VnnnbbbS:Abbnvn>HJI>YYYYYYYYYYYYYYYY",
"YYYYYYYYYYYYYYYY=IJH#gnnnnV7VnnnbbbA:Zbbnvn>HHI>YYYYYYYYYYYYYYYY",
"YYYYYYYYYYYYYYYY*IBF@gnnnnV3VnnnvbnV-Znvvnn*FFK<    YYYYYYYYYYYY",
"YYYYYYYYYYYYYYYY*JFV+9hjhhk3khhhhhhv=vhhhhh*BBK>     YYYYYYYYYYY",
"YYYYYYYYYYYYYYYY&GBBo9hhhhk&xhhhhhhx@khhhhh*BMG*     YYYYYYYYYYY",
"YYYYYYYYYYYYYYYY&FMBo9hhhhk#kyy9rrrx@xhghgh*MMF*     YYYYYYYYYYY",
"YYYYYYYYYYYYYYYY#oooo98999gO3%#%$$@iO887764#ooX$     YYYYYYYYYYY",
"YYYYYYYYYYYYYYYY#HHH+oooooooooCCBF@oooooooo+HHH%     YYYYYYYYYYY",
"YYYYYYYYYYYYYYYY%Bzfo======o%ofooso&o3-----odfN%     YYYYYYYYYYY",
"YYYYYYYYYYYYYYYY%Nddo;66868X3opcouo$o833363osdM#     YYYYYYYYYYY",
"YYYYYYYYYYYYYYYY=fppo;33338o<ottoto%X8<<;<<oppf$     YYYYYYYYYYY",
"YYYYYYYYYYYYYYYY%dppo=<<3<8o<X55s5o%o83<3<<ottdO     YYYYYYYYYYY",
"YYYYYYYYYYYYYYYY@pttX=<3<<8o<=XXoo%<X8<3<3,Xttpo    YYYYYYYYYYYY",
"YYYYYYYYYYYYYYYYouwwX=;;;;8o<<====<<X8;;;<<.wwuo    YYYYYYYYYYYY",
"YYYYYYYYYYYYYYYYXuwwX&;;;;8o<<<<<<;<o8;;;;;Xqwu.   YYYYYYYYYYYYY",
"YYYYYYYYYYYYYYYY.uwwX%;;;;6X<<<<<<;;X7;;;;<XwwuX   YYYYYYYYYYYYY",
"YYYYYYYYYYYYYYYY.$$++%%=%%7o%%%%%%=%o7%%%%%++++.  YYYYYYYYYYYYYY",
"YYYYYYYYYYYYYYYY.mmmMXXXooooXoooooooooooXXXMmmm.  YYYYYYYYYYYYYY",
"YYYYYYYYYYYYYYYYXteupXsfdmmMBBBBCCNNNMmffdXpeeu. YYYYYYYYYYYYYYY",
"YYYYYYYYYYYYYYYY.111uo444555qqwq44ww00q004ou111. YYYYYYYYYYYYYYY",
"YYYYYYYYYYYYYYYY......XX......XXXXXXXXXXXXXX....YYYYYYYYYYYYYYYY",
"YYYYYYYYYYYYYYYYYYYYYYYYYYYYYYYYYYYYYYYYYYYYYYYYYYYYYYYYYYYYYYYY",
"YYYYYYYYYYYYYYYYYYYYYYYYYYYYYYYYYYYYYYYYYYYYYYYYYYYYYYYYYYYYYYYY",
"YYYYYYYYYYYYYYYYYYYYYYYYYYYYYYYYYYYYYYYYYYYYYYYYYYYYYYYYYYYYYYYY",
"YYYYYYYYYYYYYYYYYYYYYYYYYYYYYYYYYYYYYYYYYYYYYYYYYYYYYYYYYYYYYYYY",
"YYYYYYYYYYYYYYYYYYYYYYYYYYYYYYYYYYYYYYYYYYYYYYYYYYYYYYYYYYYYYYYY",
"YYYYYYYYYYYYYYYYYYYYYYYYYYYYYYYYYYYYYYYYYYYYYYYYYYYYYYYYYYYYYYYY",
"YYYYYYYYYYYYYYYYYYYYYYYYYYYYYYYYYYYYYYYYYYYYYYYYYYYYYYYYYYYYYYYY",
"YYYYYYYYYYYYYYYYYYYYYYYYYYYYYYYYYYYYYYYYYYYYYYYYYYYYYYYYYYYYYYYY",
"YYYYYYYYYYYYYYYYYYYYYYYYYYYYYYYYYYYYYYYYYYYYYYYYYYYYYYYYYYYYYYYY",
"YYYYYYYYYYYYYYYYYYYYYYYYYYYYYYYYYYYYYYYYYYYYYYYYYYYYYYYYYYYYYYYY",
"YYYYYYYYYYYYYYYYYYYYYYYYYYYYYYYYYYYYYYYYYYYYYYYYYYYYYYYYYYYYYYYY",
"YYYYYYYYYYYYYYYYYYYYYYYYYYYYYYYYYYYYYYYYYYYYYYYYYYYYYYYYYYYYYYYY",
"YYYYYYYYYYYYYYYYYYYYYYYYYYYYYYYYYYYYYYYYYYYYYYYYYYYYYYYYYYYYYYYY",
"YYYYYYYYYYYYYYYYYYYYYYYYYYYYYYYYYYYYYYYYYYYYYYYYYYYYYYYYYYYYYYYY",
"YYYYYYYYYYYYYYYYYYYYYYYYYYYYYYYYYYYYYYYYYYYYYYYYYYYYYYYYYYYYYYYY",
"YYYYYYYYYYYYYYYYYYYYYYYYYYYYYYYYYYYYYYYYYYYYYYYYYYYYYYYYYYYYYYYY",
"YYYYYYYYYYYYYYYYYYYYYYYYYYYYYYYYYYYYYYYYYYYYYYYYYYYYYYYYYYYYYYYY"
};
