/* XPM */
static char *result[] = {
/* columns rows colors chars-per-pixel */
"64 64 251 2 ",
"   c #53321D",
".  c #573622",
"X  c #583521",
"o  c #593724",
"O  c #593A27",
"+  c #5A3A27",
"@  c #5A3B28",
"#  c #5B3C29",
"$  c #5C3D2A",
"%  c #5D3E2A",
"&  c #5E3F2A",
"*  c #5E3F2B",
"=  c #5F402C",
"-  c #60402B",
";  c #60412C",
":  c #61412C",
">  c #60402D",
",  c #60412D",
"<  c #61422D",
"1  c #61422E",
"2  c #62422E",
"3  c #62432E",
"4  c #6A4A35",
"5  c #684B36",
"6  c #6D4B34",
"7  c #6C4B35",
"8  c #6E4C35",
"9  c #6F4C36",
"0  c #6A4D39",
"q  c #6E523F",
"w  c #74513A",
"e  c #6F5341",
"r  c #705340",
"t  c #725543",
"y  c #745643",
"u  c #775A45",
"i  c #775946",
"p  c #775B47",
"a  c #785A48",
"s  c #785C4A",
"d  c #7A5C4A",
"f  c #795E4A",
"g  c #795E4B",
"h  c #7A5E4A",
"j  c #7A5F4A",
"k  c #7A5F4B",
"l  c #7C5F4B",
"z  c #795D4C",
"x  c #7B5E4D",
"c  c #7B624E",
"v  c #7C604C",
"b  c #7C604D",
"n  c #7C624E",
"m  c #7E6352",
"M  c #7E6450",
"N  c #846552",
"B  c #896F5C",
"V  c #8B7565",
"C  c #8E7665",
"Z  c #8C7E67",
"A  c #8C7E68",
"S  c #8C7F69",
"D  c #8D7F69",
"F  c #8D7F6A",
"G  c #8D806A",
"H  c #8D816A",
"J  c #8D806B",
"K  c #8D816B",
"L  c #8E806A",
"P  c #8E816A",
"I  c #8E806B",
"U  c #8E816B",
"Y  c #8E826B",
"T  c #8E816C",
"R  c #8F816C",
"E  c #8F816D",
"W  c #8E826C",
"Q  c #8F826C",
"!  c #8F826D",
"~  c #8F836E",
"^  c #90826E",
"/  c #90836E",
"(  c #90836F",
")  c #90846E",
"_  c #91846E",
"`  c #90846F",
"'  c #91846F",
"]  c #908470",
"[  c #918470",
"{  c #908471",
"}  c #918471",
"|  c #918571",
" . c #928570",
".. c #928671",
"X. c #918572",
"o. c #928572",
"O. c #928672",
"+. c #938772",
"@. c #928673",
"#. c #938673",
"$. c #938773",
"%. c #938774",
"&. c #948873",
"*. c #968872",
"=. c #968973",
"-. c #978A73",
";. c #948874",
":. c #958974",
">. c #948875",
",. c #958975",
"<. c #968975",
"1. c #978A74",
"2. c #968A75",
"3. c #978A75",
"4. c #958976",
"5. c #958977",
"6. c #958A76",
"7. c #958A77",
"8. c #978A76",
"9. c #968A77",
"0. c #978B77",
"q. c #998C77",
"w. c #968A78",
"e. c #968B78",
"r. c #978B78",
"t. c #968B79",
"y. c #978B79",
"u. c #978C79",
"i. c #978C7A",
"p. c #998C78",
"a. c #988D78",
"s. c #998D78",
"d. c #988C79",
"f. c #998D79",
"g. c #9A8E79",
"h. c #988C7A",
"j. c #988D7A",
"k. c #988D7B",
"l. c #998E7A",
"z. c #9A8E7A",
"x. c #9A8F7B",
"c. c #988D7C",
"v. c #998E7C",
"b. c #998E7D",
"n. c #998F7D",
"m. c #9A8F7C",
"M. c #9B8F7C",
"N. c #9A8F7D",
"B. c #9A8F7E",
"V. c #9A8F7F",
"C. c #9A907E",
"Z. c #9B917E",
"A. c #9A907F",
"S. c #9B907F",
"D. c #9C907D",
"F. c #9C917D",
"G. c #9C917E",
"H. c #9D927F",
"J. c #46809E",
"K. c #48819F",
"L. c #548BA8",
"P. c #70A1B4",
"I. c #9B9080",
"U. c #9B9181",
"Y. c #9C9180",
"T. c #9C9181",
"R. c #9D9380",
"E. c #9C9281",
"W. c #9D9281",
"Q. c #9D9381",
"!. c #9C9282",
"~. c #9D9282",
"^. c #9D9383",
"/. c #9E9382",
"(. c #9E9383",
"). c #9E9482",
"_. c #9E9483",
"`. c #9D9384",
"'. c #9E9384",
"]. c #9E9485",
"[. c #9E9585",
"{. c #9E9684",
"}. c #9E9685",
"|. c #9F9685",
" X c #9F9686",
".X c #9F9787",
"XX c #9F9688",
"oX c #9F9788",
"OX c #9F9689",
"+X c #A09686",
"@X c #A09689",
"#X c #A09889",
"$X c #A19989",
"%X c #A29989",
"&X c #A0988A",
"*X c #A1988A",
"=X c #A1998A",
"-X c #A1988B",
";X c #A1998B",
":X c #A19A8A",
">X c #A39A8B",
",X c #A1998C",
"<X c #A19A8C",
"1X c #A29A8D",
"2X c #A39B8D",
"3X c #A49C8D",
"4X c #A49C8E",
"5X c #A59D8F",
"6X c #A69E90",
"7X c #A79F91",
"8X c #A7A091",
"9X c #A8A090",
"0X c #A9A190",
"qX c #A8A091",
"wX c #A9A191",
"eX c #A9A192",
"rX c #A9A193",
"tX c #AAA193",
"yX c #AAA292",
"uX c #AAA293",
"iX c #AAA294",
"pX c #AAA295",
"aX c #ABA395",
"sX c #ABA396",
"dX c #ABA495",
"fX c #ACA495",
"gX c #ACA496",
"hX c #ACA497",
"jX c #ACA597",
"kX c #ADA597",
"lX c #ADA598",
"zX c #ADA698",
"xX c #ADA699",
"cX c #AEA699",
"vX c #AEA69A",
"bX c #AFA69A",
"nX c #AEA79A",
"mX c #AFA79A",
"MX c #AFA69B",
"NX c #AFA79B",
"BX c #AFA79C",
"VX c #B0A79B",
"CX c #B0A89B",
"ZX c #B0A89C",
"AX c #B0A99C",
"SX c #B1A99C",
"DX c #B1A99D",
"FX c #B1A99E",
"GX c #B2AA9E",
"HX c #B7B0A5",
"JX c None",
/* pixels */
"JXJXJXJXJXJXJXJXJXJXJXJXJXJXJXJXJXJXJXJXJXJXJXJXJXJXJXJXJXJXJXJXJXJXJXJXJXJXJXJXJXJXJXJXJXJXJXJXJXJXJXJXJXJXJXJXJXJXJXJXJXJXJXJX",
"JXJXJXJXJXJXJXJXJXJXJXJXJXJXJXJXJXJXJXJXJXJXJXJXJXJXJXJXJXJXJXJXJXJXJXJXJXJXJXJXJXJXJXJXJXJXJXJXJXJXJXJXJXJXJXJXJXJXJXJXJXJXJXJX",
"JXJXJXJXJXJXJXJXJXJXJXJXJXJXJXJXJXJXJXJXJXJXJXJXJXJXJXJXJXJXJXJXJXJXJXJXJXJXJXJXJXJXJXJXJXJXJXJXJXJXJXJXJXJXJXJXJXJXJXJXJXJXJXJX",
"JXJXJXJXJXJXJXJXJXJXJXJXJXJXJXJXJXJXJXJXJXJXJXJXJXJXJXJXJXJXJXJXJXJXJXJXJXJXJXJXJXJXJXJXJXJXJXJXJXJXJXJXJXJXJXJXJXJXJXJXJXJXJXJX",
"JXJXJXJXJXJXJXJXJXJXJXJXJXJXJXJXJXJXJXJXJXJXJXJXJXJXJXJXJXJXJXJXJXJXJXJXJXJXJXJXJXJXJXJXJXJXJXJXJXJXJXJXJXJXJXJXJXJXJXJXJXJXJXJX",
"JXJXJXJXJXJXJXJXJXJXJXJXJXJXJXJXJXJXJXJXJXJXJXJXJXJXJXJXJXJXJXJXJXJXJXJXJXJXJXJXJXJXJXJXJXJXJXJXJXJXJXJXJXJXJXJXJXJXJXJXJXJXJXJX",
"JXJXJXJXJXJXJXJXJXJXJXJXJXJXJXJXJXJXJXJXJXJXJXJXJXJXJXJXJXJXJXJXJXJXJXJXJXJXJXJXJXJXJXJXJXJXJXJXJXJXJXJXJXJXJXJXJXJXJXJXJXJXJXJX",
"JXJXJXJXJXJXJXJXJXJXJXJXJXJXJXJXJXJXJXJXJXJXJXJXJXJXJXJXJXJXJXJXJXJXJXJXJXJXJXJXJXJXJXJXJXJXJXJXJXJXJXJXJXJXJXJXJXJXJXJXJXJXJXJX",
"JXJXJXJXJXJXJXJXJXJXJXJXJXJXJXJXJXJXJXJXJXJXJXJXJXJXJXJXJXJXJXJXJXJXJXJXJXJXJXJXJXJXJXJXJXJXJXJXJXJXJXJXJXJXJXJXJXJXJXJXJXJXJXJX",
"JXJXJXJXJXJXJXJXJXJXJXJXJXJXJXJXJXJXJXJXJXJXJXJXJXJXJXJXJXJXJXJXJXJXJXJXJXJXJXJXJXJXJXJXJXJXJXJXJXJXJXJXJXJXJXJXJXJXJXJXJXJXJXJX",
"JXJXJXJXJXJXJXJXJXJXJXJXJXJXJXJXJXJXJXJXJXJXJXJXJXJXJXJXJXJXJXJXJXJXJXJXJXJXJXJXJXJXJXJXJXJXJXJXJXJXJXJXJXJXJXJXJXJXJXJXJXJXJXJX",
"JXJXJXJXJXJXJXJXJXJXJXJXJXJXJXJXJXJXJXJXJXJXJX0 0 0 0 0 0 0 0 0 0 0 0 0 0 0 0 0 JXJXJXJXJXJXJXJXJXJXJXJXJXJXJXJXJXJXJXJXJXJXJXJX",
"JXJXJXJXJXJXJXJXJXJXJXJXJXJXJXJXJXJXJXJXJXJX0 0X0X0X0X0X0X0X0X0X0X0X0X0X0X0X0X0X0 JXJXJXJXJXJXJXJXJXJXJXJXJXJXJXJXJXJXJXJXJXJXJX",
"JXJXJXJXJXJXJXJXJXJXJXJXJXJXJXJXJXJXJXJXJX0 vXwX0XwX0XwXwX0X0X0X0X0X0XqXqXqXqX9XmX0 JXJXJXJXJXJXJXJXJXJXJXJXJXJXJXJXJXJXJXJXJXJX",
"JXJXJXJXJXJXJXJXJXJXJXJXJXJXJXJXJXJXJXJXJX0 bXrXtXrXrXrXrXtXtXeXeXeXwXyXyXeXeXqXVX0 JXJXJXJXJXJXJXJXJXJXJXJXJXJXJXJXJXJXJXJXJXJX",
"JXJXJXJXJXJXJXJXJXJXJXJXJXJXJXJXJXJXJXJXJX0 MXiXuXiXpXpXpXpXpXiXiXiXiXiXiXiXuXuXCX0 JXJXJXJXJXJXJXJXJXJXJXJXJXJXJXJXJXJXJXJXJXJX",
"JXJXJXJXJXJXJXJXJXJXJXJXJXJXJXJXJXJXJXJXJX0 NXaXaXaXsXsXsXsXsXsXsXsXsXsXfXdXaXaXCX0 JXJXJXJXJXJXJXJXJXJXJXJXJXJXJXJXJXJXJXJXJXJX",
"JXJXJXJXJXJXJXJXJXJXJXJXJXJXJXJXJXJXJXJXJX0 NXaXsXsXhXhXhXhXhXhXhXhXsXgXgXgXgXgXZX0 JXJXJXJXJXJXJXJXJXJXJXJXJXJXJXJXJXJXJXJXJXJX",
"JXJXJXJXJXJXJXJXJXJXJXJXJXJXJXJXJXJXJXJXJX0 NXhXhXhXjXlXlXlXlXlXlXlXhXhXhXhXjXjXZX0 JXJXJXJXJXJXJXJXJXJXJXJXJXJXJXJXJXJXJXJXJXJX",
"JXJXJXJXJXJXJXJXJXJXJXJXJXJXJXJXJXJXJXJXJX0 NXhXjXhXjXlXlXlXlXlXlXlXlXlXhXhXjXjXAX0 JXJXJXJXJXJXJXJXJXJXJXJXJXJXJXJXJXJXJXJXJXJX",
"JXJXJXJXJXJXJXJXJXJXJXJXJXJXJXJXJXJXJXJXJX0 NXjXjXlXlXlXlXlXlXlXlXlXlXlXlXkXjXjXSX0 JXJXJXJXJXJXJXJXJXJXJXJXJXJXJXJXJXJXJXJXJXJX",
"JXJXJXJXJXJXJXJXJXJXJXJXJXJXJXJXJXJXJXJXJX0 BXlXlXlXB lXlXlXlXlXzXlXcXcXC cXlXlXDX0 JXJXJXJXJXJXJXJXJXJXJXJXJXJXJXJXJXJXJXJXJXJX",
"JXJXJXJXJXJXJXJXJXJXJXJXJXJXJXJXJXJXJXJXJX0 ZXlXlXN 1Xm lXlXlXlXlXlXcXN ;Xm cXzXDX0 JXJXJXJXJXJXJXJXJXJXJXJXJXJXJXJXJXJXJXJXJXJX",
"JXJXJXJXJXJXJXJXJXJXJXJXJXJXJXJXJXJXJXJXJX0 ZXxXd <X<X<Xg lXlXlXlXcXd :X,X;Xz vXDX0 JXJXJXJXJXJXJXJXJXJXJXJXJXJXJXJXJXJXJXJXJXJX",
"JXJXJXJXJXJXJXJXJXJXJXJXJXJXJXJXJXJXJXJXJX0 FXmXl ;XV ;Xb lXlXlXnXnXx -XV =Xs nXGX0 JXJXJXJXJXJXJXJXJXJXJXJXJXJXJXJXJXJXJXJXJXJX",
"JXJXJXJXJXJXJXJXJXJXJXJXJXJXJXJXJXJXJXJXJX5 FXa ;XV V V &Xy DXDXDXe *XV V V #Xr FX0 JXJXJXJXJXJXJXJXJXJXJXJXJXJXJXJXJXJXJXJXJXJX",
"JXJXJXJXJXJXJXJXJXJXJXJXJXJXJXJXJXJXJXJXJX, 6Xi XXXXOXXXXXi (.'.'.t @XoXoX.XoXq 8X> JXJXJXJXJXJXJXJXJXJXJXJXJXJXJXJXJXJXJXJXJXJX",
"JXJXJXJXJXJXJXJXJXJXJXJXJXJXJXJXJXJXJXJXJX3 5XU.T.Y.Y.T.T.E.~.~.~.~.~./._.].].[.7X3 JXJXJXJXJXJXJXJXJXJXJXJXJXJXJXJXJXJXJXJXJXJX",
"JXJXJXJXJXJXJXJXJXJXJXJXJXJXJXJXJXJXJXJXJX3 4XI.I.S.S.S.I.I.I.I.I.I.Y.T.T.W.^.`.5X3 JXJXJXJXJXJXJXJXJXJXJXJXJXJXJXJXJXJXJXJXJXJX",
"JXJXJXJXJXJXJXJXJXJXJXJXJXJXJXJXJXJXJXJXJX< >XV.V.B.B.B.C.V.V.V.A.V.S.S.I.Y.E.!.4X3 JXJXJXJXJXJXJXJXJXJXJXJXJXJXJXJXJXJXJXJXJXJX",
"JXJXJXJXJXJXJXJXJXJXJXJXJXJXJXJXJXJXJXJXJX< %XB.c f p h k n b.b.N.c j u v v M A.4X3 JXJXJXJXJXJXJXJXJXJXJXJXJXJXJXJXJXJXJXJXJXJX",
"JXJXJXJXJXJXJXJXJXJXJXJXJXJXJXJXJXJXJXJXJX< .Xb.b.HXK.J.HXc.v.v.v.v.HXK.J.HXn.n.3X3 JXJXJXJXJXJXJXJXJXJXJXJXJXJXJXJXJXJXJXJXJXJX",
"JXJXJXJXJXJXJXJXJXJXJXJXJXJXJXJXJXJXJXJXJX2 }.c.c.HXP.L.HXk.k.k.k.k.HXP.L.HXv.b.2X2 JXJXJXJXJXJXJXJXJXJXJXJXJXJXJXJXJXJXJXJXJXJX",
"JXJXJXJXJXJXJXJXJXJXJXJXJXJXJXJXJXJXJXJXJX1 |.j.k.h.h.h.h.h.h.d.y.u.u.i.h.j.k.v.>X1 JXJXJXJXJXJXJXJXJXJXJXJXJXJXJXJXJXJXJXJXJXJX",
"JXJXJXJXJXJXJXJXJXJXJXJXJXJXJXJXJXJXJXJXJX< {.i.u.y.r.r.r.r.r.9.9.r.r.r.y.y.d.h.$X< JXJXJXJXJXJXJXJXJXJXJXJXJXJXJXJXJXJXJXJXJXJX",
"JXJXJXJXJXJXJXJXJXJXJXJXJXJXJXJXJXJXJXJXJX; Q.r.r.r.r.r.e.e.9.w 9.9.9.9.e.t.y.y. X; JXJXJXJXJXJXJXJXJXJXJXJXJXJXJXJXJXJXJXJXJXJX",
"JXJXJXJXJXJXJXJXJXJXJXJXJXJXJXJXJXJXJXJXJX; R.r.w.w.w.e.w.9.9.9 5.7.7.9.9.w.w.y.+X; JXJXJXJXJXJXJXJXJXJXJXJXJXJXJXJXJXJXJXJXJXJX",
"JXJXJXJXJXJXJXJXJXJXJXJXJXJXJXJXJXJXJXJXJX- E.w.w.w.9.9.9.9.6 4.8 4.4.4.4.9.w.r.|.; JXJXJXJXJXJXJXJXJXJXJXJXJXJXJXJXJXJXJXJXJXJX",
"JXJXJXJXJXJXJXJXJXJXJXJXJXJXJXJXJXJXJXJXJX* Z.9.9.9.9.4.4.4 4.4.4.7 4.4.4.4.9.e.).; JXJXJXJXJXJXJXJXJXJXJXJXJXJXJXJXJXJXJXJXJXJX",
"JXJXJXJXJXJXJXJXJXJXJXJXJXJXJXJXJXJXJXJXJX& m.4.4.4.4.4.4.4.4.4.4.4.4.4.4.4.4.6.H.: JXJXJXJXJXJXJXJXJXJXJXJXJXJXJXJXJXJXJXJXJXJX",
"JXJXJXJXJXJXJXJXJXJXJXJXJXJXJXJXJXJXJXJXJX* x.4.4.>.>.>.>.>.>.>.>.>.>.>.4.4.>.,.G.: JXJXJXJXJXJXJXJXJXJXJXJXJXJXJXJXJXJXJXJXJXJX",
"JXJXJXJXJXJXJXJXJXJXJXJXJXJXJXJXJXJXJXJXJX& z.,.>.>.%.%.%.%.%.%.%.%.%.%.>.>.>.>.F.: JXJXJXJXJXJXJXJXJXJXJXJXJXJXJXJXJXJXJXJXJXJX",
"JXJXJXJXJXJXJXJXJXJXJXJXJXJXJXJXJXJXJXJXJX* l.;.;.%.%.%.%.%.%.%.%.%.%.%.%.>.;.%.D.: JXJXJXJXJXJXJXJXJXJXJXJXJXJXJXJXJXJXJXJXJXJX",
"JXJXJXJXJXJXJXJXJXJXJXJXJXJXJXJXJXJXJXJXJX* l.+.#.#.$.%.%.%.%.%.%.%.$.$.$.%.%.$.M.: JXJXJXJXJXJXJXJXJXJXJXJXJXJXJXJXJXJXJXJXJXJX",
"JXJXJXJXJXJXJXJXJXJXJXJXJXJXJXJXJXJXJXJXJX% l...o.o.@.@.O.O.@.@.@.@.@.@.#.#.$.$.g., JXJXJXJXJXJXJXJXJXJXJXJXJXJXJXJXJXJXJXJXJXJX",
"JXJXJXJXJXJXJXJXJXJXJXJXJXJXJXJXJXJXJXJXJX% f. .[ [ } | | | X.O.O.O.O.O.o.o.O.O.f., JXJXJXJXJXJXJXJXJXJXJXJXJXJXJXJXJXJXJXJXJXJX",
"JXJXJXJXJXJXJXJXJXJXJXJXJXJXJXJXJXJXJXJXJX$ a.( ( ] ] ] ] ] { { { { { { { [ [  .p.; JXJXJXJXJXJXJXJXJXJXJXJXJXJXJXJXJXJXJXJXJXJX",
"JXJXJXJXJXJXJXJXJXJXJXJXJXJXJXJXJXJXJXJXJX# 0.~ ( / ) ) ) ` ` ` ` ` ] ] ] ( ' _ q.; JXJXJXJXJXJXJXJXJXJXJXJXJXJXJXJXJXJXJXJXJXJX",
"JXJXJXJXJXJXJXJXJXJXJXJXJXJXJXJXJXJXJXJXJX# 0.! ! ! ! ! ! ! ! ! ! ! ! / / / / ^ s.; JXJXJXJXJXJXJXJXJXJXJXJXJXJXJXJXJXJXJXJXJXJX",
"JXJXJXJXJXJXJXJXJXJXJXJXJXJXJXJXJXJXJXJXJXO 8.T Y W ! E E E E E E E ! ! ! Q W ! 3.= JXJXJXJXJXJXJXJXJXJXJXJXJXJXJXJXJXJXJXJXJXJX",
"JXJXJXJXJXJXJXJXJXJXJXJXJXJXJXJXJXJXJXJXJXO 2.J K U U R R R R R R R T R Q T T I 1.@ JXJXJXJXJXJXJXJXJXJXJXJXJXJXJXJXJXJXJXJXJXJX",
"JXJXJXJXJXJXJXJXJXJXJXJXJXJXJXJXJXJXJXJXJXO <.G J K U U U U U U U U T U U I I L =.@ JXJXJXJXJXJXJXJXJXJXJXJXJXJXJXJXJXJXJXJXJXJX",
"JXJXJXJXJXJXJXJXJXJXJXJXJXJXJXJXJXJXJXJXJXO :.D D F G H H P P P P L L L G F D S *.@ JXJXJXJXJXJXJXJXJXJXJXJXJXJXJXJXJXJXJXJXJXJX",
"JXJXJXJXJXJXJXJXJXJXJXJXJXJXJXJXJXJXJXJXJX  &.D D D D D D D D F F F F D D D A Z -.. JXJXJXJXJXJXJXJXJXJXJXJXJXJXJXJXJXJXJXJXJXJX",
"JXJXJXJXJXJXJXJXJXJXJXJXJXJXJXJXJXJXJXJXJXJXX + + + + + + + + + + + + + + + + + o JXJXJXJXJXJXJXJXJXJXJXJXJXJXJXJXJXJXJXJXJXJXJX",
"JXJXJXJXJXJXJXJXJXJXJXJXJXJXJXJXJXJXJXJXJXJXJXJXJXJXJXJXJXJXJXJXJXJXJXJXJXJXJXJXJXJXJXJXJXJXJXJXJXJXJXJXJXJXJXJXJXJXJXJXJXJXJXJX",
"JXJXJXJXJXJXJXJXJXJXJXJXJXJXJXJXJXJXJXJXJXJXJXJXJXJXJXJXJXJXJXJXJXJXJXJXJXJXJXJXJXJXJXJXJXJXJXJXJXJXJXJXJXJXJXJXJXJXJXJXJXJXJXJX",
"JXJXJXJXJXJXJXJXJXJXJXJXJXJXJXJXJXJXJXJXJXJXJXJXJXJXJXJXJXJXJXJXJXJXJXJXJXJXJXJXJXJXJXJXJXJXJXJXJXJXJXJXJXJXJXJXJXJXJXJXJXJXJXJX",
"JXJXJXJXJXJXJXJXJXJXJXJXJXJXJXJXJXJXJXJXJXJXJXJXJXJXJXJXJXJXJXJXJXJXJXJXJXJXJXJXJXJXJXJXJXJXJXJXJXJXJXJXJXJXJXJXJXJXJXJXJXJXJXJX",
"JXJXJXJXJXJXJXJXJXJXJXJXJXJXJXJXJXJXJXJXJXJXJXJXJXJXJXJXJXJXJXJXJXJXJXJXJXJXJXJXJXJXJXJXJXJXJXJXJXJXJXJXJXJXJXJXJXJXJXJXJXJXJXJX",
"JXJXJXJXJXJXJXJXJXJXJXJXJXJXJXJXJXJXJXJXJXJXJXJXJXJXJXJXJXJXJXJXJXJXJXJXJXJXJXJXJXJXJXJXJXJXJXJXJXJXJXJXJXJXJXJXJXJXJXJXJXJXJXJX",
"JXJXJXJXJXJXJXJXJXJXJXJXJXJXJXJXJXJXJXJXJXJXJXJXJXJXJXJXJXJXJXJXJXJXJXJXJXJXJXJXJXJXJXJXJXJXJXJXJXJXJXJXJXJXJXJXJXJXJXJXJXJXJXJX",
"JXJXJXJXJXJXJXJXJXJXJXJXJXJXJXJXJXJXJXJXJXJXJXJXJXJXJXJXJXJXJXJXJXJXJXJXJXJXJXJXJXJXJXJXJXJXJXJXJXJXJXJXJXJXJXJXJXJXJXJXJXJXJXJX",
"JXJXJXJXJXJXJXJXJXJXJXJXJXJXJXJXJXJXJXJXJXJXJXJXJXJXJXJXJXJXJXJXJXJXJXJXJXJXJXJXJXJXJXJXJXJXJXJXJXJXJXJXJXJXJXJXJXJXJXJXJXJXJXJX"
};
