/* XPM */
static char *result[] = {
/* columns rows colors chars-per-pixel */
"64 64 94 2 ",
"   c #31190C",
".  c #311512",
"X  c #4F2913",
"o  c #522B14",
"O  c #542F18",
"+  c #573017",
"@  c #553119",
"#  c #5A341B",
"$  c #5D381E",
"%  c #60391D",
"&  c #5D3A21",
"*  c #5B3E2F",
"=  c #5C3F30",
"-  c #613E23",
";  c #5B4432",
":  c #5E4834",
">  c #634126",
",  c #684326",
"<  c #644529",
"1  c #69462A",
"2  c #664A2D",
"3  c #6B4A2D",
"4  c #634332",
"5  c #6B4E31",
"6  c #634739",
"7  c #664A3B",
"8  c #684938",
"9  c #714F33",
"0  c #6C5033",
"q  c #64513E",
"w  c #725334",
"e  c #725638",
"r  c #765A3B",
"t  c #795C3D",
"y  c #675340",
"u  c #6B5442",
"i  c #6B5846",
"p  c #6E5D4A",
"a  c #705C47",
"s  c #7B5F40",
"d  c #715D49",
"f  c #785D4E",
"g  c #755C50",
"h  c #7A5E50",
"j  c #7D6343",
"k  c #74614D",
"l  c #766653",
"z  c #7B6253",
"x  c #7D6852",
"c  c #7C6559",
"v  c #7C6D5B",
"b  c #7E705F",
"n  c #806646",
"m  c #816749",
"M  c #846A4B",
"N  c #886F4F",
"B  c #816451",
"V  c #886F50",
"C  c #856A5B",
"Z  c #8C7354",
"A  c #81705D",
"S  c #8E745B",
"D  c #8F7858",
"F  c #907755",
"G  c #917856",
"H  c #937B5B",
"J  c #816B60",
"K  c #857364",
"L  c #8E7567",
"P  c #8B7B66",
"I  c #897469",
"U  c #947C6D",
"Y  c #978164",
"T  c #9D8664",
"R  c #9E8768",
"E  c #978174",
"W  c #9A8376",
"Q  c #9D8678",
"!  c #9F897A",
"~  c #D4C2B9",
"^  c #DACAC3",
"/  c #DED0C9",
"(  c #E1D4CD",
")  c #E3D7D0",
"_  c #E4D8D2",
"`  c #EBE2DE",
"'  c #EDE6E2",
"]  c #F0EAE7",
"[  c #F3EEEB",
"{  c #F5F0EE",
"}  c #F9F6F5",
"|  c #FAF8F7",
" . c #FEFEFE",
".. c None",
/* pixels */
"................................................................................................................................",
"................................................................................................................................",
"................................................................................................................................",
"................................................................................................................................",
"................................................................................................................................",
"....................................3 1 1 # B L U W Q ! ! ! ! ! ! ! ! ! ! ! Q E U S B 9 9 9 9 ..................................",
"..................................1 D j j # ~ ^ / ( ) ) ) ) _ ) _ _ ) ) ) ) ) ( / ^ ~ 3 G N N 9 ................................",
"..................................1 D j j @ ^ ( _ ` ' ' ' ' ] ' ' ' ' ' ] ' ` ` _ ( ^ 3 F N M 9 ................................",
"................................1 H M M 0 # / _ ' ] [ [ { { { { { { { { { { [ ] ' _ ( 5 s F Z Z 9 ..............................",
"................................3 D N M 0 # ( ` ] { } } | | } } | | | | | } } { ] _ ) 3 n H Z N 9 ..............................",
"................................1 H M M 0 # ) ` [ } |  . . . . . .|  . . .| | } [ ' ) 1 n H G G 9 ..............................",
"..............................1 G Z Z Z 0 @ ) ' [ } |  . . . . . . . . . . . .} [ ' _ 1 n R G G F 9 ............................",
"..............................1 H Z Z 0 5 @ _ ' { |  . . . . . . . . . . . .| | { ' _ 1 n n T G F 9 ............................",
"..............................1 Y F D 3 0 @ _ ' { |  . . . . . . . . . . . . .| { ' _ 1 s n T H H 1 ............................",
"..............................1 Y Z D 0 0 + _ ' { | |  . . . . . . . . . . . .| { ' _ 9 n n U H H 1 ............................",
"..............................1 U Z D 0 5 O ) ' { }  . . . . . . . . . . . . .} { ' _ 1 n n T H H 1 ............................",
"............................1 Y S Z Z 0 5 @ ) ' { |  . . . . . . . . . . . . .| { ' ) 3 j j R Y H H , ..........................",
"............................, Y S Z 5 5 5 o ) ' { |  . . . . . . . . . . . . .| { ' _ 3 n j j R Y H > ..........................",
"............................, Y Z S 0 5 0 + _ ' { | |  . . . . . . . . . . .| | { ' _ 3 j n j R H H - ..........................",
"............................, Y Z V 0 5 5 o _ ' { }  . . . . . . . . . . . . .| { ' ( 1 n j j T G F - ..........................",
"............................> Y N N 0 + 5 O ) ' { |  . . . . . . . . . . . . .| { ' _ 3 j 3 j T G G - ..........................",
"............................> Y N N o u o o ) ' { |  . . . . . . . . . . . . .} { ' _ , 3 K 9 T Z V & ..........................",
"............................> % % $ o : o O ) ' { }  . . . . . . . . . . . . .| { ' _ - , x 1 , , - % ..........................",
"............................> A K A u O 3 O ) ' { }  . . . . . . . . . . . .| | { ' / % t $ S P P P % ..........................",
"............................- k k k 2 o 5 o ) ' { |  . . . . . . . . . . . . .| { ` ) % n % z z x x # ..........................",
"............................- k k k o 3 3 o _ ' { |  . . . . . . . . . . . . .| { ] _ % n s % m x x # ..........................",
"............................- O + + 2 5 5 o _ ' { |  . . . . . . . . . . . .| | { ` ) % n j r % $ # # ..........................",
"............................- 0 3 5 2 2 2 o _ ' { | |  . . . . . . . . . . . .| { ] _ % j n j M r t # ..........................",
"............................& M j s 2 2 2 o ) ' { |  . . . . . . . . . . . . .} { ' ) % n s n Z M M # ..........................",
"............................& m s j 2 2 o q o ' { | |  . . . . . . . . . . . .| { ' % K % n t F n n # ..........................",
"............................& m j j 2 2 o ; o ' { |  . . . . . . . . . . . . .} { ' % z # t n V m n + ..........................",
"............................& M r r 2 2 X ; X ` { |  . . . . . . . . . . . . .} { ` % f % t t V n n + ..........................",
"............................$ M t t 2 < o ; X ' { | |  . . . . . . . . . . . .| { ' $ k # t s N j s + ..........................",
"............................& j t e < < X ; X ' { }  . . . . . . . . . . . . .| { ' # k # t s N s s +         . . ..............",
"............................& x r r > ; < @ _ ' { |  . . . . . . . . . . . .| | { ' ) # r r r N s t +         . . . ............",
"............................& j t r < > > X _ ' { |  . . . . . . . . . . . . .| { ' ) + r w w N t t o         . . . . ..........",
"............................& j r r < < > X _ ' { |  . . . . . . . . . . . . .} { ' ) + e w e N s t O         . . . . ..........",
"............................& j e e > > > X ) ' { |  . . . . . . . . . . . . .| { ' _ + w w w M r r o         . . . . ..........",
"............................# j e e > > > X ) ' { } |  . . . . . . . . . . . .} { ' ) o 9 % 0 M r e o         . . . . ..........",
"............................# j e e & X - o ) ' { }  . . . . . . . . . . . . .} { ' ) @ $ v $ M e e o . . . . . . . . ..........",
"............................@ j e e X q o X ) ` { { { | | | | |  . .|  . .| | } [ ' _ O $ i # M e e o . . . . . . . . ..........",
"............................X # & @ X : o X / ` ] { { } | | | | | | | } | | } { ] _ ) o , # l X o X X . . . . . . . . ..........",
"............................o A b b q X & X / ` ` ] { { { { { { { { { { { [ { [ ' _ / X 3 @ i A A b X . . . . . . . . ..........",
"............................X a p p : X X q X / _ ` ` ` ' ' ' ' ' ' ' ' ' ' ' _ _ / X c X > # i d d o . . . . . . . ............",
"............................o p p p X & X ; X ~ / ( _ _ _ ( _ ( _ _ _ _ _ _ _ ) / ^ X y X 1 # p d p X . . . . . . . ............",
"............................X X X X & & X ; o A L I E W Q Q Q W W W W Q W W W U L J X q X 3 , X X X X . . . . . . ..............",
"............................X 1 1 1 # X y ; o x J J I I L I L L I I I I I I I J J c o 7 l X 3 w 5 3 X . . . . . . ..............",
"............................X j e e & X ; ; o i g g g B h B B C z z z z h c h h h i o y y X 3 m e e X . . . . . ................",
"............................X j e e # X ; X 6 6 y y u u f 8 f 8 u B u f u u u u u 8 6 X i X 0 j e e X   . . . . ................",
"............................X j e e X q ; X ; ; = 7 = 8 8 9 = 8 = = = 8 8 8 8 8 8 8 6 X i b X j e e X . . . . ..................",
"............................X X X X X ; ; X ; * = 8 8 = 8 = 9 = = 9 = 9 = 8 4 4 4 4 4 X i p X X X X X . . . . ..................",
"............................X l l l y ; X * * * = = 8 = 8 = = 8 = = = 9 = = 4 4 4 4 < ; X p K k k d X . . . ....................",
"............................X k i i ; ; X * * 4 = 9 = 9 = = 8 = 9 9 = = 4 4 4 4 4 4 4 4 X p b y y u X . . . ....................",
"............................X l i i ; ; X * 4 4 = = = 9 8 9 = = = = = 8 4 4 1 = 4 4 4 4 X p b y y y X . . ......................",
"............................X k i i ; X * * 4 4 = = = = = 9 = 9 = 9 8 = = 4 4 4 4 4 4 4 4 X b i u i X . . ......................",
"............................X k i u ; X * 4 4 4 9 = 9 = = = 8 = = = = 9 4 4 4 4 4 4 4 4 4 X v y y y X . ........................",
"............................X k i i ; X * * * * * * * * * = = = = = = = = - * * ; = = = = X c y y u X . ........................",
"............................X X X X X X X X X X X X X X X o o O o + + # o o X X X X X X X X X X o X X ..........................",
"................................................................................................................................",
"................................................................................................................................",
"................................................................................................................................",
"................................................................................................................................",
"................................................................................................................................",
"................................................................................................................................"
};
