/* XPM */
static char *result[] = {
/* columns rows colors chars-per-pixel */
"64 64 13 1 ",
"  c #72751B",
". c #787B21",
"X c #7F8226",
"o c #656C17",
"O c #9CA8AD",
"+ c #A2814F",
"@ c #636917",
"# c #7F8124",
"$ c #686F16",
"% c #B3B0A9",
"& c #C6A740",
"* c #A2783C",
"= c #BD9842",
/* pixels */
"                                                                ",
"                                                                ",
"                  .X                                            ",
"                   XX                                           ",
"                   ...                                          ",
"                   o..o..XX                                     ",
"                    OO...                                       ",
"                   O+O..o                                       ",
"                   OO@.o                                        ",
"                   @@                                           ",
"                                                                ",
"                                                      #         ",
"                                X                    ..  #..    ",
"                               X                  #  .$ .##     ",
"                              ..                   #.$ ..#$     ",
"                              ..o                 $..  ..$.#    ",
"                              oo.X                 $.  %%..$    ",
"                                ..                  $ %++%$     ",
"                                oo                    @%%@      ",
"                                                    %+ @@       ",
"           XX     X                                 %%          ",
"            X.. .X                                  @@          ",
"         .XXo.o..o                                              ",
"          X..OO..o  %%                                          ",
"          o.O++Oo   +%                    .##                   ",
"           o@OO@%%  @@                     #..                  ",
"             @@%+%                         $..                  ",
"               %%@                          $$                  ",
"               @@                                               ",
"                                                                ",
"                                                                ",
"                                                                ",
"                                                                ",
"                                                                ",
"                                                                ",
"        ..                                                     .",
"        $##                                                    .",
"         #..   .                                               $",
"         $.. #.                                                 ",
"         $...&&            #                                    ",
"          $$&**&          ..  ##.                               ",
"            @&&@==     .  .$ ..#                                ",
"             @@ *=      #.$  ..$                                ",
"                @@      ..&&..$.#                               ",
"                         &**&$..$                               ",
"                         @&&@$.$                                ",
"                          @@  ==            ##    ..            ",
"                   ##.       =**=            #.. ##             ",
"                    #..      @==@         .##$.$..$             ",
"                    $..     &&@@           #..$$.OO             ",
"                     $$    &*&@            $.%% .+O             ",
"                           &&@              %++% @@             ",
"                           @@               @%%@                ",
"                                             @@                 ",
"        ##    ..                                                ",
"         #. &&.                   ##                            ",
"         $..&*.              .  ..#                             ",
"         $..@@$              ##$..$                             ",
"          $$                 #..$$                              ",
"                             $..                                ",
"                                                                ",
"                                                                ",
"                                                                ",
"                                                                "
};
