/* XPM */
static char *result[] = {
/* columns rows colors chars-per-pixel */
"64 64 233 2 ",
"   c #311512",
".  c #53321D",
"X  c #573622",
"o  c #583521",
"O  c #593724",
"+  c #593A27",
"@  c #5A3A27",
"#  c #5A3B28",
"$  c #5B3C29",
"%  c #5C3D2A",
"&  c #5D3E2A",
"*  c #5E3F2A",
"=  c #5E3F2B",
"-  c #5F402C",
";  c #60402B",
":  c #60412C",
">  c #61412C",
",  c #60402D",
"<  c #60412D",
"1  c #61422D",
"2  c #61422E",
"3  c #62422E",
"4  c #62432E",
"5  c #654937",
"6  c #684B36",
"7  c #6A4C38",
"8  c #6A4D39",
"9  c #694C3A",
"0  c #6B4F3E",
"q  c #6E513E",
"w  c #6F513E",
"e  c #735542",
"r  c #8C7E67",
"t  c #8C7E68",
"y  c #8C7F69",
"u  c #8D7F69",
"i  c #8D7F6A",
"p  c #8D806A",
"a  c #8D816A",
"s  c #8D806B",
"d  c #8D816B",
"f  c #8E806A",
"g  c #8E816A",
"h  c #8E806B",
"j  c #8E816B",
"k  c #8E826B",
"l  c #8E816C",
"z  c #8F816C",
"x  c #8F816D",
"c  c #8E826C",
"v  c #8F826C",
"b  c #8F826D",
"n  c #8F836E",
"m  c #90826E",
"M  c #90836E",
"N  c #90836F",
"B  c #90846E",
"V  c #91846E",
"C  c #90846F",
"Z  c #91846F",
"A  c #908470",
"S  c #918470",
"D  c #908471",
"F  c #918471",
"G  c #918571",
"H  c #928570",
"J  c #928671",
"K  c #918572",
"L  c #928572",
"P  c #928672",
"I  c #938772",
"U  c #928673",
"Y  c #938673",
"T  c #938773",
"R  c #938774",
"E  c #948873",
"W  c #968872",
"Q  c #968973",
"!  c #978A73",
"~  c #948874",
"^  c #958974",
"/  c #948875",
"(  c #958975",
")  c #968975",
"_  c #978A74",
"`  c #968A75",
"'  c #978A75",
"]  c #958976",
"[  c #958977",
"{  c #958A76",
"}  c #958A77",
"|  c #978A76",
" . c #968A77",
".. c #978B77",
"X. c #998C77",
"o. c #968A78",
"O. c #968B78",
"+. c #978B78",
"@. c #968B79",
"#. c #978B79",
"$. c #978C79",
"%. c #978C7A",
"&. c #998C78",
"*. c #988D78",
"=. c #998D78",
"-. c #988C79",
";. c #998D79",
":. c #9A8E79",
">. c #988C7A",
",. c #988D7A",
"<. c #988D7B",
"1. c #998E7A",
"2. c #9A8E7A",
"3. c #9A8F7B",
"4. c #988D7C",
"5. c #998E7C",
"6. c #998E7D",
"7. c #998F7D",
"8. c #9A8F7C",
"9. c #9B8F7C",
"0. c #9A8F7D",
"q. c #998E7E",
"w. c #9A8F7E",
"e. c #9A8F7F",
"r. c #9A907E",
"t. c #9B907E",
"y. c #9B917E",
"u. c #9A907F",
"i. c #9B907F",
"p. c #9C907D",
"a. c #9C917D",
"s. c #9C917E",
"d. c #9E917F",
"f. c #9D927F",
"g. c #9B9080",
"h. c #9B9181",
"j. c #9C9180",
"k. c #9C9181",
"l. c #9D9380",
"z. c #9C9281",
"x. c #9D9281",
"c. c #9D9381",
"v. c #9C9282",
"b. c #9D9282",
"n. c #9D9382",
"m. c #9C9283",
"M. c #9D9283",
"N. c #9D9383",
"B. c #9E9382",
"V. c #9E9383",
"C. c #9E9482",
"Z. c #9F9482",
"A. c #9E9483",
"S. c #9D9384",
"D. c #9E9384",
"F. c #9E9484",
"G. c #9E9485",
"H. c #9E9585",
"J. c #9E9684",
"K. c #9E9685",
"L. c #9F9685",
"P. c #9F9586",
"I. c #9F9686",
"U. c #9F9687",
"Y. c #9F9787",
"T. c #A09482",
"R. c #A09483",
"E. c #A09686",
"W. c #A19687",
"Q. c #A19787",
"!. c #A29887",
"~. c #A29987",
"^. c #A19989",
"/. c #A29989",
"(. c #A3998B",
"). c #A39A8B",
"_. c #A49989",
"`. c #A49A8A",
"'. c #A49A8B",
"]. c #A39B8D",
"[. c #A49C8D",
"{. c #A69D8D",
"}. c #A49C8E",
"|. c #A59D8F",
" X c #A69E90",
".X c #A79E90",
"XX c #A79F91",
"oX c #A89E90",
"OX c #A89F90",
"+X c #A7A091",
"@X c #A8A090",
"#X c #A9A190",
"$X c #A8A091",
"%X c #A9A191",
"&X c #A9A192",
"*X c #A9A093",
"=X c #A9A193",
"-X c #AAA193",
";X c #AAA292",
":X c #AAA293",
">X c #A9A194",
",X c #AAA194",
"<X c #AAA294",
"1X c #AAA295",
"2X c #ABA395",
"3X c #ABA396",
"4X c #ABA495",
"5X c #ABA496",
"6X c #ABA596",
"7X c #ACA495",
"8X c #ACA496",
"9X c #ACA497",
"0X c #ACA597",
"qX c #ADA597",
"wX c #ADA598",
"eX c #AEA599",
"rX c #ADA698",
"tX c #ADA699",
"yX c #AEA699",
"uX c #AEA69A",
"iX c #AEA79A",
"pX c #AFA79A",
"aX c #AFA79B",
"sX c #B0A79B",
"dX c #B0A89B",
"fX c #B0A89C",
"gX c #B0A99C",
"hX c #B1A99C",
"jX c #B0A99D",
"kX c #B1A99D",
"lX c #B1A99E",
"zX c #B2AA9E",
"xX c None",
/* pixels */
"xXxXxXxXxXxXxXxXxXxXxXxXxXxXxXxXxXxXxXxXxXxXxXxXxXxXxXxXxXxXxXxXxXxXxXxXxXxXxXxXxXxXxXxXxXxXxXxXxXxXxXxXxXxXxXxXxXxXxXxXxXxXxXxX",
"xXxXxXxXxXxXxXxXxXxXxXxXxXxXxXxXxXxXxXxXxXxXxXxXxXxXxXxXxXxXxXxXxXxXxXxXxXxXxXxXxXxXxXxXxXxXxXxXxXxXxXxXxXxXxXxXxXxXxXxXxXxXxXxX",
"xXxXxXxXxXxXxXxXxXxXxXxXxXxXxXxXxXxXxXxXxXxXxXxXxXxXxXxXxXxXxXxXxXxXxXxXxXxXxXxXxXxXxXxXxXxXxXxXxXxXxXxXxXxXxXxXxXxXxXxXxXxXxXxX",
"xXxXxXxXxXxXxXxXxXxXxXxXxXxXxXxXxXxXxXxXxXxXxXxXxXxXxXxXxXxXxXxXxXxXxXxXxXxXxXxXxXxXxXxXxXxXxXxXxXxXxXxXxXxXxXxXxXxXxXxXxXxXxXxX",
"xXxXxXxXxXxXxXxXxXxXxXxXxXxXxXxXxXxXxXxXxXxXxXxXxXxXxXxXxXxXxXxXxXxXxXxXxXxXxXxXxXxXxXxXxXxXxXxXxXxXxXxXxXxXxXxXxXxXxXxXxXxXxXxX",
"xXxXxXxXxXxXxXxXxXxXxXxXxXxXxXxXxXxXxXxXxXxXxXxXxXxXxXxXxXxXxXxXxXxXxXxXxXxXxXxXxXxXxXxXxXxXxXxXxXxXxXxXxXxXxXxXxXxXxXxXxXxXxXxX",
"xXxXxXxXxXxXxXxXxXxXxXxXxXxXxXxXxXxXxXxXxXxXxXxXxXxXxXxXxXxXxXxXxXxXxXxXxXxXxXxXxXxXxXxXxXxXxXxXxXxXxXxXxXxXxXxXxXxXxXxXxXxXxXxX",
"xXxXxXxXxXxXxXxXxXxXxXxXxXxXxXxXxXxXxXxXxXxXxXxXxXxXxXxXxXxXxXxXxXxXxXxXxXxXxXxXxXxXxXxXxXxXxXxXxXxXxXxXxXxXxXxXxXxXxXxXxXxXxXxX",
"xXxXxXxXxXxXxXxXxXxXxXxXxXxXxXxXxXxXxXxXxXxXxXxXxXxXxXxXxXxXxXxXxXxXxXxXxXxXxXxXxXxXxXxXxXxXxXxXxXxXxXxXxXxXxXxXxXxXxXxXxXxXxXxX",
"xXxXxXxXxXxXxXxXxXxXxXxXxXxXxXxXxXxXxXxXxXxXxXxXxXxXxXxXxXxXxXxXxXxXxXxXxXxXxXxXxXxXxXxXxXxXxXxXxXxXxXxXxXxXxXxXxXxXxXxXxXxXxXxX",
"xXxXxXxXxXxXxXxXxXxXxXxXxXxXxXxXxXxXxXxXxXe e xXxXxXxXxXxXxXxXxXxXxXxXxXxXxXxXxXxXxXxXxXxXxXxXxXxXxXxXxXxXxXxXxXxXxXxXxXxXxXxXxX",
"xXxXxXxXxXxXxXxXxXxXxXxXxXxXxXxXxXxXxXxXxXe 1Xe 0 8 8 8 8 8 8 8 8 8 8 8 8 8 8 8 xXxXxXxXxXxXxXxXxXxXxXxXxXxXxXxXxXxXxXxXxXxXxXxX",
"xXxXxXxXxXxXxXxXxXxXxXxXxXxXxXxXxXxXxXxXxXe 1X1Xe yXyXeXyXyXyXyXyXyXyXyXyXyXyXyX8 xXxXxXxXxXxXxXxXxXxXxXxXxXxXxXxXxXxXxXxXxXxXxX",
"xXxXxXxXxXxXxXxXxXxXxXxXxXxXxXxXxXxXxXxXxXe 1X>Xe %X#X%X%X#X#X#X#X#X#X$X$X$X$X@XpX8 xXxXxXxXxXxXxXxXxXxXxXxXxXxXxXxXxXxXxXxXxXxX",
"xXxXxXxXxXxXxXxXxXxXxXxXxXxXxXxXxXxXxXxXxXq oX{.`.e =X=X=X-X-X&X&X&X%X;X;X&X&X$XsX8 xXxXxXxXxXxXxXxXxXxXxXxXxXxXxXxXxXxXxXxXxXxX",
"xXxXxXxXxXxXxXxXxXxXxXxXxXxXxXxXxXxXxXxXxX9 _.!.Z.<X1X1X1X1X1X<X<X<X<X<X<X<X:X:XdX8 xXxXxXxXxXxXxXxXxXxXxXxXxXxXxXxXxXxXxXxXxXxX",
"xXxXxXxXxXxXxXxXxXxXxXxXxXxXxXxXxXxXxXxXxX5 Q.T.2X2X3X3X3X3X3X3X3X3X3X3X7X4X2X2XdX8 xXxXxXxXxXxXxXxXxXxXxXxXxXxXxXxXxXxXxXxXxXxX",
"xXxXxXxXxXxXxXxXxXxXxXxXxXxXxXxXxXxXxXxXxX5 aX5X5X3X9X9X9X9X9X9X9X9X3X8X8X8X8X8XfX8 xXxXxXxXxXxXxXxXxXxXxXxXxXxXxXxXxXxXxXxXxXxX",
"xXxXxXxXxXxXxXxXxXxXxXxXxXxXxXxXxXxXxXxXxXe e 5X5X9X0XwXwXwXwXwXwXwX9X9X9X9X0X0XfX8 xXxXxXxXxXxXxXxXxXxXxXxXxXxXxXxXxXxXxXxXxXxX",
"xXxXxXxXxXxXxXxXxXxXxXxXxXxXxXxXxXxXxXxXxXe =Xe 6X9X0XwXwXwXwXwXwXwXwXwX9X9X0X0XgX8 xXxXxXxXxXxXxXxXxXxXxXxXxXxXxXxXxXxXxXxXxXxX",
"xXxXxXxXxXxXxXxXxXxXxXxXxXxXxXxXxXxXxXxXxXe <X,Xe wXwXwXwXwXwXwXwXwXwXwXwXqX0X0XhX8 xXxXxXxXxXxXxXxXxXxXxXxXxXxXxXxXxXxXxXxXxXxX",
"xXxXxXxXxXxXxXxXxXxXxXxXxXxXxXxXxXxXxXxXxXe *X=Xe wXwXwXwXwXwXwXrXwXyXyXyXyXwXwXkX8 xXxXxXxXxXxXxXxXxXxXxXxXxXxXxXxXxXxXxXxXxXxX",
"xXxXxXxXxXxXxXxXxXxXxXxXxXxXxXxXxXxXxXxXxXw OX.X'.e wXwXwXwXwXwXwXwXyXyXyXyXyXrXkX8 xXxXxXxXxXxXxXxXxXxXxXxXxXxXxXxXxXxXxXxXxXxX",
"xXxXxXxXxXxXxXxXxXxXxXxXxXxXxXxXxXxXxXxXxX7 (.~.R.wXwXwXwXwXwXwXwXyXyXyXyXyXyXuXkX8 xXxXxXxXxXxXxXxXxXxXxXxXxXxXxXxXxXxXxXxXxXxX",
"xXxXxXxXxXxXxXxXxXxXxXxXxXxXxXxXxXxXxXxXxX6 Z.d.tXwXwXwXwXwXwXwXiXiXiXiXiXiXiXiXzX8 xXxXxXxXxXxXxXxXxXxXxXxXxXxXxXxXxXxXxXxXxXxX",
"xXxXxXxXxXxXxXxXxXxXxXxXxXxXxXxXxXxXxXxXxX6 lXjXjXjXjXjXjXjXkXkXkXkXkXkXkXkXkXkXlX8 xXxXxXxXxXxXxXxXxXxXxXxXxXxXxXxXxXxXxXxXxXxX",
"xXxXxXxXxXxXxXxXxXxXxXxXxXxXxXxXxXxXxXxXxX<  XM.m.v.N.n.M.N.V.D.D.F.F.G.G.P.U.W.+X, xXxXxXxXxXxXxXxXxXxXxXxXxXxXxXxXxXxXxXxXxXxX",
"xXxXxXxXxXxXxXxXxXxXxXxXxXxXxXxXxXxXxXxXxX4 |.h.k.j.j.k.k.z.b.b.b.b.b.B.A.G.G.H.XX4             xXxXxXxXxXxXxXxXxXxXxXxXxXxXxXxX",
"xXxXxXxXxXxXxXxXxXxXxXxXxXxXxXxXxXxXxXxXxX4 }.g.g.i.i.i.g.g.g.g.g.g.j.k.k.x.N.S.|.4               xXxXxXxXxXxXxXxXxXxXxXxXxXxXxX",
"xXxXxXxXxXxXxXxXxXxXxXxXxXxXxXxXxXxXxXxXxX1 ).e.e.w.w.w.r.e.e.e.u.e.i.i.g.j.z.v.}.4               xXxXxXxXxXxXxXxXxXxXxXxXxXxXxX",
"xXxXxXxXxXxXxXxXxXxXxXxXxXxXxXxXxXxXxXxXxX1 /.w.q.q.6.6.6.6.6.6.0.0.0.0.0.t.t.u.}.4               xXxXxXxXxXxXxXxXxXxXxXxXxXxXxX",
"xXxXxXxXxXxXxXxXxXxXxXxXxXxXxXxXxXxXxXxXxX1 Y.6.6.5.4.4.4.4.5.5.5.5.5.5.5.6.7.7.[.4               xXxXxXxXxXxXxXxXxXxXxXxXxXxXxX",
"xXxXxXxXxXxXxXxXxXxXxXxXxXxXxXxXxXxXxXxXxX3 K.4.4.4.4.<.<.<.<.<.<.<.<.<.5.5.5.6.].3               xXxXxXxXxXxXxXxXxXxXxXxXxXxXxX",
"xXxXxXxXxXxXxXxXxXxXxXxXxXxXxXxXxXxXxXxXxX2 L.,.<.>.>.>.>.>.>.-.#.$.$.%.>.,.<.5.).2               xXxXxXxXxXxXxXxXxXxXxXxXxXxXxX",
"xXxXxXxXxXxXxXxXxXxXxXxXxXxXxXxXxXxXxXxXxX1 J.%.$.#.+.+.+.+.+. . .+.+.+.#.#.-.>.^.1               xXxXxXxXxXxXxXxXxXxXxXxXxXxXxX",
"xXxXxXxXxXxXxXxXxXxXxXxXxXxXxXxXxXxXxXxXxX: c.+.+.+.+.+.O.O. . . . . . .O.@.#.#.I.:               xXxXxXxXxXxXxXxXxXxXxXxXxXxXxX",
"xXxXxXxXxXxXxXxXxXxXxXxXxXxXxXxXxXxXxXxXxX: l.+.o.o.o.O.o. . .[ [ } }  . .o.o.#.E.:               xXxXxXxXxXxXxXxXxXxXxXxXxXxXxX",
"xXxXxXxXxXxXxXxXxXxXxXxXxXxXxXxXxXxXxXxXxX; z.o.o.o. . . . . .] ] ] ] ] ]  .o.+.L.:               xXxXxXxXxXxXxXxXxXxXxXxXxXxXxX",
"xXxXxXxXxXxXxXxXxXxXxXxXxXxXxXxXxXxXxXxXxX= y. . . . .] ] ] ] ] ] ] ] ] ] ]  .O.C.:               xXxXxXxXxXxXxXxXxXxXxXxXxXxXxX",
"xXxXxXxXxXxXxXxXxXxXxXxXxXxXxXxXxXxXxXxXxX* 8.] ] ] ] ] ] ] ] ] ] ] ] ] ] ] ] { f.>               xXxXxXxXxXxXxXxXxXxXxXxXxXxXxX",
"xXxXxXxXxXxXxXxXxXxXxXxXxXxXxXxXxXxXxXxXxX= 3.] ] / / / / / / / / / / / ] ] / ( s.>               xXxXxXxXxXxXxXxXxXxXxXxXxXxXxX",
"xXxXxXxXxXxXxXxXxXxXxXxXxXxXxXxXxXxXxXxXxX* 2.( / / R R R R R R R R R R / / / / a.>               xXxXxXxXxXxXxXxXxXxXxXxXxXxXxX",
"xXxXxXxXxXxXxXxXxXxXxXxXxXxXxXxXxXxXxXxXxX= 1.~ ~ R R R R R R R R R R R R / ~ R p.>               xXxXxXxXxXxXxXxXxXxXxXxXxXxXxX",
"xXxXxXxXxXxXxXxXxXxXxXxXxXxXxXxXxXxXxXxXxX= 1.I Y Y T R R R R R R R T T T R R T 9.>             xXxXxXxXxXxXxXxXxXxXxXxXxXxXxXxX",
"xXxXxXxXxXxXxXxXxXxXxXxXxXxXxXxXxXxXxXxXxX& 1.J L L U U P P U U U U U U Y Y T T :.<             xXxXxXxXxXxXxXxXxXxXxXxXxXxXxXxX",
"xXxXxXxXxXxXxXxXxXxXxXxXxXxXxXxXxXxXxXxXxX& ;.H S S F G G G K P P P P P L L P P ;.<           xXxXxXxXxXxXxXxXxXxXxXxXxXxXxXxXxX",
"xXxXxXxXxXxXxXxXxXxXxXxXxXxXxXxXxXxXxXxXxX% *.N N A A A A A D D D D D D D S S H &.:           xXxXxXxXxXxXxXxXxXxXxXxXxXxXxXxXxX",
"xXxXxXxXxXxXxXxXxXxXxXxXxXxXxXxXxXxXxXxXxX$ ..n N M B B B C C C C C A A A N Z V X.:         xXxXxXxXxXxXxXxXxXxXxXxXxXxXxXxXxXxX",
"xXxXxXxXxXxXxXxXxXxXxXxXxXxXxXxXxXxXxXxXxX$ ..b b b b b b b b b b b b M M M M m =.:         xXxXxXxXxXxXxXxXxXxXxXxXxXxXxXxXxXxX",
"xXxXxXxXxXxXxXxXxXxXxXxXxXxXxXxXxXxXxXxXxX+ | l k c b x x x x x x x b b b v c b ' -       xXxXxXxXxXxXxXxXxXxXxXxXxXxXxXxXxXxXxX",
"xXxXxXxXxXxXxXxXxXxXxXxXxXxXxXxXxXxXxXxXxX+ ` s d j j z z z z z z z l z v l l h _ #       xXxXxXxXxXxXxXxXxXxXxXxXxXxXxXxXxXxXxX",
"xXxXxXxXxXxXxXxXxXxXxXxXxXxXxXxXxXxXxXxXxX+ ) p s d j j j j j j j j l j j h h f Q #     xXxXxXxXxXxXxXxXxXxXxXxXxXxXxXxXxXxXxXxX",
"xXxXxXxXxXxXxXxXxXxXxXxXxXxXxXxXxXxXxXxXxX+ ^ u u i p a a g g g g f f f p i u y W #     xXxXxXxXxXxXxXxXxXxXxXxXxXxXxXxXxXxXxXxX",
"xXxXxXxXxXxXxXxXxXxXxXxXxXxXxXxXxXxXxXxXxX. E u u u u u u u u i i i i u u u t r ! X   xXxXxXxXxXxXxXxXxXxXxXxXxXxXxXxXxXxXxXxXxX",
"xXxXxXxXxXxXxXxXxXxXxXxXxXxXxXxXxXxXxXxXxXxXo @ @ @ @ @ @ @ @ @ @ @ @ @ @ @ @ @ O   xXxXxXxXxXxXxXxXxXxXxXxXxXxXxXxXxXxXxXxXxXxX",
"xXxXxXxXxXxXxXxXxXxXxXxXxXxXxXxXxXxXxXxXxXxXxXxXxXxXxXxXxXxXxXxXxXxXxXxXxXxXxXxXxXxXxXxXxXxXxXxXxXxXxXxXxXxXxXxXxXxXxXxXxXxXxXxX",
"xXxXxXxXxXxXxXxXxXxXxXxXxXxXxXxXxXxXxXxXxXxXxXxXxXxXxXxXxXxXxXxXxXxXxXxXxXxXxXxXxXxXxXxXxXxXxXxXxXxXxXxXxXxXxXxXxXxXxXxXxXxXxXxX",
"xXxXxXxXxXxXxXxXxXxXxXxXxXxXxXxXxXxXxXxXxXxXxXxXxXxXxXxXxXxXxXxXxXxXxXxXxXxXxXxXxXxXxXxXxXxXxXxXxXxXxXxXxXxXxXxXxXxXxXxXxXxXxXxX",
"xXxXxXxXxXxXxXxXxXxXxXxXxXxXxXxXxXxXxXxXxXxXxXxXxXxXxXxXxXxXxXxXxXxXxXxXxXxXxXxXxXxXxXxXxXxXxXxXxXxXxXxXxXxXxXxXxXxXxXxXxXxXxXxX",
"xXxXxXxXxXxXxXxXxXxXxXxXxXxXxXxXxXxXxXxXxXxXxXxXxXxXxXxXxXxXxXxXxXxXxXxXxXxXxXxXxXxXxXxXxXxXxXxXxXxXxXxXxXxXxXxXxXxXxXxXxXxXxXxX",
"xXxXxXxXxXxXxXxXxXxXxXxXxXxXxXxXxXxXxXxXxXxXxXxXxXxXxXxXxXxXxXxXxXxXxXxXxXxXxXxXxXxXxXxXxXxXxXxXxXxXxXxXxXxXxXxXxXxXxXxXxXxXxXxX",
"xXxXxXxXxXxXxXxXxXxXxXxXxXxXxXxXxXxXxXxXxXxXxXxXxXxXxXxXxXxXxXxXxXxXxXxXxXxXxXxXxXxXxXxXxXxXxXxXxXxXxXxXxXxXxXxXxXxXxXxXxXxXxXxX",
"xXxXxXxXxXxXxXxXxXxXxXxXxXxXxXxXxXxXxXxXxXxXxXxXxXxXxXxXxXxXxXxXxXxXxXxXxXxXxXxXxXxXxXxXxXxXxXxXxXxXxXxXxXxXxXxXxXxXxXxXxXxXxXxX",
"xXxXxXxXxXxXxXxXxXxXxXxXxXxXxXxXxXxXxXxXxXxXxXxXxXxXxXxXxXxXxXxXxXxXxXxXxXxXxXxXxXxXxXxXxXxXxXxXxXxXxXxXxXxXxXxXxXxXxXxXxXxXxXxX"
};
