/* XPM */
static char *result[] = {
/* columns rows colors chars-per-pixel */
"64 64 232 2 ",
"   c #311512",
".  c #53321D",
"X  c #573622",
"o  c #583521",
"O  c #593724",
"+  c #593A27",
"@  c #5A3A27",
"#  c #5A3B28",
"$  c #5B3C29",
"%  c #5C3D2A",
"&  c #5D3E2A",
"*  c #5E3F2A",
"=  c #5E3F2B",
"-  c #5F402C",
";  c #60402B",
":  c #60412C",
">  c #61412C",
",  c #60402D",
"<  c #60412D",
"1  c #61422D",
"2  c #61422E",
"3  c #62422E",
"4  c #62432E",
"5  c #684B36",
"6  c #6A4D39",
"7  c #705340",
"8  c #735542",
"9  c #8C7E67",
"0  c #8C7E68",
"q  c #8C7F69",
"w  c #8D7F69",
"e  c #8D7F6A",
"r  c #8D806A",
"t  c #8D816A",
"y  c #8D806B",
"u  c #8D816B",
"i  c #8E806A",
"p  c #8E816A",
"a  c #8E806B",
"s  c #8E816B",
"d  c #8E826B",
"f  c #8E816C",
"g  c #8F816C",
"h  c #8F816D",
"j  c #8E826C",
"k  c #8F826C",
"l  c #8F826D",
"z  c #8F836E",
"x  c #90826E",
"c  c #90836E",
"v  c #90836F",
"b  c #90846E",
"n  c #91846E",
"m  c #90846F",
"M  c #91846F",
"N  c #908470",
"B  c #918470",
"V  c #908471",
"C  c #918471",
"Z  c #918571",
"A  c #928570",
"S  c #928671",
"D  c #918572",
"F  c #928572",
"G  c #928672",
"H  c #938772",
"J  c #928673",
"K  c #938673",
"L  c #938773",
"P  c #938774",
"I  c #948873",
"U  c #968872",
"Y  c #968973",
"T  c #978A73",
"R  c #948874",
"E  c #958974",
"W  c #948875",
"Q  c #958975",
"!  c #968975",
"~  c #978A74",
"^  c #968A75",
"/  c #978A75",
"(  c #958976",
")  c #958977",
"_  c #958A76",
"`  c #958A77",
"'  c #978A76",
"]  c #968A77",
"[  c #978B77",
"{  c #998C77",
"}  c #968A78",
"|  c #968B78",
" . c #978B78",
".. c #968B79",
"X. c #978B79",
"o. c #978C79",
"O. c #978C7A",
"+. c #998C78",
"@. c #988D78",
"#. c #998D78",
"$. c #988C79",
"%. c #998D79",
"&. c #9A8E79",
"*. c #988C7A",
"=. c #988D7A",
"-. c #988D7B",
";. c #998E7A",
":. c #9A8E7A",
">. c #9A8F7B",
",. c #988D7C",
"<. c #998E7C",
"1. c #998E7D",
"2. c #998F7D",
"3. c #9A8F7C",
"4. c #9B8F7C",
"5. c #9A8F7D",
"6. c #998E7E",
"7. c #9A8F7E",
"8. c #9A8F7F",
"9. c #9A907E",
"0. c #9B907E",
"q. c #9B917E",
"w. c #9A907F",
"e. c #9B907F",
"r. c #9C907D",
"t. c #9C917D",
"y. c #9C917E",
"u. c #9D927F",
"i. c #9B9080",
"p. c #9B9181",
"a. c #9C9180",
"s. c #9C9181",
"d. c #9E9180",
"f. c #9D9380",
"g. c #9C9281",
"h. c #9D9281",
"j. c #9D9381",
"k. c #9F9381",
"l. c #9C9282",
"z. c #9D9282",
"x. c #9D9382",
"c. c #9C9283",
"v. c #9D9283",
"b. c #9D9383",
"n. c #9E9382",
"m. c #9E9383",
"M. c #9E9482",
"N. c #9E9483",
"B. c #9D9384",
"V. c #9E9384",
"C. c #9E9484",
"Z. c #9E9485",
"A. c #9E9585",
"S. c #9E9684",
"D. c #9E9685",
"F. c #9F9685",
"G. c #9F9586",
"H. c #9F9686",
"J. c #9F9687",
"K. c #9F9787",
"L. c #A09382",
"P. c #A29685",
"I. c #A09686",
"U. c #A19786",
"Y. c #A19687",
"T. c #A19787",
"R. c #A29788",
"E. c #A19989",
"W. c #A29989",
"Q. c #A39A8B",
"!. c #A49889",
"~. c #A5998B",
"^. c #A59A8B",
"/. c #A39B8D",
"(. c #A59B8C",
"). c #A49C8D",
"_. c #A69C8C",
"`. c #A49C8E",
"'. c #A59D8F",
"]. c #A69D8F",
"[. c #A69E8F",
"{. c #A89E8F",
"}. c #A69E90",
"|. c #A79F91",
" X c #A99F90",
".X c #A99F92",
"XX c #A7A091",
"oX c #A8A090",
"OX c #A9A190",
"+X c #A8A091",
"@X c #A9A191",
"#X c #A9A092",
"$X c #A9A192",
"%X c #A9A093",
"&X c #A9A193",
"*X c #AAA093",
"=X c #AAA193",
"-X c #AAA292",
";X c #AAA293",
":X c #AAA194",
">X c #AAA294",
",X c #ABA394",
"<X c #AAA295",
"1X c #ABA395",
"2X c #ABA396",
"3X c #ABA495",
"4X c #ACA495",
"5X c #ACA496",
"6X c #ACA497",
"7X c #ACA597",
"8X c #ADA597",
"9X c #ADA598",
"0X c #ADA698",
"qX c #ADA699",
"wX c #AEA699",
"eX c #AEA69A",
"rX c #AFA69A",
"tX c #AEA79A",
"yX c #AFA79A",
"uX c #AFA69B",
"iX c #AFA79B",
"pX c #AFA79C",
"aX c #B0A79B",
"sX c #B0A89B",
"dX c #B0A89C",
"fX c #B0A99C",
"gX c #B1A99C",
"hX c #B0A99D",
"jX c #B1A99D",
"kX c #B1A99E",
"lX c #B2AA9E",
"zX c None",
/* pixels */
"zXzXzXzXzXzXzXzXzXzXzXzXzXzXzXzXzXzXzXzXzXzXzXzXzXzXzXzXzXzXzXzXzXzXzXzXzXzXzXzXzXzXzXzXzXzXzXzXzXzXzXzXzXzXzXzXzXzXzXzXzXzXzXzX",
"zXzXzXzXzXzXzXzXzXzXzXzXzXzXzXzXzXzXzXzXzXzXzXzXzXzXzXzXzXzXzXzXzXzXzXzXzXzXzXzXzXzXzXzXzXzXzXzXzXzXzXzXzXzXzXzXzXzXzXzXzXzXzXzX",
"zXzXzXzXzXzXzXzXzXzXzXzXzXzXzXzXzXzXzXzXzXzXzXzXzXzXzXzXzXzXzXzXzXzXzXzXzXzXzXzXzXzXzXzXzXzXzXzXzXzXzXzXzXzXzXzXzXzXzXzXzXzXzXzX",
"zXzXzXzXzXzXzXzXzXzXzXzXzXzXzXzXzXzXzXzXzXzXzXzXzXzXzXzXzXzXzXzXzXzXzXzXzXzXzXzXzXzXzXzXzXzXzXzXzXzXzXzXzXzXzXzXzXzXzXzXzXzXzXzX",
"zXzXzXzXzXzXzXzXzXzXzXzXzXzXzXzXzXzXzXzXzXzXzXzXzXzXzXzXzXzXzXzXzXzXzXzXzXzXzXzXzXzXzXzXzXzXzXzXzXzXzXzXzXzXzXzXzXzXzXzXzXzXzXzX",
"zXzXzXzXzXzXzXzXzXzXzXzXzXzXzXzXzXzXzXzXzXzXzXzXzXzXzXzXzXzXzXzXzXzXzXzXzXzXzXzXzXzXzXzXzXzXzXzXzXzXzXzXzXzXzXzXzXzXzXzXzXzXzXzX",
"zXzXzXzXzXzXzXzXzXzXzXzXzXzXzXzXzXzXzXzXzXzXzXzXzXzXzXzXzXzXzXzXzXzXzXzXzXzXzXzXzXzXzXzXzXzXzXzXzXzXzXzXzXzXzXzXzXzXzXzXzXzXzXzX",
"zXzXzXzXzXzXzXzXzXzXzXzXzXzXzXzXzXzXzXzXzXzXzXzXzXzX8 zXzXzXzXzXzXzXzXzX8 zXzXzXzXzXzXzXzXzXzXzXzXzXzXzXzXzXzXzXzXzXzXzXzXzXzXzX",
"zXzXzXzXzXzXzXzXzXzXzXzXzXzXzXzXzXzXzXzXzXzXzXzXzX8 #X8 zXzXzXzXzXzXzX8 <X8 zXzXzXzXzXzXzXzXzXzXzXzXzXzXzXzXzXzXzXzXzXzXzXzXzXzX",
"zXzXzXzXzXzXzXzXzXzXzXzXzXzXzXzXzXzXzXzXzXzXzXzX8 *X:X=X8 zXzXzXzXzX8 1X2X2X8 zXzXzXzXzXzXzXzXzXzXzXzXzXzXzXzXzXzXzXzXzXzXzXzXzX",
"zXzXzXzXzXzXzXzXzXzXzXzXzXzXzXzXzXzXzXzXzXzXzXzX8 $X&X#X8 zXzXzXzXzX8 <X2X,X8 zXzXzXzXzXzXzXzXzXzXzXzXzXzXzXzXzXzXzXzXzXzXzXzXzX",
"zXzXzXzXzXzXzXzXzXzXzXzXzXzXzXzXzXzXzXzXzXzXzX8 _.{. X X_.8 8 8 8 8 .X:X:X:X%X7 zXzXzXzXzXzXzXzXzXzXzXzXzXzXzXzXzXzXzXzXzXzXzXzX",
"zXzXzXzXzXzXzXzXzXzXzXzXzXzXzXzXzXzXzXzXzXzX6 ;Xd.~.(.^.P.OXOXOXOXOXW.].}.[.!.+X6 zXzXzXzXzXzXzXzXzXzXzXzXzXzXzXzXzXzXzXzXzXzXzX",
"zXzXzXzXzXzXzXzXzXzXzXzXzXzXzXzXzXzXzXzXzX6 eX@XOXk.L.L.@XOXOXOXOXOXOXR.T.U.+XoXyX6 zXzXzXzXzXzXzXzXzXzXzXzXzXzXzXzXzXzXzXzXzXzX",
"zXzXzXzXzXzXzXzXzXzXzXzXzXzXzXzXzXzXzXzXzX6 rX&X=X&X&X&X&X=X=X$X$X$X@X-X-X$X$X+XaX6 zXzXzXzXzXzXzXzXzXzXzXzXzXzXzXzXzXzXzXzXzXzX",
"zXzXzXzXzXzXzXzXzXzXzXzXzXzXzXzXzXzXzXzXzX6 uX>X;X>X<X<X<X<X<X>X>X>X>X>X>X>X;X;XsX6 zXzXzXzXzXzXzXzXzXzXzXzXzXzXzXzXzXzXzXzXzXzX",
"zXzXzXzXzXzXzXzXzXzXzXzXzXzXzXzXzXzXzXzXzX6 iX1X1X1X2X2X2X2X2X2X2X2X2X2X4X3X1X1XsX6 zXzXzXzXzXzXzXzXzXzXzXzXzXzXzXzXzXzXzXzXzXzX",
"zXzXzXzXzXzXzXzXzXzXzXzXzXzXzXzXzXzXzXzXzX6 iX1X2X2X6X6X6X6X6X6X6X6X2X5X5X5X5X5XdX6 zXzXzXzXzXzXzXzXzXzXzXzXzXzXzXzXzXzXzXzXzXzX",
"zXzXzXzXzXzXzXzXzXzXzXzXzXzXzXzXzXzXzXzXzX6 iX6X6X6X7X9X9X9X9X9X9X9X6X6X6X6X7X7XdX6 zXzXzXzXzXzXzXzXzXzXzXzXzXzXzXzXzXzXzXzXzXzX",
"zXzXzXzXzXzXzXzXzXzXzXzXzXzXzXzXzXzXzXzXzX6 iX6X7X6X7X9X9X9X9X9X9X9X9X9X6X6X7X7XfX6 zXzXzXzXzXzXzXzXzXzXzXzXzXzXzXzXzXzXzXzXzXzX",
"zXzXzXzXzXzXzXzXzXzXzXzXzXzXzXzXzXzXzXzXzX6 iX7X7X9X9X9X9X9X9X9X9X9X9X9X9X8X7X7XgX6 zXzXzXzXzXzXzXzXzXzXzXzXzXzXzXzXzXzXzXzXzXzX",
"zXzXzXzXzXzXzXzXzXzXzXzXzXzXzXzXzXzXzXzXzX6 pX9X9X9X9X9X9X9X9X9X0X9XwXwXwXwX9X9XjX6 zXzXzXzXzXzXzXzXzXzXzXzXzXzXzXzXzXzXzXzXzXzX",
"zXzXzXzXzXzXzXzXzXzXzXzXzXzXzXzXzXzXzXzXzX6 dX9X9X9X9X9X9X9X9X9X9X9XwXwXwXwXwX0XjX6 zXzXzXzXzXzXzXzXzXzXzXzXzXzXzXzXzXzXzXzXzXzX",
"zXzXzXzXzXzXzXzXzXzXzXzXzXzXzXzXzXzXzXzXzX6 dXqX9X9X9X9X9X9X9X9X9XwXwXwXwXwXwXeXjX6 zXzXzXzXzXzXzXzXzXzXzXzXzXzXzXzXzXzXzXzXzXzX",
"zXzXzXzXzXzXzXzXzXzXzXzXzXzXzXzXzXzXzXzXzX6 kXyXqX9X9X9X9X9X9X9XtXtXtXtXtXtXtXtXlX6 zXzXzXzXzXzXzXzXzXzXzXzXzXzXzXzXzXzXzXzXzXzX",
"zXzXzXzXzXzXzXzXzXzXzXzXzXzXzXzXzXzXzXzXzX5 kXhXhXhXhXhXhXhXjXjXjXjXjXjXjXjXjXjXkX6 zXzXzXzXzXzXzXzXzXzXzXzXzXzXzXzXzXzXzXzXzXzX",
"zXzXzXzXzXzXzXzXzXzXzXzXzXzXzXzXzXzXzXzXzX< }.v.c.l.b.x.v.b.m.V.V.C.C.Z.Z.G.J.Y.XX, zXzXzXzXzXzXzXzXzXzXzXzXzXzXzXzXzXzXzXzXzXzX",
"zXzXzXzXzXzXzXzXzXzXzXzXzXzXzXzXzXzXzXzXzX4 '.p.s.a.a.s.s.g.z.z.z.z.z.n.N.Z.Z.A.|.4             zXzXzXzXzXzXzXzXzXzXzXzXzXzXzXzX",
"zXzXzXzXzXzXzXzXzXzXzXzXzXzXzXzXzXzXzXzXzX4 `.i.i.e.e.e.i.i.i.i.i.i.a.s.s.h.b.B.'.4               zXzXzXzXzXzXzXzXzXzXzXzXzXzXzX",
"zXzXzXzXzXzXzXzXzXzXzXzXzXzXzXzXzXzXzXzXzX1 Q.8.8.7.7.7.9.8.8.8.w.8.e.e.i.a.g.l.`.4               zXzXzXzXzXzXzXzXzXzXzXzXzXzXzX",
"zXzXzXzXzXzXzXzXzXzXzXzXzXzXzXzXzXzXzXzXzX1 W.7.6.6.1.1.1.1.1.1.5.5.5.5.5.0.0.w.`.4               zXzXzXzXzXzXzXzXzXzXzXzXzXzXzX",
"zXzXzXzXzXzXzXzXzXzXzXzXzXzXzXzXzXzXzXzXzX1 K.1.1.<.,.,.,.,.<.<.<.<.<.<.<.1.2.2.).4               zXzXzXzXzXzXzXzXzXzXzXzXzXzXzX",
"zXzXzXzXzXzXzXzXzXzXzXzXzXzXzXzXzXzXzXzXzX3 D.,.,.,.,.-.-.-.-.-.-.-.-.-.<.<.<.1./.3               zXzXzXzXzXzXzXzXzXzXzXzXzXzXzX",
"zXzXzXzXzXzXzXzXzXzXzXzXzXzXzXzXzXzXzXzXzX2 F.=.-.*.*.*.*.*.*.$.X.o.o.O.*.=.-.<.Q.2               zXzXzXzXzXzXzXzXzXzXzXzXzXzXzX",
"zXzXzXzXzXzXzXzXzXzXzXzXzXzXzXzXzXzXzXzXzX1 S.O.o.X. . . . . .] ]  . . .X.X.$.*.E.1               zXzXzXzXzXzXzXzXzXzXzXzXzXzXzX",
"zXzXzXzXzXzXzXzXzXzXzXzXzXzXzXzXzXzXzXzXzX: j. . . . . .| | ] ] ] ] ] ] | ..X.X.H.:               zXzXzXzXzXzXzXzXzXzXzXzXzXzXzX",
"zXzXzXzXzXzXzXzXzXzXzXzXzXzXzXzXzXzXzXzXzX: f. .} } } | } ] ] ) ) ` ` ] ] } } X.I.:               zXzXzXzXzXzXzXzXzXzXzXzXzXzXzX",
"zXzXzXzXzXzXzXzXzXzXzXzXzXzXzXzXzXzXzXzXzX; g.} } } ] ] ] ] ] ( ( ( ( ( ( ] }  .F.:               zXzXzXzXzXzXzXzXzXzXzXzXzXzXzX",
"zXzXzXzXzXzXzXzXzXzXzXzXzXzXzXzXzXzXzXzXzX= q.] ] ] ] ( ( ( ( ( ( ( ( ( ( ( ] | M.:               zXzXzXzXzXzXzXzXzXzXzXzXzXzXzX",
"zXzXzXzXzXzXzXzXzXzXzXzXzXzXzXzXzXzXzXzXzX* 3.( ( ( ( ( ( ( ( ( ( ( ( ( ( ( ( _ u.>               zXzXzXzXzXzXzXzXzXzXzXzXzXzXzX",
"zXzXzXzXzXzXzXzXzXzXzXzXzXzXzXzXzXzXzXzXzX= >.( ( W W W W W W W W W W W ( ( W Q y.>               zXzXzXzXzXzXzXzXzXzXzXzXzXzXzX",
"zXzXzXzXzXzXzXzXzXzXzXzXzXzXzXzXzXzXzXzXzX* :.Q W W P P P P P P P P P P W W W W t.>               zXzXzXzXzXzXzXzXzXzXzXzXzXzXzX",
"zXzXzXzXzXzXzXzXzXzXzXzXzXzXzXzXzXzXzXzXzX= ;.R R P P P P P P P P P P P P W R P r.>               zXzXzXzXzXzXzXzXzXzXzXzXzXzXzX",
"zXzXzXzXzXzXzXzXzXzXzXzXzXzXzXzXzXzXzXzXzX= ;.H K K L P P P P P P P L L L P P L 4.>             zXzXzXzXzXzXzXzXzXzXzXzXzXzXzXzX",
"zXzXzXzXzXzXzXzXzXzXzXzXzXzXzXzXzXzXzXzXzX& ;.S F F J J G G J J J J J J K K L L &.<             zXzXzXzXzXzXzXzXzXzXzXzXzXzXzXzX",
"zXzXzXzXzXzXzXzXzXzXzXzXzXzXzXzXzXzXzXzXzX& %.A B B C Z Z Z D G G G G G F F G G %.<           zXzXzXzXzXzXzXzXzXzXzXzXzXzXzXzXzX",
"zXzXzXzXzXzXzXzXzXzXzXzXzXzXzXzXzXzXzXzXzX% @.v v N N N N N V V V V V V V B B A +.:           zXzXzXzXzXzXzXzXzXzXzXzXzXzXzXzXzX",
"zXzXzXzXzXzXzXzXzXzXzXzXzXzXzXzXzXzXzXzXzX$ [ z v c b b b m m m m m N N N v M n { :         zXzXzXzXzXzXzXzXzXzXzXzXzXzXzXzXzXzX",
"zXzXzXzXzXzXzXzXzXzXzXzXzXzXzXzXzXzXzXzXzX$ [ l l l l l l l l l l l l c c c c x #.:         zXzXzXzXzXzXzXzXzXzXzXzXzXzXzXzXzXzX",
"zXzXzXzXzXzXzXzXzXzXzXzXzXzXzXzXzXzXzXzXzX+ ' f d j l h h h h h h h l l l k j l / -       zXzXzXzXzXzXzXzXzXzXzXzXzXzXzXzXzXzXzX",
"zXzXzXzXzXzXzXzXzXzXzXzXzXzXzXzXzXzXzXzXzX+ ^ y u s s g g g g g g g f g k f f a ~ #       zXzXzXzXzXzXzXzXzXzXzXzXzXzXzXzXzXzXzX",
"zXzXzXzXzXzXzXzXzXzXzXzXzXzXzXzXzXzXzXzXzX+ ! r y u s s s s s s s s f s s a a i Y #     zXzXzXzXzXzXzXzXzXzXzXzXzXzXzXzXzXzXzXzX",
"zXzXzXzXzXzXzXzXzXzXzXzXzXzXzXzXzXzXzXzXzX+ E w w e r t t p p p p i i i r e w q U #     zXzXzXzXzXzXzXzXzXzXzXzXzXzXzXzXzXzXzXzX",
"zXzXzXzXzXzXzXzXzXzXzXzXzXzXzXzXzXzXzXzXzX. I w w w w w w w w e e e e w w w 0 9 T X   zXzXzXzXzXzXzXzXzXzXzXzXzXzXzXzXzXzXzXzXzX",
"zXzXzXzXzXzXzXzXzXzXzXzXzXzXzXzXzXzXzXzXzXzXo @ @ @ @ @ @ @ @ @ @ @ @ @ @ @ @ @ O   zXzXzXzXzXzXzXzXzXzXzXzXzXzXzXzXzXzXzXzXzXzX",
"zXzXzXzXzXzXzXzXzXzXzXzXzXzXzXzXzXzXzXzXzXzXzXzXzXzXzXzXzXzXzXzXzXzXzXzXzXzXzXzXzXzXzXzXzXzXzXzXzXzXzXzXzXzXzXzXzXzXzXzXzXzXzXzX",
"zXzXzXzXzXzXzXzXzXzXzXzXzXzXzXzXzXzXzXzXzXzXzXzXzXzXzXzXzXzXzXzXzXzXzXzXzXzXzXzXzXzXzXzXzXzXzXzXzXzXzXzXzXzXzXzXzXzXzXzXzXzXzXzX",
"zXzXzXzXzXzXzXzXzXzXzXzXzXzXzXzXzXzXzXzXzXzXzXzXzXzXzXzXzXzXzXzXzXzXzXzXzXzXzXzXzXzXzXzXzXzXzXzXzXzXzXzXzXzXzXzXzXzXzXzXzXzXzXzX",
"zXzXzXzXzXzXzXzXzXzXzXzXzXzXzXzXzXzXzXzXzXzXzXzXzXzXzXzXzXzXzXzXzXzXzXzXzXzXzXzXzXzXzXzXzXzXzXzXzXzXzXzXzXzXzXzXzXzXzXzXzXzXzXzX",
"zXzXzXzXzXzXzXzXzXzXzXzXzXzXzXzXzXzXzXzXzXzXzXzXzXzXzXzXzXzXzXzXzXzXzXzXzXzXzXzXzXzXzXzXzXzXzXzXzXzXzXzXzXzXzXzXzXzXzXzXzXzXzXzX",
"zXzXzXzXzXzXzXzXzXzXzXzXzXzXzXzXzXzXzXzXzXzXzXzXzXzXzXzXzXzXzXzXzXzXzXzXzXzXzXzXzXzXzXzXzXzXzXzXzXzXzXzXzXzXzXzXzXzXzXzXzXzXzXzX",
"zXzXzXzXzXzXzXzXzXzXzXzXzXzXzXzXzXzXzXzXzXzXzXzXzXzXzXzXzXzXzXzXzXzXzXzXzXzXzXzXzXzXzXzXzXzXzXzXzXzXzXzXzXzXzXzXzXzXzXzXzXzXzXzX",
"zXzXzXzXzXzXzXzXzXzXzXzXzXzXzXzXzXzXzXzXzXzXzXzXzXzXzXzXzXzXzXzXzXzXzXzXzXzXzXzXzXzXzXzXzXzXzXzXzXzXzXzXzXzXzXzXzXzXzXzXzXzXzXzX",
"zXzXzXzXzXzXzXzXzXzXzXzXzXzXzXzXzXzXzXzXzXzXzXzXzXzXzXzXzXzXzXzXzXzXzXzXzXzXzXzXzXzXzXzXzXzXzXzXzXzXzXzXzXzXzXzXzXzXzXzXzXzXzXzX"
};
